<svg version="1.1" xmlns="http://www.w3.org/2000/svg" width="32" height="32" viewBox="0 0 32 32">
<title>alarm</title>
<path d="M16.313 30.313c0-0.188-0.125-0.313-0.313-0.313-0.688 0-1.313-0.25-1.813-0.75s-0.75-1.125-0.75-1.813c0-0.188-0.125-0.313-0.313-0.313s-0.25 0.125-0.25 0.313c0 0.875 0.313 1.625 0.875 2.188 0.625 0.625 1.375 0.938 2.25 0.938 0.188 0 0.313-0.063 0.313-0.25zM4.375 25.125h23.25c-3.188-3.563-4.75-8.5-4.75-14.813 0-0.625-0.188-1.25-0.438-1.875-0.313-0.688-0.688-1.313-1.25-1.875-0.5-0.563-1.25-1.063-2.188-1.438-0.875-0.375-1.875-0.563-3-0.563s-2.125 0.188-3 0.563c-0.938 0.375-1.688 0.875-2.188 1.438-0.563 0.563-0.938 1.188-1.25 1.875-0.25 0.625-0.438 1.25-0.438 1.875 0 6.313-1.563 11.25-4.75 14.813zM30.875 25.125c0 0.625-0.25 1.188-0.688 1.625s-1 0.688-1.625 0.688h-8c0 1.25-0.438 2.313-1.313 3.25-0.938 0.875-2 1.313-3.25 1.313s-2.313-0.438-3.25-1.313c-0.875-0.938-1.313-2-1.313-3.25h-8c-0.625 0-1.188-0.25-1.625-0.688s-0.688-1-0.688-1.625c0.625-0.5 1.125-1 1.625-1.563s1-1.25 1.563-2.125c0.5-0.875 0.938-1.813 1.313-2.813s0.625-2.25 0.875-3.688c0.25-1.438 0.375-3 0.375-4.625 0-1.813 0.688-3.5 2.063-5.063s3.25-2.5 5.5-2.813c-0.125-0.25-0.125-0.5-0.125-0.75 0-0.438 0.125-0.875 0.5-1.188 0.313-0.313 0.688-0.5 1.188-0.5s0.875 0.188 1.188 0.5c0.375 0.313 0.5 0.75 0.5 1.188 0 0.25 0 0.5-0.125 0.75 2.25 0.313 4.125 1.25 5.5 2.813s2.063 3.25 2.063 5.063c0 1.625 0.125 3.188 0.375 4.625s0.5 2.688 0.875 3.688c0.375 1 0.813 1.938 1.313 2.813 0.563 0.875 1.063 1.563 1.563 2.125s1 1.063 1.625 1.563z"></path>
</svg>