<svg version="1.1" xmlns="http://www.w3.org/2000/svg" width="32" height="32" viewBox="0 0 32 32">
<title>anchor</title>
<path d="M17.125 4.563c0-0.313-0.125-0.563-0.313-0.813-0.25-0.188-0.5-0.313-0.813-0.313s-0.563 0.125-0.813 0.313c-0.188 0.25-0.313 0.5-0.313 0.813s0.125 0.563 0.313 0.813c0.25 0.25 0.5 0.313 0.813 0.313s0.563-0.063 0.813-0.313c0.188-0.25 0.313-0.5 0.313-0.813zM32 21.125v6.313c0 0.25-0.125 0.438-0.375 0.5-0.063 0.063-0.125 0.063-0.188 0.063-0.125 0-0.313-0.063-0.438-0.188l-1.625-1.625c-1.438 1.688-3.313 3.063-5.688 4.063-2.375 0.938-4.938 1.438-7.688 1.438s-5.313-0.5-7.688-1.438c-2.375-1-4.25-2.375-5.688-4.063l-1.625 1.625c-0.125 0.125-0.25 0.188-0.438 0.188-0.063 0-0.125 0-0.188-0.063-0.25-0.063-0.375-0.25-0.375-0.5v-6.313c0-0.125 0.063-0.313 0.188-0.375 0.063-0.125 0.188-0.188 0.375-0.188h6.313c0.25 0 0.438 0.125 0.5 0.375 0.125 0.188 0.063 0.438-0.125 0.625l-1.75 1.75c0.75 1.125 1.938 2 3.375 2.75s3.063 1.25 4.813 1.5v-11.563h-3.375c-0.313 0-0.625-0.125-0.813-0.313-0.25-0.25-0.375-0.5-0.375-0.813v-2.313c0-0.313 0.125-0.563 0.375-0.813 0.188-0.188 0.5-0.313 0.813-0.313h3.375v-2.938c-0.688-0.375-1.188-0.938-1.625-1.625s-0.625-1.5-0.625-2.313c0-1.25 0.438-2.313 1.313-3.25 0.938-0.875 2-1.313 3.25-1.313s2.313 0.438 3.25 1.313c0.875 0.938 1.313 2 1.313 3.25 0 0.813-0.188 1.625-0.625 2.313s-0.938 1.25-1.625 1.625v2.938h3.375c0.313 0 0.625 0.125 0.813 0.313 0.25 0.25 0.375 0.5 0.375 0.813v2.313c0 0.313-0.125 0.563-0.375 0.813-0.188 0.188-0.5 0.313-0.813 0.313h-3.375v11.563c1.75-0.25 3.375-0.75 4.813-1.5s2.625-1.625 3.375-2.75l-1.75-1.75c-0.188-0.188-0.25-0.438-0.125-0.625 0.063-0.25 0.25-0.375 0.5-0.375h6.313c0.188 0 0.313 0.063 0.375 0.188 0.125 0.063 0.188 0.25 0.188 0.375z"></path>
</svg>