<svg version="1.1" xmlns="http://www.w3.org/2000/svg" width="32" height="32" viewBox="0 0 32 32">
<title>asterisk</title>
<path d="M29.875 20.875l-8.875-4.875 8.875-4.875c0.75-0.438 1-1.313 0.563-2.063l-1.188-2.125c-0.438-0.75-1.375-0.938-2.063-0.5l-8.688 5.25 0.188-10.125c0.063-0.875-0.625-1.563-1.5-1.563h-2.375c-0.875 0-1.563 0.688-1.5 1.563l0.188 10.125-8.688-5.25c-0.688-0.438-1.625-0.25-2.063 0.5l-1.188 2.125c-0.438 0.75-0.188 1.625 0.563 2.063l8.875 4.875-8.875 4.875c-0.75 0.438-1 1.313-0.563 2.063l1.188 2.125c0.438 0.75 1.375 0.938 2.063 0.5l8.688-5.25-0.188 10.125c-0.063 0.875 0.625 1.563 1.5 1.563h2.375c0.875 0 1.563-0.688 1.5-1.563l-0.188-10.125 8.688 5.25c0.688 0.438 1.625 0.25 2.063-0.5l1.188-2.125c0.438-0.75 0.188-1.625-0.563-2.063z"></path>
</svg>