<svg version="1.1" xmlns="http://www.w3.org/2000/svg" width="32" height="32" viewBox="0 0 32 32">
<title>attach</title>
<path d="M21.313 8v14.688c0 2.938-2.375 5.313-5.313 5.313s-5.313-2.375-5.313-5.313v-15.375c0-1.875 1.438-3.313 3.313-3.313s3.313 1.438 3.313 3.313v15.375c0 0.688-0.563 1.313-1.313 1.313s-1.313-0.625-1.313-1.313v-12.688h-2v12.688c0 1.875 1.438 3.313 3.313 3.313s3.313-1.438 3.313-3.313v-15.375c0-2.938-2.375-5.313-5.313-5.313s-5.313 2.375-5.313 5.313v15.375c0 4.063 3.25 7.313 7.313 7.313s7.313-3.25 7.313-7.313v-14.688z"></path>
</svg>