<svg version="1.1" xmlns="http://www.w3.org/2000/svg" width="32" height="32" viewBox="0 0 32 32">
<title>audio</title>
<path d="M14.875 6.313v19.375c0 0.313-0.125 0.625-0.375 0.813-0.188 0.25-0.5 0.375-0.813 0.375s-0.563-0.125-0.75-0.375l-6-5.938h-4.625c-0.313 0-0.625-0.125-0.813-0.313-0.25-0.25-0.375-0.5-0.375-0.813v-6.875c0-0.313 0.125-0.563 0.375-0.813 0.188-0.188 0.5-0.313 0.813-0.313h4.625l6-5.938c0.188-0.25 0.438-0.375 0.75-0.375s0.625 0.125 0.813 0.375c0.25 0.188 0.375 0.5 0.375 0.813zM21.688 16c0 0.875-0.25 1.75-0.75 2.5-0.5 0.813-1.188 1.375-2 1.688-0.125 0.063-0.25 0.125-0.438 0.125-0.313 0-0.563-0.125-0.813-0.375-0.188-0.188-0.313-0.5-0.313-0.813 0-0.25 0.063-0.438 0.188-0.625s0.313-0.313 0.5-0.438c0.25-0.125 0.438-0.25 0.625-0.438 0.188-0.125 0.375-0.313 0.5-0.625 0.188-0.25 0.25-0.625 0.25-1s-0.063-0.75-0.25-1c-0.125-0.313-0.313-0.5-0.5-0.625-0.188-0.188-0.375-0.313-0.625-0.438-0.188-0.125-0.375-0.25-0.5-0.438s-0.188-0.375-0.188-0.625c0-0.313 0.125-0.625 0.313-0.813 0.25-0.25 0.5-0.375 0.813-0.375 0.188 0 0.313 0.063 0.438 0.125 0.813 0.313 1.5 0.875 2 1.625 0.5 0.813 0.75 1.688 0.75 2.563zM26.313 16c0 1.813-0.563 3.5-1.563 5.063-1 1.5-2.313 2.625-4 3.375-0.125 0.063-0.313 0.063-0.438 0.063-0.313 0-0.625-0.125-0.813-0.313-0.25-0.25-0.375-0.5-0.375-0.813 0-0.5 0.25-0.813 0.688-1.063 0.688-0.375 1.125-0.625 1.375-0.813 0.875-0.625 1.563-1.438 2.063-2.375 0.5-1 0.75-2 0.75-3.125s-0.25-2.125-0.75-3.125c-0.5-0.938-1.188-1.75-2.063-2.375-0.25-0.188-0.688-0.438-1.375-0.813-0.438-0.25-0.688-0.563-0.688-1.063 0-0.313 0.125-0.563 0.375-0.813 0.188-0.188 0.5-0.313 0.813-0.313 0.125 0 0.313 0 0.438 0.063 1.688 0.75 3 1.875 4 3.375 1 1.563 1.563 3.25 1.563 5.063zM30.875 16c0 2.75-0.75 5.25-2.313 7.563-1.5 2.25-3.5 3.938-6 5.063-0.188 0.063-0.313 0.063-0.5 0.063-0.313 0-0.563-0.125-0.75-0.313-0.25-0.25-0.375-0.5-0.375-0.813 0-0.438 0.25-0.813 0.688-1.063 0.125-0.063 0.25-0.125 0.438-0.188s0.313-0.125 0.375-0.188c0.563-0.313 1.063-0.625 1.5-0.938 1.438-1.063 2.563-2.438 3.375-4 0.875-1.625 1.25-3.375 1.25-5.188s-0.375-3.563-1.25-5.188c-0.813-1.563-1.938-2.938-3.375-4-0.438-0.313-0.938-0.625-1.5-0.938-0.063-0.063-0.188-0.125-0.375-0.188s-0.313-0.125-0.438-0.188c-0.438-0.25-0.688-0.625-0.688-1.063 0-0.313 0.125-0.563 0.375-0.813 0.188-0.188 0.438-0.313 0.75-0.313 0.188 0 0.313 0 0.5 0.063 2.5 1.125 4.5 2.813 6 5.063 1.563 2.313 2.313 4.813 2.313 7.563z"></path>
</svg>