<svg version="1.1" xmlns="http://www.w3.org/2000/svg" width="32" height="32" viewBox="0 0 32 32">
<title>baby</title>
<path d="M16 10c2.75 0 5-2.25 5-5s-2.25-5-5-5c-2.75 0-5 2.25-5 5s2.25 5 5 5zM12.688 25.563l1.563-2-3.813-3.188-2.875 3.563c-0.75 0.875-0.75 2.125-0.063 3.063l3 4c0.5 0.688 1.25 1 2 1 0.5 0 1.063-0.188 1.5-0.5 1.125-0.813 1.313-2.375 0.5-3.5zM21.563 20.375l-3.813 3.188 1.563 2-1.813 2.438c-0.813 1.125-0.625 2.688 0.5 3.5 0.438 0.313 1 0.5 1.5 0.5 0.75 0 1.5-0.313 2-1l3-4c0.688-0.938 0.688-2.188-0.063-3.063zM27.563 9.063c-0.813-1.125-2.375-1.375-3.5-0.625l-2.563 1.813c-3.25 2.313-7.75 2.313-11 0l-2.563-1.813c-1.125-0.75-2.688-0.5-3.5 0.625-0.75 1.125-0.5 2.688 0.625 3.5l2.563 1.75c1.063 0.75 2.188 1.313 3.375 1.75v1.938h10v-1.938c1.188-0.438 2.313-1 3.375-1.75l2.563-1.75c1.125-0.813 1.375-2.375 0.625-3.5z"></path>
</svg>