<svg version="1.1" xmlns="http://www.w3.org/2000/svg" width="32" height="32" viewBox="0 0 32 32">
<title>ball</title>
<path d="M14.438 15.188c0-2.25-0.5-4.5-1.375-6.563-5.688 2.625-9.875 7.625-11.313 13.563 0.875 1.875 2.063 3.625 3.563 5.063 1.438-5 4.688-9.313 9.125-12.063zM12.125 6.813c-0.938-1.625-2.125-3.125-3.563-4.438-5.688 3.125-9.063 9.563-7.813 16.438 2.063-5.25 6.125-9.5 11.375-12zM23.875 17.125c0.563-6.25-1.688-12.313-6.063-16.5-0.938-0.125-3.25-0.375-6.188 0.5 3.625 3.75 5.688 8.75 5.813 13.938 2 1.125 4.188 1.813 6.438 2.063zM16.063 17.75c-1.938 1.188-3.625 2.688-5 4.5 5.125 3.625 11.563 4.688 17.375 3 1.25-1.688 2.125-3.563 2.625-5.625-1.688 0.438-3.375 0.625-5.063 0.688-3.438-0.063-6.813-0.938-9.938-2.563zM9.938 23.938c-0.938 1.625-1.625 3.438-2 5.313 5.688 3.438 13 2.938 18.063-1.438-7.063 1.063-12.688-1.5-16.063-3.875zM21.188 1.438c3.5 4.375 5.188 10.063 4.688 15.813 1.875 0 3.813-0.25 5.625-0.875 0-0.125 0-0.25 0-0.375 0-6.75-4.313-12.438-10.313-14.563z"></path>
</svg>