<svg version="1.1" xmlns="http://www.w3.org/2000/svg" width="32" height="32" viewBox="0 0 32 32">
<title>barcode</title>
<path d="M0 28v-24h1.125v24zM1.688 28v-24h0.563v24zM3.375 28v-24h0.563v24zM6.188 28v-24h0.563v24zM8.438 28v-24h1.125v24zM11.25 28v-24h0.563v24zM12.375 28v-24h0.563v24zM13.5 28v-24h0.563v24zM15.688 28v-24h1.125v24zM18.5 28v-24h1.125v24zM20.75 28v-24h1.125v24zM23 28v-24h1.125v24zM24.688 28v-24h1.125v24zM27.5 28v-24h1.688v24zM29.75 28v-24h0.563v24zM30.875 28v-24h1.125v24z"></path>
</svg>