<svg version="1.1" xmlns="http://www.w3.org/2000/svg" width="32" height="32" viewBox="0 0 32 32">
<title>bath</title>
<path d="M30.5 16h-25.5v-9c0-1.125 0.875-2 2-2 0.688 0 1.313 0.375 1.688 0.938-1 1.563-0.938 3.688 0.438 5.188-0.25 0.313-0.25 0.75 0 1l0.75 0.75c0.25 0.25 0.75 0.25 1.063 0l5.938-5.938c0.25-0.313 0.25-0.813 0-1.063l-0.75-0.75c-0.25-0.25-0.688-0.25-1 0-1.125-1.063-2.625-1.375-4-1-0.938-1.25-2.438-2.125-4.125-2.125-2.75 0-5 2.25-5 5v9h-0.5c-0.813 0-1.5 0.688-1.5 1.5v1c0 0.813 0.688 1.5 1.5 1.5h0.5v2c0 1.75 0.75 3.375 2 4.5v2c0 0.813 0.688 1.5 1.5 1.5h1c0.813 0 1.5-0.688 1.5-1.5v-0.5h16v0.5c0 0.813 0.688 1.5 1.5 1.5h1c0.813 0 1.5-0.688 1.5-1.5v-2c1.25-1.125 2-2.75 2-4.5v-2h0.5c0.813 0 1.5-0.688 1.5-1.5v-1c0-0.813-0.688-1.5-1.5-1.5z"></path>
</svg>