<svg version="1.1" xmlns="http://www.w3.org/2000/svg" width="32" height="32" viewBox="0 0 32 32">
<title>beach-umbrella</title>
<path d="M5.75 10.063l5.125 1.813c1.75-4.063 4.313-7.188 6.938-8.625-4.813-0.25-9.438 1.813-12.438 5.563-0.313 0.438-0.125 1.063 0.375 1.25zM12.375 12.438l11.938 4.375c1.75-6.063 0.938-11.625-2.125-12.688-0.375-0.188-0.75-0.25-1.188-0.25-2.875 0-6.375 3.5-8.625 8.563zM26.063 6.25c0.313 0.813 0.563 1.688 0.688 2.75 0.25 2.5-0.063 5.375-0.938 8.313l5.125 1.875c0.5 0.188 1.063-0.188 1.063-0.688 0.125-4.813-2.125-9.375-5.938-12.25zM28 25.625h-11.938l3.25-8.938-3-1.125-3.688 10.063h-11.813c-0.438 0-0.813 0.313-0.813 0.75v1.625c0 0.438 0.375 0.813 0.813 0.813h27.188c0.438 0 0.813-0.375 0.813-0.813v-1.625c0-0.438-0.375-0.75-0.813-0.75z"></path>
</svg>