<svg version="1.1" xmlns="http://www.w3.org/2000/svg" width="32" height="32" viewBox="0 0 32 32">
<title>bed</title>
<path d="M8.813 16c2.188 0 4-1.813 4-4s-1.813-4-4-4c-2.188 0-4 1.813-4 4s1.813 4 4 4zM26.375 9.625h-11.188c-0.438 0-0.813 0.313-0.813 0.75v7.25h-11.188v-10.438c0-0.438-0.375-0.813-0.813-0.813h-1.563c-0.438 0-0.813 0.375-0.813 0.813v17.625c0 0.438 0.375 0.813 0.813 0.813h1.563c0.438 0 0.813-0.375 0.813-0.813v-2.438h25.625v2.438c0 0.438 0.375 0.813 0.813 0.813h1.563c0.438 0 0.813-0.375 0.813-0.813v-9.625c0-3.063-2.5-5.563-5.625-5.563z"></path>
</svg>