<svg version="1.1" xmlns="http://www.w3.org/2000/svg" width="32" height="32" viewBox="0 0 32 32">
<title>bicycle</title>
<path d="M25.625 12.813c-0.813 0-1.625 0.125-2.313 0.438l-3.875-6.313c-0.25-0.313-0.625-0.563-1.063-0.563h-3.188c-0.438 0-0.813 0.375-0.813 0.813v0.813c0 0.438 0.375 0.813 0.813 0.813h2.563l0.75 1.188h-5.688v-0.813c0-0.438-0.375-0.813-0.813-0.813h-4.375c-0.688 0-1.25 0.563-1.25 1.25 0.063 0.625 0.563 1.188 1.25 1.188h2.438l-1.5 2.375c-0.688-0.25-1.375-0.375-2.125-0.375-3.563 0-6.438 2.813-6.438 6.375 0 3.5 2.875 6.438 6.375 6.438 3 0 5.5-2.063 6.25-4.813h2.563c0.438 0 0.813-0.25 1.063-0.563l4.25-6.938 0.75 1.188c-1.25 1.188-2.063 2.875-2.063 4.688 0 3.438 2.938 6.375 6.375 6.438 3.5 0 6.375-2.813 6.438-6.313 0.063-3.563-2.813-6.5-6.375-6.5zM9.313 16.5c0.5 0.5 0.875 1.188 1 1.875h-2.188zM6.375 23.188c-2.188 0-4-1.813-4-4s1.813-4 4-4c0.313 0 0.625 0.063 0.875 0.125l-2.25 3.625c-0.5 0.813 0.063 1.875 1 1.875h4.063c-0.625 1.375-2 2.375-3.688 2.375zM14.563 18.375h-1.813c-0.188-1.563-1-3-2.125-4l1.25-2h6.375zM25.375 23.188c-2.063-0.125-3.688-1.75-3.75-3.813-0.063-1.063 0.313-2.063 0.938-2.813l2.25 3.625c0.188 0.375 0.688 0.5 1.063 0.25l0.688-0.438c0.375-0.25 0.5-0.688 0.25-1.063l-2.188-3.625c0.313-0.063 0.625-0.125 1-0.125 2.188 0 4 1.813 4 4 0 2.313-1.938 4.125-4.25 4z"></path>
</svg>