<svg version="1.1" xmlns="http://www.w3.org/2000/svg" width="32" height="32" viewBox="0 0 32 32">
<title>birthday-cake</title>
<path d="M30 24c-1.75 0-1.938-2-4.625-2-2.75 0-2.938 2-4.688 2s-2-2-4.688-2c-2.688 0-2.938 2-4.625 2-1.813 0-2-2-4.688-2-2.75 0-2.938 2-4.688 2v-5c0-1.625 1.375-3 3-3h1v-9h4v9h4v-9h4v9h4v-9h4v9h1c1.688 0 3 1.375 3 3zM30 32h-28v-6c2.688 0 2.938-2 4.688-2s1.938 2 4.688 2c2.625 0 2.938-2 4.625-2 1.75 0 1.938 2 4.688 2 2.688 0 2.938-2 4.688-2 1.688 0 1.938 2 4.625 2zM8 6c-1.125 0-2-0.875-2-2 0-1.938 2-1.438 2-4 0.75 0 2 1.875 2 3.5 0 1.688-0.875 2.5-2 2.5zM16 6c-1.125 0-2-0.875-2-2 0-1.938 2-1.438 2-4 0.75 0 2 1.875 2 3.5 0 1.688-0.875 2.5-2 2.5zM24 6c-1.125 0-2-0.875-2-2 0-1.938 2-1.438 2-4 0.75 0 2 1.875 2 3.5 0 1.688-0.875 2.5-2 2.5z"></path>
</svg>