<svg version="1.1" xmlns="http://www.w3.org/2000/svg" width="32" height="32" viewBox="0 0 32 32">
<title>bitten-cookie</title>
<path d="M31.938 16c-4.375-0.063-7.938-3.625-7.938-8-4.375 0-7.938-3.563-8-7.875-1.688-0.313-3.438 0-5 0.75l-4.313 2.25c-1.563 0.75-2.813 2-3.563 3.563l-2.25 4.313c-0.75 1.563-1.063 3.375-0.75 5.063l0.75 4.75c0.25 1.75 1.063 3.375 2.313 4.563l3.438 3.438c1.188 1.25 2.813 2.063 4.5 2.313l4.813 0.75c1.75 0.313 3.5 0 5.063-0.75l4.313-2.25c1.563-0.75 2.813-2 3.625-3.563l2.188-4.313c0.75-1.563 1.063-3.313 0.813-5zM11 23c-1.125 0-2-0.875-2-2s0.875-2 2-2c1.125 0 2 0.875 2 2s-0.875 2-2 2zM13 13c-1.125 0-2-0.875-2-2s0.875-2 2-2c1.125 0 2 0.875 2 2s-0.875 2-2 2zM23 21c-1.125 0-2-0.875-2-2s0.875-2 2-2c1.125 0 2 0.875 2 2s-0.875 2-2 2z"></path>
</svg>