<svg version="1.1" xmlns="http://www.w3.org/2000/svg" width="32" height="32" viewBox="0 0 32 32">
<title>blind</title>
<path d="M27.75 31.938c-0.25 0.125-0.563 0.063-0.688-0.188l-7.813-12.875c0.313-0.125 0.563-0.375 0.813-0.625l7.875 13c0.125 0.25 0.063 0.563-0.188 0.688zM12.938 19.625l-2.063 5.625 2.25 5.5c0.438 1 1.625 1.5 2.625 1.125 1-0.438 1.5-1.625 1.125-2.625zM10 5.5c1.5 0 2.75-1.25 2.75-2.75s-1.25-2.75-2.75-2.75c-1.5 0-2.75 1.25-2.75 2.75s1.25 2.75 2.75 2.75zM19.688 16.063l-7.5-9.5c-0.313-0.375-0.75-0.563-1.188-0.563h-2c-0.438 0-0.875 0.188-1.188 0.563l-3.813 4.938v5.938c0 0.875 0.688 1.563 1.5 1.563 0.875 0 1.5-0.688 1.5-1.5v-5l1-1.25v8.75l-3.375 9.313c-0.375 1.063 0.125 2.188 1.188 2.563s2.188-0.125 2.563-1.188l4.125-11.313v-6.75l-1.938-2.438c-0.125-0.125-0.063-0.313 0-0.375 0.125-0.063 0.25-0.063 0.375 0.063l6.375 8.063c0.563 0.688 1.563 0.688 2.125 0.25 0.625-0.5 0.75-1.438 0.25-2.125z"></path>
</svg>