<svg version="1.1" xmlns="http://www.w3.org/2000/svg" width="32" height="32" viewBox="0 0 32 32">
<title>book</title>
<path d="M8.875 4.625h16v1.375h-16zM25.75 7.125h-17c-0.438 0-0.875-0.188-1.188-0.563-0.313-0.313-0.5-0.75-0.438-1.25 0-0.938 0.688-1.688 1.625-1.75h17c0.5 0 0.938-0.375 0.938-0.875s-0.438-0.938-0.938-0.938h-17c-1.875 0.125-3.438 1.688-3.438 3.563 0 0.188 0 0.313 0 0.438 0 0.063 0 0.188 0 0.25v20.688c0 1.875 1.563 3.438 3.438 3.563h17c0.5 0 0.938-0.438 0.938-0.938v-21.063c0.875 0 0-0.063 0-0.125 0 0 0-0.063 0-0.063 0-0.5-0.438-0.938-0.938-0.938zM24.875 28.438h-16.125c-0.938-0.063-1.625-0.813-1.625-1.75v-18.188c0.5 0.25 1.063 0.375 1.625 0.375h16.125z"></path>
</svg>