<svg version="1.1" xmlns="http://www.w3.org/2000/svg" width="32" height="32" viewBox="0 0 32 32">
<title>bug</title>
<path d="M23.438 7.938c-1.875-2.375-4.5-3.938-7.438-3.938s-5.563 1.563-7.438 3.938c0.438 1 1 1.875 1.75 2.688 1.563 1.5 3.563 2.313 5.688 2.313s4.125-0.813 5.688-2.313c0.75-0.813 1.313-1.688 1.75-2.688zM7.938 8.938c-0.125 0.188-0.25 0.375-0.313 0.5-0.188-0.063-0.313-0.188-0.5-0.313-0.063-0.063-0.188-0.25-0.25-0.5 0.313-0.688 0.063-1.563-0.625-1.938-0.75-0.375-1.688-0.125-2.063 0.563-0.438 0.75-0.125 1.625 0.563 2.063 0.063 0.063 0.188 0.063 0.25 0.125 0.188 0.375 0.438 0.875 0.875 1.188 0.25 0.25 0.5 0.438 0.938 0.688-0.438 1.25-0.75 2.625-0.813 4.063-0.688 0.063-1.125 0.125-1.563 0.25-0.25 0.125-0.5 0.25-0.75 0.375-0.063 0-0.125 0-0.188 0-0.813 0-1.5 0.688-1.5 1.5s0.688 1.5 1.5 1.5c0.813 0 1.438-0.625 1.5-1.438 0.313-0.063 0.625-0.188 1.063-0.188 0.188 2.063 0.813 4 1.813 5.625-0.875 0.688-1.438 1.438-1.688 2.25 0 0-0.063 0-0.125 0.063s-0.125 0.125-0.188 0.188c-0.5 0.625-0.5 1.563 0.125 2.125s1.563 0.5 2.125-0.125c0.5-0.563 0.5-1.375 0.063-1.938 0.188-0.375 0.375-0.563 0.813-0.938 1.688 1.938 4 3.25 6.5 3.375v-14.063c-3.313-0.188-6.188-2.188-7.563-5zM28.5 16c-0.063 0-0.125 0-0.188 0-0.25-0.125-0.5-0.25-0.75-0.375-0.438-0.125-0.875-0.188-1.563-0.25-0.063-1.438-0.375-2.813-0.813-4.063 0.438-0.25 0.688-0.438 0.938-0.688 0.438-0.313 0.688-0.813 0.875-1.188 0.063-0.063 0.188-0.063 0.25-0.125 0.688-0.438 1-1.313 0.563-2.063-0.375-0.688-1.313-0.938-2.063-0.563-0.688 0.375-0.938 1.25-0.625 1.938-0.063 0.25-0.188 0.438-0.25 0.5-0.188 0.125-0.313 0.25-0.5 0.313-0.063-0.125-0.188-0.313-0.313-0.5-1.375 2.813-4.25 4.813-7.563 5v14.063c2.5-0.125 4.813-1.438 6.5-3.375 0.438 0.375 0.625 0.563 0.813 0.938-0.438 0.563-0.438 1.375 0.063 1.938 0.563 0.625 1.5 0.688 2.125 0.125s0.625-1.5 0.125-2.125c-0.063-0.063-0.125-0.125-0.188-0.188s-0.125-0.063-0.125-0.063c-0.25-0.813-0.813-1.563-1.688-2.25 1-1.625 1.625-3.563 1.813-5.625 0.438 0 0.75 0.125 1.063 0.188 0.063 0.813 0.688 1.438 1.5 1.438s1.5-0.688 1.5-1.5c0-0.813-0.688-1.5-1.5-1.5z"></path>
</svg>