<svg version="1.1" xmlns="http://www.w3.org/2000/svg" width="32" height="32" viewBox="0 0 32 32">
<title>bus</title>
<path d="M30.5 8h-0.5v-3c0-2.813-6.188-5-14-5s-14 2.188-14 5v3h-0.5c-0.813 0-1.5 0.688-1.5 1.5v5c0 0.813 0.688 1.5 1.5 1.5h0.5v10c0 1.125 0.875 2 2 2v2c0 1.125 0.875 2 2 2h2c1.125 0 2-0.875 2-2v-2h12v2c0 1.125 0.875 2 2 2h2c1.125 0 2-0.875 2-2v-2h0.375c1 0 1.625-0.813 1.625-1.625v-10.375h0.5c0.813 0 1.5-0.688 1.5-1.5v-5c0-0.813-0.688-1.5-1.5-1.5zM10 4.5c0-0.25 0.25-0.5 0.5-0.5h11c0.25 0 0.5 0.25 0.5 0.5v1c0 0.25-0.25 0.5-0.5 0.5h-11c-0.25 0-0.5-0.25-0.5-0.5zM7 25c-1.125 0-2-0.875-2-2s0.875-2 2-2c1.125 0 2 0.875 2 2s-0.875 2-2 2zM15 18h-7c-1.125 0-2-0.875-2-2v-6c0-1.125 0.875-2 2-2h7zM17 18v-10h7c1.125 0 2 0.875 2 2v6c0 1.125-0.875 2-2 2zM25 25c-1.125 0-2-0.875-2-2s0.875-2 2-2c1.125 0 2 0.875 2 2s-0.875 2-2 2z"></path>
</svg>