<svg version="1.1" xmlns="http://www.w3.org/2000/svg" width="32" height="32" viewBox="0 0 32 32">
<title>calculator</title>
<path d="M12 2h-10c-1.125 0-2 0.875-2 2v10c0 1.125 0.875 2 2 2h10c1.125 0 2-0.875 2-2v-10c0-1.125-0.875-2-2-2zM12 10h-10v-2h10zM28 2h-10c-1.125 0-2 0.875-2 2v26c0 1.125 0.875 2 2 2h10c1.125 0 2-0.875 2-2v-26c0-1.125-0.875-2-2-2zM28 20h-10v-2h10zM28 14h-10v-2h10zM12 18h-10c-1.125 0-2 0.875-2 2v10c0 1.125 0.875 2 2 2h10c1.125 0 2-0.875 2-2v-10c0-1.125-0.875-2-2-2zM12 26h-4v4h-2v-4h-4v-2h4v-4h2v4h4z"></path>
</svg>