<svg version="1.1" xmlns="http://www.w3.org/2000/svg" width="32" height="32" viewBox="0 0 32 32">
<title>calendar</title>
<path d="M31.875 5.625c-0.25-0.813-1-1.438-1.875-1.438h-2v3.125c0 1.625-1.375 3-3 3s-3-1.375-3-3v-3.125h-12v3.125c0 1.625-1.375 3-3 3-1.688 0-3-1.375-3-3v-3.125h-2c-0.875 0-1.625 0.625-1.875 1.438h-0.125v24.375c0 1.125 0.875 2 2 2h28c1.125 0 2-0.875 2-2v-24.375zM30 30h-28v-16h28zM7 8.313c0.563 0 1-0.438 1-1v-6.313c0-0.563-0.438-1-1-1s-1 0.438-1 1v6.313c0 0.563 0.438 1 1 1zM25 8.313c0.563 0 1-0.438 1-1v-6.313c0-0.563-0.438-1-1-1s-1 0.438-1 1v6.313c0 0.563 0.438 1 1 1z"></path>
</svg>