<svg version="1.1" xmlns="http://www.w3.org/2000/svg" width="32" height="32" viewBox="0 0 32 32">
<title>camera</title>
<path d="M30 10h-4c0 0-1.125 0-2-2-0.438-1-0.875-2-2-2h-8c-1.125 0-1.563 1-2 2-0.813 2-2 2-2 2h-2c0-1.125-0.875-2-2-2h-2c-1.125 0-2 0.875-2 2-1.125 0-2 0.875-2 2v16c0 1.125 0.875 2 2 2h28c1.125 0 2-0.875 2-2v-16c0-1.125-0.875-2-2-2zM30 28h-28v-8h9.125c0.438 3.375 3.375 6 6.875 6 3.625 0 6.563-2.75 6.938-6.25h5.063zM13 19c0-2.75 2.25-5 5-5s5 2.25 5 5c0 2.75-2.25 5-5 5s-5-2.25-5-5zM24.875 18c-0.438-3.375-3.375-6-6.875-6s-6.438 2.625-6.875 6h-9.125v-6h8c1.188 0 2.875-0.875 3.875-3.25 0.125-0.375 0.25-0.625 0.313-0.75h7.625c0.125 0.25 0.313 0.625 0.375 0.75 1.25 3.125 3.375 3.25 3.813 3.25h4v6zM4 15c0 0.563 0.438 1 1 1s1-0.438 1-1c0-0.563-0.438-1-1-1s-1 0.438-1 1z"></path>
</svg>