<svg version="1.1" xmlns="http://www.w3.org/2000/svg" width="32" height="32" viewBox="0 0 32 32">
<title>car</title>
<path d="M27.188 12.813h-0.813l-5.438-6.813c-0.563-0.75-1.5-1.188-2.5-1.188h-10.688c-1.313 0-2.438 0.813-2.938 2l-2.438 6.125c-1.375 0.313-2.375 1.563-2.375 3.063v5.625c0 0.438 0.375 0.75 0.813 0.75h2.375c0 2.688 2.188 4.813 4.813 4.813s4.813-2.125 4.813-4.813h6.375c0 2.688 2.188 4.813 4.813 4.813s4.813-2.125 4.813-4.813h2.375c0.438 0 0.813-0.313 0.813-0.75v-4c0-2.688-2.125-4.813-4.813-4.813zM8 24.813c-1.313 0-2.375-1.063-2.375-2.438 0-1.313 1.063-2.375 2.375-2.375s2.375 1.063 2.375 2.375c0 1.375-1.063 2.438-2.375 2.438zM11.625 12.813h-5.75l1.875-4.813h3.875zM14 12.813v-4.813h4.438l3.875 4.813zM24 24.813c-1.313 0-2.375-1.063-2.375-2.438 0-1.313 1.063-2.375 2.375-2.375s2.375 1.063 2.375 2.375c0 1.375-1.063 2.438-2.375 2.438z"></path>
</svg>