<svg version="1.1" xmlns="http://www.w3.org/2000/svg" width="32" height="32" viewBox="0 0 32 32">
<title>cart</title>
<path d="M6 30c0 1.125 0.875 2 2 2s2-0.875 2-2c0-1.125-0.875-2-2-2s-2 0.875-2 2zM24 30c0 1.125 0.875 2 2 2s2-0.875 2-2c0-1.125-0.875-2-2-2s-2 0.875-2 2zM-0.063 5c0 0.563 0.438 1 1 1h2.063l1.25 5.313 1.75 8.688c0 0.063 0.063 0.125 0.063 0.188l-1.063 4.625c-0.063 0.25 0 0.563 0.25 0.813 0.188 0.25 0.438 0.375 0.75 0.375h22.688c0.563 0 1-0.438 1-1s-0.438-1-1-1h-21.438l0.438-2.063c0.125 0 0.188 0.063 0.313 0.063h18.25c1.063 0 1.75-0.188 2.313-1.5l3.188-9.938c0.625-1.813-0.625-2.563-1.75-2.563h-24c-0.125 0-0.313 0.063-0.438 0.063l-0.75-3.313c-0.125-0.438-0.563-0.75-1-0.75h-2.875c-0.563 0-1 0.438-1 1zM6.063 10h23.813l-3.188 9.813c-0.063 0.063-0.125 0.125-0.125 0.188-0.063 0-0.188 0-0.313 0h-18.25v-0.188l-0.063-0.188z"></path>
</svg>