<svg version="1.1" xmlns="http://www.w3.org/2000/svg" width="32" height="32" viewBox="0 0 32 32">
<title>cat</title>
<path d="M18.188 12c-1.313 0-6.688 0.125-10.188 5.375v-5.375c0-3.313-2.688-6-6-6-1.125 0-2 0.875-2 2s0.875 2 2 2c1.125 0 2 0.875 2 2v16c0 2.188 1.813 4 4 4h11c0.563 0 1-0.438 1-1v-1c0-1.125-0.875-2-2-2h-2l8-6v9c0 0.563 0.438 1 1 1h2c0.563 0 1-0.438 1-1v-12.875c-0.625 0.188-1.313 0.25-2 0.25-3.875 0-7.125-2.75-7.813-6.375zM28 6h-4l-4-4v8.375c0 3.313 2.688 6 6 6s6-2.688 6-6v-8.375zM23.5 11c-0.563 0-1-0.438-1-1s0.438-1 1-1c0.563 0 1 0.438 1 1s-0.438 1-1 1zM28.5 11c-0.563 0-1-0.438-1-1s0.438-1 1-1c0.563 0 1 0.438 1 1s-0.438 1-1 1z"></path>
</svg>