<svg version="1.1" xmlns="http://www.w3.org/2000/svg" width="32" height="32" viewBox="0 0 32 32">
<title>chair</title>
<path d="M9 8c0-1.813 1-3.438 2.5-4.313v12.313h3v-13h3v13h3v-12.313c1.5 0.875 2.5 2.5 2.5 4.313v8h3v-8c0-4.438-3.563-8-8-8h-4c-4.438 0-8 3.563-8 8v8h3zM29.875 21.375l-0.625-2c-0.313-0.813-1.063-1.375-1.938-1.375h-22.625c-0.875 0-1.625 0.563-1.938 1.375l-0.625 2c-0.438 1.313 0.5 2.625 1.875 2.625v7c0 0.563 0.438 1 1 1h2c0.563 0 1-0.438 1-1v-7h16v7c0 0.563 0.438 1 1 1h2c0.563 0 1-0.438 1-1v-7c1.375 0 2.313-1.313 1.875-2.625z"></path>
</svg>