<svg version="1.1" xmlns="http://www.w3.org/2000/svg" width="32" height="32" viewBox="0 0 32 32">
<title>chart</title>
<path d="M32 26v2h-32v-24h2v22zM30 6.5v6.813c0 0.188-0.125 0.375-0.313 0.438-0.188 0.125-0.375 0.063-0.563-0.125l-1.875-1.875-9.875 9.875c-0.125 0.125-0.25 0.188-0.375 0.188s-0.25-0.063-0.375-0.188l-3.625-3.625-6.5 6.5-3-3 9.125-9.125c0.125-0.125 0.25-0.188 0.375-0.188s0.25 0.063 0.375 0.188l3.625 3.625 7.25-7.25-1.875-1.875c-0.188-0.188-0.25-0.375-0.125-0.563 0.063-0.188 0.25-0.313 0.438-0.313h6.813c0.125 0 0.25 0.063 0.375 0.125 0.063 0.125 0.125 0.25 0.125 0.375z"></path>
</svg>