<svg version="1.1" xmlns="http://www.w3.org/2000/svg" width="32" height="32" viewBox="0 0 32 32">
<title>chat</title>
<path d="M12.563 6.875c-1.813 0-3.5 0.313-5.125 0.938-1.563 0.563-2.813 1.438-3.75 2.5s-1.375 2.188-1.375 3.375c0 1 0.313 1.938 0.938 2.875 0.625 0.875 1.5 1.688 2.625 2.313l1.75 1-0.625 1.5c0.375-0.25 0.75-0.438 1.125-0.688l0.75-0.563 0.938 0.188c0.938 0.188 1.875 0.25 2.75 0.25 1.813 0 3.563-0.313 5.125-0.938s2.813-1.438 3.75-2.5c0.938-1.063 1.438-2.188 1.438-3.438 0-1.188-0.5-2.313-1.438-3.375s-2.188-1.938-3.75-2.5c-1.563-0.625-3.313-0.938-5.125-0.938zM12.563 4.563c2.313 0 4.375 0.438 6.313 1.25s3.5 1.938 4.563 3.313c1.125 1.375 1.688 2.938 1.688 4.563 0 1.688-0.563 3.188-1.688 4.625-1.063 1.375-2.625 2.5-4.563 3.313s-4 1.25-6.313 1.25c-1 0-2.063-0.125-3.125-0.313-1.5 1.063-3.125 1.813-5 2.313-0.375 0.063-0.938 0.188-1.5 0.25h-0.063c-0.125 0-0.25 0-0.375-0.125s-0.188-0.25-0.188-0.375c0-0.063 0-0.063 0-0.125s0-0.063 0-0.125c0 0 0-0.063 0-0.063l0.063-0.125c0 0 0 0 0.063-0.063s0.063-0.125 0.063-0.125c0 0 0.063 0 0.063-0.063 0.063-0.063 0.125-0.125 0.125-0.125 0.063-0.063 0.188-0.188 0.375-0.438 0.25-0.188 0.375-0.375 0.5-0.5 0.063-0.125 0.188-0.313 0.375-0.5 0.188-0.25 0.313-0.5 0.438-0.688 0.125-0.25 0.25-0.5 0.375-0.813-1.5-0.875-2.625-1.938-3.5-3.188-0.813-1.25-1.25-2.563-1.25-4 0-1.625 0.563-3.188 1.688-4.563s2.625-2.5 4.563-3.313c1.938-0.813 4.063-1.25 6.313-1.25zM27.25 25.438c0.125 0.313 0.25 0.563 0.375 0.813s0.25 0.438 0.438 0.688c0.188 0.188 0.313 0.375 0.375 0.5 0.125 0.125 0.25 0.313 0.5 0.5 0.188 0.25 0.313 0.375 0.375 0.5 0.063 0 0.063 0 0.125 0.063 0 0.063 0.063 0.063 0.063 0.063 0 0.063 0.063 0.063 0.063 0.125 0 0 0.063 0.063 0.063 0.063l0.063 0.125c0 0 0 0 0 0.063 0.063 0.125 0.063 0.125 0 0.125 0 0 0 0.063 0 0.125 0 0.188-0.125 0.313-0.25 0.375-0.063 0.125-0.25 0.188-0.375 0.125-0.563-0.063-1.125-0.125-1.5-0.25-1.875-0.5-3.5-1.25-5-2.313-1.063 0.188-2.125 0.313-3.125 0.313-3.25 0-6.063-0.813-8.438-2.375 0.688 0.063 1.188 0.063 1.563 0.063 1.938 0 3.75-0.25 5.5-0.813 1.813-0.5 3.375-1.25 4.75-2.25 1.5-1.125 2.625-2.375 3.438-3.813 0.75-1.438 1.188-2.938 1.188-4.563 0-0.875-0.125-1.813-0.438-2.688 1.563 0.875 2.75 1.875 3.688 3.188 0.875 1.25 1.313 2.625 1.313 4.125 0 1.375-0.438 2.75-1.25 4-0.875 1.25-2 2.25-3.5 3.125z"></path>
</svg>