<svg version="1.1" xmlns="http://www.w3.org/2000/svg" width="32" height="32" viewBox="0 0 32 32">
<title>chevron-ticked</title>
<path d="M26 26h-20v-20h14.75l1.25-2h-16c-1.125 0-2 0.875-2 2v20c0 1.125 0.875 2 2 2h20c1.125 0 2-0.875 2-2v-13.188l-2 3.188zM29.375 2.25c-0.25-0.188-0.5-0.25-0.75-0.25-0.5 0-0.938 0.25-1.188 0.625l-10.875 15.688-4.188-4.813c-0.563-0.5-1.5-0.5-2 0.125-0.5 0.563-0.5 1.438 0.063 1.938l5.063 5.75c0.063 0.063 0.063 0.125 0.125 0.188l0.125 0.125c0 0 0.063 0 0.063 0.063 0.063 0 0.063 0.063 0.125 0.063 0.063 0.063 0.188 0.125 0.25 0.125 0 0 0.063 0.063 0.063 0.063 0.125 0 0.313 0.063 0.438 0.063 0.375 0 0.75-0.125 1.063-0.438 0.063-0.063 0.063-0.125 0.125-0.188l11.875-17.188c0.438-0.688 0.25-1.563-0.375-1.938z"></path>
</svg>