<svg version="1.1" xmlns="http://www.w3.org/2000/svg" width="32" height="32" viewBox="0 0 32 32">
<title>chevron-left</title>
<path d="M25.5 5.375l-9.5 9.5 9.5 9.438c0.188 0.25 0.313 0.5 0.313 0.813s-0.125 0.625-0.313 0.813l-3 3c-0.188 0.188-0.5 0.313-0.813 0.313s-0.563-0.125-0.75-0.313l-13.25-13.25c-0.25-0.25-0.375-0.5-0.375-0.813s0.125-0.625 0.375-0.813l13.25-13.25c0.188-0.25 0.438-0.375 0.75-0.375s0.625 0.125 0.813 0.375l3 2.938c0.188 0.25 0.313 0.5 0.313 0.813s-0.125 0.563-0.313 0.813z"></path>
</svg>