<svg version="1.1" xmlns="http://www.w3.org/2000/svg" width="32" height="32" viewBox="0 0 32 32">
<title>clock</title>
<path d="M17.063 2.125c-3.813 0-7.625 1.438-10.563 4.375-5.813 5.813-5.813 15.313 0 21.125 2.938 2.938 6.75 4.375 10.563 4.375s7.625-1.438 10.563-4.375c5.813-5.813 5.813-15.313 0-21.125-2.938-2.938-6.75-4.375-10.563-4.375zM26.188 26.188c-2.438 2.438-5.688 3.813-9.125 3.813s-6.688-1.375-9.125-3.813c-2.438-2.438-3.813-5.688-3.813-9.125s1.375-6.688 3.813-9.125c2.438-2.438 5.688-3.813 9.125-3.813s6.688 1.375 9.125 3.813c2.438 2.438 3.813 5.688 3.813 9.125s-1.375 6.688-3.813 9.125zM23 16h-5v-7c0-0.563-0.438-1-1-1s-1 0.438-1 1v8c0 0.563 0.438 1 1 1h6c0.563 0 1-0.438 1-1s-0.438-1-1-1z"></path>
</svg>