<svg version="1.1" xmlns="http://www.w3.org/2000/svg" width="32" height="32" viewBox="0 0 32 32">
<title>cloud-upload</title>
<path d="M26.063 16c-0.125 0-0.188 0-0.25 0 0.125-0.688 0.188-1.313 0.188-2 0-5.5-4.5-10-10-10s-10 4.438-10 9.875c0 0 0 0.25 0 0.25-3.438 0.438-6 3.438-6 6.875 0 3.5 2.5 6.5 6 7h5c0.563 0 1-0.438 1-1s-0.438-1-1-1h-4.875c-2.313-0.313-4.125-2.563-4.125-5s1.875-4.563 4.313-4.938l0.813-0.125c0.5-0.063 0.875-0.5 0.875-1v-1.063c0-4.313 3.563-7.875 8-7.875s8 3.563 8 8c0 0.563-0.063 1.063-0.188 1.625l-0.25 1.25c-0.063 0.313 0.063 0.688 0.25 0.875 0.25 0.25 0.563 0.375 0.875 0.313 0 0 0.625-0.063 1.375-0.063 2.188 0 3.938 1.813 3.938 4s-1.813 4-4 4h-7c-2.813 0-3-1.688-3-2v-6.625l2.375 2.375c0.375 0.375 1 0.375 1.375 0 0.438-0.438 0.438-1.063 0-1.438l-4-4c-0.188-0.188-0.438-0.313-0.688-0.313-0.063 0-0.063 0-0.063 0-0.313 0-0.563 0.125-0.75 0.313l-4 4c-0.375 0.438-0.375 1.063 0 1.438s1 0.375 1.438 0l2.313-2.313v6.563c0 1.375 1.063 4 5 4h7c3.313 0 6-2.688 6-6s-2.688-6-5.938-6z"></path>
</svg>