<svg version="1.1" xmlns="http://www.w3.org/2000/svg" width="32" height="32" viewBox="0 0 32 32">
<title>cloud-download</title>
<path d="M26.188 16c1.875-4.313 0.688-7-0.25-8.313-1.438-2-4-3.125-6.313-2.688-3.938 0.75-5.625 3.438-5.625 9v4.625l-2.313-2.313c-0.375-0.375-1-0.375-1.438 0-0.375 0.375-0.375 1 0 1.438l4.063 4c0.188 0.188 0.438 0.313 0.688 0.313 0.313 0 0.563-0.125 0.75-0.313l4.063-4.063c0.375-0.375 0.375-1 0-1.375-0.375-0.438-1.063-0.438-1.438 0l-2.375 2.375v-4.688c0-5.75 2-6.625 4-7 1.313-0.25 3.188 0.313 4.313 1.813 1.375 1.875 1.063 4.688-0.75 7.875-0.188 0.313-0.125 0.75 0.063 1.063 0.25 0.313 0.625 0.438 1 0.375 0.25 0 1-0.125 1.438-0.125 2.188 0 3.938 1.813 3.938 4s-1.813 4-4 4h-19.875c-2.313-0.313-4.125-2.563-4.125-5s1.875-4.563 4.313-4.938l0.813-0.125c0.5-0.063 0.875-0.5 0.875-1v-1.063c0-3.563 2.188-6.5 5.25-7 0.563-0.063 0.938-0.563 0.813-1.125-0.063-0.563-0.563-0.875-1.125-0.813-4 0.625-6.938 4.375-6.938 8.938 0 0 0 0.25 0 0.25-3.438 0.438-6 3.438-6 6.875 0 3.5 2.5 6.5 6 7h20c3.313 0 6-2.688 6-6 0-3.25-2.625-5.938-5.813-6z"></path>
</svg>