<svg version="1.1" xmlns="http://www.w3.org/2000/svg" width="32" height="32" viewBox="0 0 32 32">
<title>codepen</title>
<path d="M31.375 10l-14.625-9.75c-0.5-0.313-1-0.313-1.5 0l-14.625 9.75c-0.375 0.25-0.625 0.688-0.625 1.125v9.75c0 0.438 0.25 0.875 0.625 1.125l14.625 9.75c0.5 0.313 1 0.313 1.5 0l14.625-9.75c0.375-0.25 0.625-0.688 0.625-1.125v-9.75c0-0.438-0.25-0.875-0.625-1.125zM17.375 3.938l10.75 7.188-4.813 3.188-5.938-3.938zM14.625 3.938v6.438l-5.938 3.938-4.813-3.188zM2.75 13.688l3.438 2.313-3.438 2.313zM14.625 28.063l-10.75-7.188 4.813-3.188 5.938 3.938zM16 19.25l-4.875-3.25 4.875-3.25 4.875 3.25zM17.375 28.063v-6.438l5.938-3.938 4.813 3.188zM29.25 18.313l-3.438-2.313 3.438-2.313z"></path>
</svg>