<svg version="1.1" xmlns="http://www.w3.org/2000/svg" width="32" height="32" viewBox="0 0 32 32">
<title>coffee-cup</title>
<path d="M27.75 11.75c0-0.875-0.313-1.688-0.938-2.313-0.625-0.563-1.375-0.875-2.25-0.875h-1.125v6.375h1.125c0.875 0 1.625-0.313 2.25-0.938s0.938-1.375 0.938-2.25zM0 24.563h29.875c0 1.125-0.438 2.125-1.25 3-0.813 0.813-1.875 1.25-3 1.25h-21.375c-1.188 0-2.188-0.438-3-1.25-0.813-0.875-1.25-1.875-1.25-3zM30.938 11.75c0 1.75-0.625 3.25-1.875 4.5s-2.75 1.875-4.5 1.875h-1.125v0.563c0 1-0.313 1.875-1.063 2.625s-1.625 1.063-2.625 1.063h-11.75c-1 0-1.875-0.313-2.625-1.063s-1.125-1.625-1.125-2.625v-12.313c0-0.25 0.125-0.5 0.313-0.75 0.25-0.188 0.5-0.313 0.75-0.313h19.25c1.75 0 3.25 0.625 4.5 1.875s1.875 2.75 1.875 4.563z"></path>
</svg>