<svg version="1.1" xmlns="http://www.w3.org/2000/svg" width="32" height="32" viewBox="0 0 32 32">
<title>cogs</title>
<path d="M1 17.188l3.438-0.125c0.438 0.563 0.875 1 1.438 1.438l-0.25 3.5c0.375 0.188 0.75 0.438 1.188 0.563 0.438 0.188 0.813 0.375 1.25 0.5l2.375-2.563c0.688 0.063 1.375 0.063 2 0l2.313 2.625c0.875-0.25 1.688-0.563 2.438-1l-0.125-3.438c0.563-0.438 1-0.875 1.438-1.438l3.5 0.25c0.188-0.375 0.438-0.75 0.563-1.188 0.188-0.438 0.375-0.813 0.5-1.25l-2.563-2.375c0.063-0.688 0.063-1.313 0-2l2.625-2.313c-0.25-0.813-0.563-1.688-1-2.438l-3.438 0.125c-0.438-0.563-0.875-1-1.438-1.438l0.25-3.5c-0.375-0.188-0.75-0.375-1.188-0.563s-0.813-0.313-1.25-0.438l-2.375 2.5c-0.688-0.063-1.313-0.063-2 0l-2.313-2.625c-0.813 0.25-1.688 0.563-2.438 1l0.125 3.438c-0.563 0.438-1 0.875-1.438 1.438l-3.5-0.25c-0.188 0.375-0.375 0.75-0.563 1.188s-0.313 0.813-0.438 1.25l2.5 2.375c-0.063 0.688-0.063 1.375 0 2l-2.625 2.313c0.25 0.813 0.563 1.688 1 2.438zM13.938 6.063c3.063 1.313 4.438 4.813 3.125 7.875s-4.813 4.438-7.875 3.125c-3.063-1.313-4.438-4.813-3.125-7.875s4.813-4.438 7.875-3.125zM8.563 11.563c0 1.688 1.375 3 3 3 1.688 0 3-1.313 3-3 0-1.625-1.313-3-3-3-1.625 0-3 1.375-3 3zM30.063 23.563l-0.875-0.313 0.375-0.813 0.875-1.813c-0.313-0.375-0.688-0.75-1.063-1.063l-1.813 0.813-0.813 0.438-0.313-0.875-0.688-1.875c-0.25-0.063-0.5-0.063-0.75-0.063s-0.5 0-0.75 0.063l-0.688 1.875-0.313 0.875-0.813-0.375-1.813-0.875c-0.375 0.313-0.75 0.688-1.063 1.063l0.813 1.813 0.438 0.813-0.875 0.313-1.875 0.688c-0.063 0.25-0.063 0.5-0.063 0.75s0 0.5 0.063 0.75l1.875 0.688 0.875 0.313-0.375 0.813-0.875 1.813c0.313 0.375 0.688 0.75 1.063 1.063l1.813-0.875 0.813-0.375 0.313 0.875 0.688 1.875c0.25 0.063 0.5 0.063 0.75 0.063s0.5 0 0.75-0.063l0.688-1.875 0.313-0.875 0.813 0.375 1.813 0.875c0.375-0.313 0.75-0.688 1.063-1.063l-0.813-1.813-0.438-0.813 0.875-0.313 1.875-0.688c0.063-0.25 0.063-0.5 0.063-0.75s0-0.5-0.063-0.75zM25 26.5c-0.813 0-1.5-0.688-1.5-1.5s0.688-1.5 1.5-1.5c0.813 0 1.5 0.688 1.5 1.5s-0.688 1.5-1.5 1.5z"></path>
</svg>