<svg version="1.1" xmlns="http://www.w3.org/2000/svg" width="32" height="32" viewBox="0 0 32 32">
<title>comment</title>
<path d="M16 6.875c-2.438 0-4.688 0.375-6.813 1.25-2.125 0.813-3.813 1.938-5.063 3.313-1.188 1.438-1.813 2.938-1.813 4.563 0 1.313 0.375 2.625 1.25 3.813s2.063 2.25 3.625 3.125l1.5 0.875-0.438 1.75c-0.313 1.063-0.75 2.125-1.25 3.063 1.813-0.75 3.438-1.75 4.875-3.063l0.813-0.688 1 0.125c0.813 0.125 1.563 0.125 2.313 0.125 2.438 0 4.688-0.375 6.813-1.25 2.125-0.813 3.813-1.938 5.063-3.313 1.188-1.438 1.813-2.938 1.813-4.563s-0.625-3.125-1.813-4.563c-1.25-1.375-2.938-2.5-5.063-3.313-2.125-0.875-4.375-1.25-6.813-1.25zM32 16c0 2.063-0.688 4-2.125 5.75s-3.375 3.125-5.813 4.125c-2.5 1.063-5.188 1.563-8.063 1.563-0.813 0-1.688-0.063-2.563-0.125-2.375 2.063-5.125 3.5-8.25 4.313-0.563 0.125-1.25 0.25-2 0.375h-0.125c-0.188 0-0.313-0.063-0.5-0.188-0.125-0.125-0.188-0.313-0.25-0.5-0.063-0.063-0.063-0.125 0-0.25 0-0.063 0-0.125 0-0.125 0-0.063 0.063-0.125 0.125-0.188l0.063-0.188c0 0 0.063-0.063 0.125-0.125 0.125-0.125 0.125-0.188 0.188-0.188 0.063-0.063 0.25-0.313 0.5-0.625 0.313-0.313 0.5-0.5 0.625-0.625 0.125-0.188 0.313-0.375 0.563-0.75 0.25-0.313 0.438-0.625 0.563-0.875 0.188-0.313 0.313-0.625 0.5-1.063s0.313-0.875 0.5-1.375c-1.875-1.063-3.375-2.375-4.438-3.938s-1.625-3.188-1.625-5c0-2.063 0.688-4 2.125-5.75s3.375-3.125 5.813-4.125c2.5-1.063 5.188-1.563 8.063-1.563s5.563 0.5 8.063 1.563c2.438 1 4.375 2.375 5.813 4.125s2.125 3.688 2.125 5.75z"></path>
</svg>