<svg version="1.1" xmlns="http://www.w3.org/2000/svg" width="32" height="32" viewBox="0 0 32 32">
<title>credit-card</title>
<path d="M30 4h-28c-1.125 0-2 0.875-2 2v20c0 1.125 0.875 2 2 2h28c1.125 0 2-0.875 2-2v-20c0-1.125-0.875-2-2-2zM30 26h-28v-12h28zM2 10.063v-4.063h28v4.063zM5 24h10c0.563 0 1-0.438 1-1s-0.438-1-1-1h-10c-0.563 0-1 0.438-1 1s0.438 1 1 1zM18 23c0 0.563 0.438 1 1 1s1-0.438 1-1c0-0.563-0.438-1-1-1s-1 0.438-1 1zM22 23c0 0.563 0.438 1 1 1s1-0.438 1-1c0-0.563-0.438-1-1-1s-1 0.438-1 1zM26 23c0 0.563 0.438 1 1 1s1-0.438 1-1c0-0.563-0.438-1-1-1s-1 0.438-1 1z"></path>
</svg>