<svg version="1.1" xmlns="http://www.w3.org/2000/svg" width="32" height="32" viewBox="0 0 32 32">
<title>cube-outline</title>
<path d="M27.938 8.063l-11.563-5.313c-0.125-0.063-0.25-0.063-0.375-0.063s-0.25 0-0.375 0.063l-11.563 5.313c-0.313 0.188-0.5 0.438-0.5 0.813v15.125c0 0.375 0.188 0.688 0.5 0.813l11.563 5.313c0.125 0.063 0.25 0.125 0.375 0.125s0.25-0.063 0.375-0.125l11.563-5.313c0.313-0.125 0.5-0.438 0.5-0.813v-15.125c0-0.375-0.188-0.625-0.5-0.813zM16 4.563l9.438 4.313-9.438 4.375-9.438-4.375zM5.313 10.25l9.813 4.563v13.125l-9.813-4.5zM16.875 27.938v-13.125l9.813-4.563v13.188z"></path>
</svg>