<svg version="1.1" xmlns="http://www.w3.org/2000/svg" width="32" height="32" viewBox="0 0 32 32">
<title>cubes</title>
<path d="M30.563 15.625l-6.063-2.25v-6.75c0-0.938-0.563-1.813-1.438-2.125l-6.25-2.375c-0.5-0.188-1.063-0.188-1.625 0l-6.25 2.375c-0.875 0.313-1.438 1.188-1.438 2.125v6.75l-6.063 2.25c-0.875 0.375-1.438 1.188-1.438 2.125v6.875c0 0.875 0.5 1.625 1.25 2l6.25 3.125c0.625 0.313 1.375 0.313 2 0l6.5-3.25 6.5 3.25c0.625 0.313 1.375 0.313 2 0l6.25-3.125c0.75-0.375 1.25-1.125 1.25-2v-6.875c0-0.938-0.563-1.75-1.438-2.125zM22.375 13.438l-5.313 2v-4.25l5.313-2.313zM9.625 6.5l6.375-2.375 6.375 2.375v0.063l-6.375 2.563-6.375-2.563zM14.875 24.688l-5.313 2.688v-4.938l5.313-2.438zM14.875 17.688l-6.375 2.625-6.375-2.625 6.375-2.438zM29.875 24.688l-5.313 2.688v-4.938l5.313-2.438zM29.875 17.688l-6.375 2.625-6.375-2.625 6.375-2.438z"></path>
</svg>