<svg version="1.1" xmlns="http://www.w3.org/2000/svg" width="32" height="32" viewBox="0 0 32 32">
<title>cube-solid</title>
<path d="M28.375 6.875l-10.375-6.313c-1.25-0.75-2.75-0.75-4 0l-10.375 6.313c-0.375 0.188-0.313 0.688 0 0.875l12.375 7.438 12.375-7.438c0.313-0.188 0.375-0.688 0-0.875zM29.25 9.688l-12.25 7.25v14c0 0.813 0.813 1.313 1.5 0.938l9.5-5.813c1.25-0.75 2-2.125 2-3.563v-12.375c0-0.438-0.438-0.688-0.75-0.438zM2 10.125v12.375c0 1.438 0.75 2.813 2 3.563l9.5 5.813c0.688 0.375 1.5-0.125 1.5-0.938v-14l-12.25-7.25c-0.313-0.25-0.75 0-0.75 0.438z"></path>
</svg>