<svg version="1.1" xmlns="http://www.w3.org/2000/svg" width="32" height="32" viewBox="0 0 32 32">
<title>deaf</title>
<path d="M13.5 16.25c0 0.938-0.813 1.75-1.75 1.75s-1.75-0.813-1.75-1.75c0-2.75 2.25-5 5-5s5 2.25 5 5c0 0.938-0.813 1.75-1.75 1.75s-1.75-0.813-1.75-1.75c0-0.813-0.688-1.5-1.5-1.5s-1.5 0.688-1.5 1.5zM15 5.25c-6.063 0-11 4.938-11 11 0 0.938 0.813 1.75 1.75 1.75s1.75-0.813 1.75-1.75c0-4.125 3.375-7.5 7.5-7.5s7.5 3.375 7.5 7.5c0 4.688-4.438 4.375-4.5 9 0 1.813-1.438 3.25-3.25 3.25-0.938 0-1.75 0.813-1.75 1.75s0.813 1.75 1.75 1.75c3.688 0 6.75-3 6.75-6.75 0.063-2.125 4.5-3 4.5-9 0-6.063-4.938-11-11-11zM31.75 2l-1.75-1.75c-0.25-0.313-0.75-0.313-1.063 0l-5.438 5.438c-0.25 0.25-0.25 0.75 0 1.063l1.75 1.75c0.313 0.25 0.813 0.25 1.063 0l5.438-5.438c0.313-0.313 0.313-0.813 0-1.063zM10.563 19.688c-0.313-0.313-0.75-0.313-1.063 0l-9.25 9.25c-0.313 0.313-0.313 0.813 0 1.063l1.75 1.75c0.25 0.313 0.75 0.313 1.063 0l9.25-9.25c0.313-0.313 0.313-0.75 0-1.063z"></path>
</svg>