
<svg version="1.1" xmlns="http://www.w3.org/2000/svg" width="32" height="32" viewBox="0 0 32 32">
<title>delete</title>
<path d="M26 2h-4c0-1.125-0.875-2-2-2h-6c-1.125 0-2 0.875-2 2h-4c-1.125 0-2 0.875-2 2h22c0-1.125-0.875-2-2-2zM6 30c0 1.125 0.875 2 2 2h18c1.125 0 2-0.875 2-2v-24h-22zM8 8h18v22h-18zM11 10c-0.563 0-1 0.438-1 1v16c0 0.563 0.438 1 1 1s1-0.438 1-1v-16c0-0.563-0.438-1-1-1zM17 10c-0.563 0-1 0.438-1 1v16c0 0.563 0.438 1 1 1s1-0.438 1-1v-16c0-0.563-0.438-1-1-1zM23 10c-0.563 0-1 0.438-1 1v16c0 0.563 0.438 1 1 1s1-0.438 1-1v-16c0-0.563-0.438-1-1-1z"></path>
</svg>
