<svg version="1.1" xmlns="http://www.w3.org/2000/svg" width="32" height="32" viewBox="0 0 32 32">
<title>devices</title>
<path d="M28.438 11.563h-7.125c-0.938 0-1.75 0.813-1.75 1.75v13.375c0 0.938 0.813 1.75 1.75 1.75h7.125c1 0 1.813-0.813 1.813-1.75v-13.375c0-0.938-0.813-1.75-1.813-1.75zM28.438 13.313v9.813h-7.125v-9.813zM21.313 26.688v-2.125h7.125v2.125zM17.75 19.563h-14.188v-14.25h21.313v4.438h1.813v-4.438c0-0.938-0.813-1.75-1.813-1.75h-21.313c-1 0-1.813 0.813-1.813 1.75v14.25c0 1 0.813 1.75 1.813 1.75h14.188zM17.75 23.125h-9.75c-0.5 0-0.875 0.375-0.875 0.875s0.375 0.875 0.875 0.875h9.75z"></path>
</svg>