<svg version="1.1" xmlns="http://www.w3.org/2000/svg" width="32" height="32" viewBox="0 0 32 32">
<title>disabled</title>
<path d="M19.438 21.188l1.813 3.625c-0.688 2.188-1.938 3.875-3.75 5.188s-3.875 2-6.063 2c-1.875 0-3.563-0.438-5.188-1.375-1.563-0.938-2.813-2.188-3.75-3.75-0.875-1.563-1.375-3.313-1.375-5.188 0-2.125 0.625-4.063 1.875-5.875 1.25-1.75 2.875-3 4.938-3.75l0.25 2.313c-1.438 0.688-2.563 1.625-3.438 3-0.875 1.313-1.313 2.75-1.313 4.313 0 2.25 0.75 4.125 2.313 5.688s3.5 2.313 5.688 2.313c1.5 0 2.875-0.375 4.125-1.125 1.313-0.813 2.25-1.813 2.938-3.125 0.75-1.313 1-2.75 0.938-4.25zM29.188 23l1.063 2-4.563 2.313c-0.188 0.063-0.375 0.125-0.563 0.125-0.438 0-0.813-0.188-1-0.625l-4.25-8.5h-8.438c-0.313 0-0.563-0.125-0.75-0.313-0.25-0.188-0.375-0.438-0.375-0.75l-1.75-13.875c0-0.25 0-0.5 0.125-0.75 0.188-0.625 0.5-1.125 1-1.5s1.125-0.563 1.75-0.563c0.75 0 1.438 0.313 2 0.875s0.875 1.188 0.875 2c0 0.813-0.313 1.5-0.938 2.063-0.625 0.625-1.375 0.875-2.188 0.75l0.688 5.188h7.563v2.25h-7.25l0.25 2.313h8.125c0.5 0 0.813 0.188 1 0.625l4.125 8.125z"></path>
</svg>