<svg version="1.1" xmlns="http://www.w3.org/2000/svg" width="32" height="32" viewBox="0 0 32 32">
<title>dog</title>
<path d="M31 6h-4l-0.438-0.875c-0.375-0.688-1.063-1.125-1.813-1.125h-3.313l-1.75-1.688c-0.625-0.625-1.688-0.188-1.688 0.688v9.375l8 2.875v-2.25h2c2.188 0 4-1.813 4-4v-2c0-0.563-0.438-1-1-1zM24 9c-0.563 0-1-0.438-1-1s0.438-1 1-1c0.563 0 1 0.438 1 1s-0.438 1-1 1zM6 14c-1.125 0-2-0.875-2-2s-0.875-2-2-2c-1.125 0-2 0.875-2 2 0 2.625 1.688 4.813 4 5.625v13.375c0 0.563 0.438 1 1 1h4c0.563 0 1-0.438 1-1v-7h10v7c0 0.563 0.438 1 1 1h4c0.563 0 1-0.438 1-1v-13.625l-9.375-3.375z"></path>
</svg>