<svg version="1.1" xmlns="http://www.w3.org/2000/svg" width="32" height="32" viewBox="0 0 32 32">
<title>download</title>
<path d="M27.563 27.563h-23.125c-0.5 0-0.875 0.375-0.875 0.875s0.375 0.875 0.875 0.875h23.125c0.5 0 0.875-0.375 0.875-0.875s-0.375-0.875-0.875-0.875zM16 26.188l9.438-9.438c0.313-0.313 0.25-0.875-0.063-1.188s-0.875-0.375-1.188-0.063l-7.313 7.313v-18.375c0-0.5-0.375-0.875-0.875-0.875s-0.875 0.375-0.875 0.875v18.375l-7.313-7.313c-0.188-0.25-0.563-0.375-0.875-0.25-0.313 0.063-0.563 0.313-0.625 0.625-0.125 0.313 0 0.688 0.25 0.875z"></path>
</svg>