<svg version="1.1" xmlns="http://www.w3.org/2000/svg" width="32" height="32" viewBox="0 0 32 32">
<title>dribble</title>
<path d="M16 0c-8.813 0-16 7.188-16 16s7.188 16 16 16c8.813 0 16-7.188 16-16s-7.188-16-16-16zM16 2.625c3.438 0 6.563 1.25 8.813 3.375-0.125 0.313-2.188 3-6.938 4.813-2.188-4-4.625-7.375-5-7.813 1-0.25 2.063-0.375 3.125-0.375zM10.25 3.875c0.438 0.5 2.813 3.813 5 7.75-6.188 1.625-11.75 1.625-12.313 1.625 0.813-4.125 3.688-7.563 7.313-9.375zM26.375 7.563c1.813 2.25 2.938 5.125 3 8.313-0.438-0.063-4.875-1-9.313-0.5-0.125-0.125-0.188-0.375-0.313-0.625-0.25-0.688-0.563-1.313-0.875-2 5-1.938 7.188-4.875 7.5-5.188zM16.438 13.688c0.313 0.75 0.688 1.438 1.063 2.25-0.188 0-0.375 0.125-0.625 0.188-6.813 2.188-10.5 8.25-10.875 8.813-2.125-2.375-3.375-5.563-3.375-9v-0.375c0.625 0 7.063 0.063 13.813-1.875zM23.875 17.313c2.813 0 5 0.625 5.375 0.75-0.688 3.813-2.813 6.938-5.813 9-0.063-0.813-0.813-4.75-2.563-9.563 1.063-0.125 2.063-0.188 3-0.188zM18.313 18.188h0.063c1.875 4.813 2.688 8.938 2.875 10.125-1.625 0.625-3.375 1.063-5.25 1.063-3.125 0-5.938-1.063-8.188-2.875 0.188-0.5 2.938-5.75 10.5-8.313z"></path>
</svg>