<svg version="1.1" xmlns="http://www.w3.org/2000/svg" width="32" height="32" viewBox="0 0 32 32">
<title>etsy</title>
<path d="M28 21.75c-0.125 0.688-0.875 6.875-0.938 8.25-7.375-0.25-13.75-0.313-23.063 0v-1.563c2.813-0.563 3.813-0.563 3.813-2.25 0.125-4.5 0.25-15.25 0-20.125-0.063-1.75-0.75-1.688-3.813-2.25v-1.563c4.625 0.125 16 0.5 22.688-0.25-0.188 2.375-0.5 7.938-0.5 7.938h-1.438c-0.688-2.688-1.188-5.688-3.438-5.688h-8.563c-0.625 0-0.625 0.25-0.625 0.625v10.25c3.625 0 5.5-0.188 5.5-0.188 1.875-0.063 1.75-0.563 2.563-4.063h1.625c-0.313 6.313-0.25 3.875-0.125 10h-1.625c-0.563-2.5-0.563-3.813-2.438-3.813 0 0-1.375-0.125-5.5-0.125v8.688c0 1.625 0.875 2.375 2.75 2.375h5.563c4 0 4.188-1.563 6.188-6.25z"></path>
</svg>