<svg version="1.1" xmlns="http://www.w3.org/2000/svg" width="32" height="32" viewBox="0 0 32 32">
<title>eye-visible</title>
<path d="M16 6c-7 0-13 4.063-16 10 3 5.938 9 10 16 10s13-4.063 16-10c-3-5.938-9-10-16-10zM23.875 11.313c1.875 1.188 3.5 2.813 4.688 4.688-1.188 1.875-2.813 3.5-4.688 4.688-2.375 1.5-5.063 2.313-7.875 2.313s-5.5-0.813-7.875-2.313c-1.875-1.188-3.5-2.813-4.688-4.688 1.188-1.875 2.813-3.5 4.688-4.688 0.125-0.063 0.25-0.188 0.375-0.25-0.313 0.875-0.5 1.813-0.5 2.75 0 4.438 3.563 8 8 8s8-3.563 8-8c0-0.938-0.188-1.875-0.5-2.75 0.125 0.063 0.25 0.188 0.375 0.25zM16 13c0 1.688-1.313 3-3 3s-3-1.313-3-3c0-1.688 1.313-3 3-3s3 1.313 3 3z"></path>
</svg>