<svg version="1.1" xmlns="http://www.w3.org/2000/svg" width="32" height="32" viewBox="0 0 32 32">
<title>eye-hidden</title>
<path d="M29.563 0.438c-0.563-0.563-1.563-0.563-2.125 0l-6.313 6.313c-1.625-0.5-3.375-0.75-5.125-0.75-7 0-13 4.063-16 10 1.313 2.563 3.125 4.813 5.438 6.5l-5 4.938c-0.563 0.563-0.563 1.563 0 2.125 0.313 0.313 0.688 0.438 1.063 0.438s0.75-0.125 1.063-0.438l27-27c0.563-0.563 0.563-1.563 0-2.125zM13 10c1.313 0 2.438 0.875 2.813 2.063l-3.75 3.75c-1.188-0.375-2.063-1.5-2.063-2.813 0-1.688 1.313-3 3-3zM3.438 16c1.188-1.875 2.813-3.5 4.688-4.688 0.125-0.063 0.25-0.188 0.375-0.25-0.313 0.875-0.5 1.813-0.5 2.75 0 1.688 0.563 3.313 1.438 4.625l-1.875 1.875c-1.625-1.125-3.063-2.625-4.125-4.313zM24 13.813c0-0.875-0.125-1.688-0.375-2.438l-10.063 10.063c0.75 0.25 1.563 0.375 2.438 0.375 4.438 0 8-3.563 8-8zM25.938 9.063l-2.188 2.188c0.063 0 0.125 0 0.125 0.063 1.875 1.188 3.5 2.813 4.688 4.688-1.188 1.875-2.813 3.5-4.688 4.688-2.375 1.5-5.063 2.313-7.875 2.313-1.188 0-2.375-0.125-3.563-0.438l-2.375 2.375c1.813 0.688 3.875 1.063 5.938 1.063 7 0 13-4.063 16-10-1.438-2.813-3.5-5.188-6.063-6.938z"></path>
</svg>