<svg version="1.1" xmlns="http://www.w3.org/2000/svg" width="32" height="32" viewBox="0 0 32 32">
<title>file-excel</title>
<path d="M28.5 6.813c0.313 0.313 0.625 0.75 0.875 1.313s0.313 1.125 0.313 1.563v20.625c0 0.438-0.125 0.875-0.5 1.188-0.313 0.313-0.688 0.5-1.188 0.5h-24c-0.5 0-0.875-0.188-1.188-0.5-0.375-0.313-0.5-0.75-0.5-1.188v-28.625c0-0.438 0.125-0.875 0.5-1.188 0.313-0.313 0.688-0.5 1.188-0.5h16c0.5 0 1 0.125 1.563 0.375s1.063 0.5 1.375 0.813zM20.563 2.438v6.688h6.75c-0.125-0.313-0.25-0.563-0.438-0.688l-5.563-5.625c-0.125-0.125-0.375-0.25-0.75-0.375zM27.438 29.688v-18.25h-7.438c-0.5 0-0.875-0.188-1.188-0.5-0.375-0.313-0.5-0.75-0.5-1.25v-7.375h-13.75v27.375zM9.938 25.563v1.875h5v-1.875h-1.313l1.813-2.875c0.063-0.125 0.125-0.188 0.188-0.313s0.125-0.188 0.125-0.25c0.063-0.063 0.063-0.063 0.063-0.063h0.063c0 0.063 0.063 0.125 0.063 0.188 0.063 0 0.063 0.063 0.125 0.125 0 0.063 0.063 0.063 0.063 0.125 0.063 0.063 0.125 0.125 0.125 0.188l1.938 2.875h-1.375v1.875h5.188v-1.875h-1.188l-3.438-4.875 3.5-5.063h1.188v-1.938h-5v1.938h1.313l-1.813 2.813c-0.063 0.125-0.125 0.188-0.188 0.313s-0.125 0.188-0.188 0.25v0.063h-0.063c0-0.063 0-0.125-0.063-0.188-0.063-0.125-0.188-0.25-0.313-0.438l-1.875-2.813h1.313v-1.938h-5.125v1.938h1.188l3.375 4.875-3.438 5.063z"></path>
</svg>