<svg version="1.1" xmlns="http://www.w3.org/2000/svg" width="32" height="32" viewBox="0 0 32 32">
<title>file-pdf</title>
<path d="M28.5 6.813c0.313 0.313 0.625 0.75 0.875 1.313s0.313 1.125 0.313 1.563v20.625c0 0.438-0.125 0.875-0.5 1.188-0.313 0.313-0.688 0.5-1.188 0.5h-24c-0.5 0-0.875-0.188-1.188-0.5-0.375-0.313-0.5-0.75-0.5-1.188v-28.625c0-0.438 0.125-0.875 0.5-1.188 0.313-0.313 0.688-0.5 1.188-0.5h16c0.5 0 1 0.125 1.563 0.375s1.063 0.5 1.375 0.813zM20.563 2.438v6.688h6.75c-0.125-0.313-0.25-0.563-0.438-0.688l-5.563-5.625c-0.125-0.125-0.375-0.25-0.75-0.375zM27.438 29.688v-18.25h-7.438c-0.5 0-0.875-0.188-1.188-0.5-0.375-0.313-0.5-0.75-0.5-1.25v-7.375h-13.75v27.375zM18.25 19.125c0.375 0.313 0.875 0.625 1.5 1 0.688-0.063 1.375-0.125 2.063-0.125 1.75 0 2.813 0.313 3.188 0.875 0.188 0.25 0.188 0.563 0.063 0.938 0 0-0.063 0-0.063 0v0.063c-0.063 0.5-0.5 0.688-1.313 0.688-0.563 0-1.25-0.125-2-0.375-0.813-0.188-1.625-0.5-2.375-0.938-2.625 0.313-4.938 0.813-7 1.5-1.813 3.125-3.25 4.688-4.313 4.688-0.188 0-0.313-0.063-0.5-0.125l-0.438-0.25c0 0 0 0-0.063-0.063-0.125-0.125-0.188-0.313-0.125-0.625 0.125-0.5 0.438-1.063 1-1.625 0.563-0.625 1.375-1.188 2.375-1.75 0.125-0.125 0.313-0.063 0.375 0.125 0.063 0 0.063 0 0.063 0.063 0.625-1 1.25-2.188 1.875-3.5 0.813-1.625 1.438-3.188 1.875-4.688-0.25-1-0.438-1.938-0.563-2.875-0.063-0.938 0-1.688 0.125-2.25 0.125-0.5 0.375-0.75 0.75-0.75h0.438c0.25 0 0.438 0.125 0.625 0.313 0.188 0.25 0.25 0.625 0.125 1.188 0 0.063-0.063 0.125-0.063 0.125 0 0.063 0 0.125 0 0.188v0.5c0 1.5-0.063 2.625-0.25 3.438 0.688 1.938 1.563 3.375 2.625 4.25zM7.938 26.438c0.625-0.25 1.438-1.188 2.5-2.813-0.625 0.5-1.125 1-1.563 1.5-0.438 0.563-0.75 1-0.938 1.313zM15.063 10.063c-0.188 0.5-0.188 1.25 0 2.313 0-0.063 0-0.313 0.125-0.75 0-0.063 0-0.313 0.125-0.813 0 0 0-0.063 0.063-0.125 0 0-0.063 0-0.063 0 0-0.063 0-0.063 0-0.063 0-0.25-0.063-0.5-0.25-0.688 0 0.063 0 0.063 0 0.063zM12.875 21.813c1.563-0.625 3.25-1.125 5.063-1.438-0.063 0-0.125-0.063-0.25-0.125-0.125-0.125-0.188-0.188-0.25-0.25-0.938-0.813-1.688-1.875-2.313-3.188-0.313 1.063-0.813 2.25-1.438 3.563-0.375 0.625-0.625 1.125-0.813 1.438zM24.375 21.563c-0.25-0.313-1.125-0.438-2.5-0.438 0.938 0.313 1.688 0.5 2.25 0.5 0.125 0 0.25 0 0.313 0 0 0 0-0.063-0.063-0.063z"></path>
</svg>