<svg version="1.1" xmlns="http://www.w3.org/2000/svg" width="32" height="32" viewBox="0 0 32 32">
<title>file-video</title>
<path d="M28.5 6.813c0.313 0.313 0.625 0.75 0.875 1.313s0.313 1.125 0.313 1.563v20.625c0 0.438-0.125 0.875-0.5 1.188-0.313 0.313-0.688 0.5-1.188 0.5h-24c-0.5 0-0.875-0.188-1.188-0.5-0.375-0.313-0.5-0.75-0.5-1.188v-28.625c0-0.438 0.125-0.875 0.5-1.188 0.313-0.313 0.688-0.5 1.188-0.5h16c0.5 0 1 0.125 1.563 0.375s1.063 0.5 1.375 0.813zM20.563 2.438v6.688h6.75c-0.125-0.313-0.25-0.563-0.438-0.688l-5.563-5.625c-0.125-0.125-0.375-0.25-0.75-0.375zM27.438 29.688v-18.25h-7.438c-0.5 0-0.875-0.188-1.188-0.5-0.375-0.313-0.5-0.75-0.5-1.25v-7.375h-13.75v27.375zM16 13.688c0.625 0 1.125 0.25 1.625 0.688 0.438 0.5 0.688 1 0.688 1.625v6.875c0 0.625-0.25 1.125-0.688 1.563-0.5 0.5-1 0.688-1.625 0.688h-6.875c-0.625 0-1.125-0.188-1.563-0.688-0.5-0.438-0.688-0.938-0.688-1.563v-6.875c0-0.625 0.188-1.125 0.688-1.625 0.438-0.438 0.938-0.688 1.563-0.688zM24.813 13.75c0.188 0.125 0.313 0.25 0.313 0.563v10.25c0 0.25-0.125 0.438-0.313 0.563-0.125 0-0.188 0-0.25 0-0.188 0-0.313-0.063-0.375-0.125l-4.75-4.75v-1.625l4.75-4.75c0.063-0.125 0.188-0.188 0.375-0.188 0.063 0 0.125 0.063 0.25 0.063z"></path>
</svg>