<svg version="1.1" xmlns="http://www.w3.org/2000/svg" width="32" height="32" viewBox="0 0 32 32">
<title>file-image</title>
<path d="M28.5 6.813c0.313 0.313 0.625 0.75 0.875 1.313s0.313 1.125 0.313 1.563v20.625c0 0.438-0.125 0.875-0.5 1.188-0.313 0.313-0.688 0.5-1.188 0.5h-24c-0.5 0-0.875-0.188-1.188-0.5-0.375-0.313-0.5-0.75-0.5-1.188v-28.625c0-0.438 0.125-0.875 0.5-1.188 0.313-0.313 0.688-0.5 1.188-0.5h16c0.5 0 1 0.125 1.563 0.375s1.063 0.5 1.375 0.813zM20.563 2.438v6.688h6.75c-0.125-0.313-0.25-0.563-0.438-0.688l-5.563-5.625c-0.125-0.125-0.375-0.25-0.75-0.375zM27.438 29.688v-18.25h-7.438c-0.5 0-0.875-0.188-1.188-0.5-0.375-0.313-0.5-0.75-0.5-1.25v-7.375h-13.75v27.375zM25.125 21.688v5.75h-18.25v-3.438l3.438-3.438 2.25 2.313 6.875-6.875zM10.313 18.313c-1 0-1.813-0.375-2.438-1-0.688-0.688-1-1.5-1-2.438 0-1 0.313-1.75 1-2.438 0.625-0.688 1.438-1 2.438-1 0.938 0 1.75 0.313 2.375 1 0.688 0.688 1 1.438 1 2.438 0 0.938-0.313 1.75-1 2.438-0.625 0.625-1.438 1-2.375 1z"></path>
</svg>