<svg version="1.1" xmlns="http://www.w3.org/2000/svg" width="32" height="32" viewBox="0 0 32 32">
<title>file-zip</title>
<path d="M13.688 6.875v-2.313h-2.25v2.313zM16 9.125v-2.25h-2.313v2.25zM13.688 11.438v-2.313h-2.25v2.313zM16 13.688v-2.25h-2.313v2.25zM28.5 6.813c0.313 0.313 0.625 0.75 0.875 1.313s0.313 1.125 0.313 1.563v20.625c0 0.438-0.125 0.875-0.5 1.188-0.313 0.313-0.688 0.5-1.188 0.5h-24c-0.5 0-0.875-0.188-1.188-0.5-0.375-0.313-0.5-0.75-0.5-1.188v-28.625c0-0.438 0.125-0.875 0.5-1.188 0.313-0.313 0.688-0.5 1.188-0.5h16c0.5 0 1 0.125 1.563 0.375s1.063 0.5 1.375 0.813zM20.563 2.438v6.688h6.75c-0.125-0.313-0.25-0.563-0.438-0.688l-5.563-5.625c-0.125-0.125-0.375-0.25-0.75-0.375zM27.438 29.688v-18.25h-7.438c-0.5 0-0.875-0.188-1.188-0.5-0.375-0.313-0.5-0.75-0.5-1.25v-7.375h-2.313v2.25h-2.313v-2.25h-9.125v27.375zM16.25 16.813l1.875 6.25c0.125 0.313 0.188 0.625 0.188 0.938 0 1-0.438 1.813-1.313 2.438-0.875 0.688-1.938 1-3.313 1-1.313 0-2.375-0.313-3.25-1-0.875-0.625-1.313-1.438-1.313-2.438 0-0.313 0.063-0.625 0.188-0.938 0.25-0.75 0.938-3.125 2.125-7.063v-2.313h2.25v2.313h1.438c0.25 0 0.5 0.063 0.688 0.25 0.188 0.125 0.375 0.313 0.438 0.563zM13.688 25.125c0.688 0 1.188-0.125 1.625-0.313 0.438-0.25 0.688-0.5 0.688-0.813s-0.25-0.563-0.688-0.813c-0.438-0.188-0.938-0.313-1.625-0.313-0.625 0-1.125 0.125-1.563 0.313-0.5 0.25-0.688 0.5-0.688 0.813s0.188 0.563 0.688 0.813c0.438 0.188 0.938 0.313 1.563 0.313z"></path>
</svg>