<svg version="1.1" xmlns="http://www.w3.org/2000/svg" width="32" height="32" viewBox="0 0 32 32">
<title>file-word</title>
<path d="M28.5 6.813c0.313 0.313 0.625 0.75 0.875 1.313s0.313 1.125 0.313 1.563v20.625c0 0.438-0.125 0.875-0.5 1.188-0.313 0.313-0.688 0.5-1.188 0.5h-24c-0.5 0-0.875-0.188-1.188-0.5-0.375-0.313-0.5-0.75-0.5-1.188v-28.625c0-0.438 0.125-0.875 0.5-1.188 0.313-0.313 0.688-0.5 1.188-0.5h16c0.5 0 1 0.125 1.563 0.375s1.063 0.5 1.375 0.813zM20.563 2.438v6.688h6.75c-0.125-0.313-0.25-0.563-0.438-0.688l-5.563-5.625c-0.125-0.125-0.375-0.25-0.75-0.375zM27.438 29.688v-18.25h-7.438c-0.5 0-0.875-0.188-1.188-0.5-0.375-0.313-0.5-0.75-0.5-1.25v-7.375h-13.75v27.375zM6.438 13.688v1.938h1.25l2.938 11.813h2.813l2.313-8.688c0.063-0.25 0.125-0.5 0.188-0.813 0-0.188 0-0.313 0-0.438h0.125v0.438c0.063 0.063 0.063 0.188 0.063 0.375 0.063 0.188 0.063 0.375 0.125 0.438l2.313 8.688h2.813l2.938-11.813h1.25v-1.938h-5.375v1.938h1.625l-1.75 7.813c-0.063 0.25-0.125 0.5-0.125 0.813l-0.063 0.375h-0.063c0 0 0-0.063 0-0.125 0 0-0.063-0.063-0.063-0.125s0-0.063 0-0.125-0.063-0.188-0.063-0.375c-0.063-0.188-0.063-0.313-0.125-0.438l-2.563-9.75h-2l-2.563 9.75c-0.063 0.125-0.063 0.25-0.125 0.438 0 0.188-0.063 0.313-0.063 0.375l-0.063 0.375h-0.063l-0.063-0.375c0-0.313-0.063-0.563-0.125-0.813l-1.75-7.813h1.625v-1.938z"></path>
</svg>