<svg version="1.1" xmlns="http://www.w3.org/2000/svg" width="32" height="32" viewBox="0 0 32 32">
<title>fish</title>
<path d="M18.188 7.125c-5 0-9.375 3-11.813 5.625l-4.875-3.688c-0.625-0.5-1.625 0.063-1.5 0.813l1.375 6.125-1.375 6.125c-0.125 0.75 0.875 1.313 1.5 0.813l4.875-3.688c2.438 2.625 6.813 5.625 11.813 5.625 7.625 0 13.813-7.125 13.813-8.875s-6.188-8.875-13.813-8.875zM23 17.313c-0.688 0-1.313-0.563-1.313-1.313s0.625-1.313 1.313-1.313c0.75 0 1.375 0.563 1.375 1.313s-0.625 1.313-1.375 1.313z"></path>
</svg>