<svg version="1.1" xmlns="http://www.w3.org/2000/svg" width="32" height="32" viewBox="0 0 32 32">
<title>flame</title>
<path d="M10 32c-2.125-4.438-0.938-7 0.688-9.375 1.75-2.625 2.25-5.25 2.25-5.25s1.375 1.875 0.813 4.75c2.5-2.813 3-7.188 2.625-8.938 5.625 3.938 8.063 12.5 4.813 18.813 17.25-9.75 4.25-24.375 2-26 0.75 1.625 0.938 4.375-0.625 5.75-2.563-9.75-8.938-11.75-8.938-11.75 0.75 5.063-2.688 10.563-6.063 14.625-0.125-2-0.25-3.375-1.313-5.313-0.25 3.688-3 6.625-3.75 10.313-1.063 4.938 0.75 8.563 7.563 12.375z"></path>
</svg>