<svg version="1.1" xmlns="http://www.w3.org/2000/svg" width="32" height="32" viewBox="0 0 32 32">
<title>game-controller</title>
<path d="M24 8h-16c-4.438 0-8 3.563-8 8s3.563 8 8 8c2.25 0 4.25-0.938 5.688-2.375h4.625c1.438 1.438 3.438 2.375 5.688 2.375 4.438 0 8-3.563 8-8s-3.563-8-8-8zM12.813 17c0 0.313-0.313 0.625-0.625 0.625h-2.563v2.563c0 0.313-0.313 0.625-0.625 0.625h-2c-0.313 0-0.625-0.313-0.625-0.625v-2.563h-2.563c-0.313 0-0.625-0.313-0.625-0.625v-2c0-0.313 0.313-0.625 0.625-0.625h2.563v-2.563c0-0.313 0.313-0.625 0.625-0.625h2c0.313 0 0.625 0.313 0.625 0.625v2.563h2.563c0.313 0 0.625 0.313 0.625 0.625zM22 20.375c-1.313 0-2.375-1.063-2.375-2.375s1.063-2.375 2.375-2.375c1.313 0 2.375 1.063 2.375 2.375s-1.063 2.375-2.375 2.375zM26 16.375c-1.313 0-2.375-1.063-2.375-2.375s1.063-2.375 2.375-2.375c1.313 0 2.375 1.063 2.375 2.375s-1.063 2.375-2.375 2.375z"></path>
</svg>