<svg version="1.1" xmlns="http://www.w3.org/2000/svg" width="32" height="32" viewBox="0 0 32 32">
<title>gift</title>
<path d="M30 8h-28c-1.125 0-2 0.875-2 2v6h2v14c0 1.125 0.875 2 2 2h24c1.125 0 2-0.875 2-2v-14h2v-6c0-1.125-0.875-2-2-2zM2 10h12v4h-12zM4 30v-14h10v14zM28 30h-9.938v-14h9.938zM30 14h-11.938v-4h11.938zM16 6c0 0 5.25 0 8 0s4-1.375 4-3c0-1.625-1.25-3-4-3-2.563 0-4.625 1.188-6 2.5-0.625-0.375-1.313-0.563-2.063-0.563s-1.375 0.188-2 0.563c-1.375-1.375-3.375-2.5-5.938-2.5-2.75 0-4 1.375-4 3s1.25 3 4 3c2.75 0 8 0 8 0zM26 3c0 0.813-1.063 1-2 1h-4.563c0 0 0-0.063 0-0.063 1-1 2.5-1.938 4.563-1.938 0.938 0 2 0.188 2 1zM6 3c0-0.813 1.063-1 2-1 2 0 3.5 0.875 4.5 1.875 0 0-0.063 0.063-0.063 0.125h-4.438c-0.938 0-2-0.188-2-1z"></path>
</svg>