<svg version="1.1" xmlns="http://www.w3.org/2000/svg" width="32" height="32" viewBox="0 0 32 32">
<title>github</title>
<path d="M16 0c2.938 0 5.625 0.688 8.063 2.188s4.375 3.438 5.813 5.938c1.438 2.5 2.125 5.25 2.125 8.25 0 3.625-1 6.813-3 9.688-2.063 2.813-4.688 4.813-7.938 5.875-0.375 0.063-0.688 0.063-0.813-0.125-0.188-0.188-0.313-0.375-0.313-0.625 0-0.063 0-0.563 0-1.625 0.063-1.063 0.063-2 0.063-2.938 0-1.313-0.375-2.375-1.063-3 0.813-0.063 1.438-0.188 2.125-0.375 0.625-0.188 1.313-0.438 1.938-0.813 0.688-0.438 1.25-0.875 1.688-1.438s0.813-1.313 1.125-2.25c0.25-0.938 0.438-2 0.438-3.188 0-1.75-0.625-3.25-1.688-4.438 0.5-1.313 0.5-2.75-0.188-4.375-0.313-0.125-0.938 0-1.625 0.25-0.75 0.25-1.438 0.625-1.938 0.938l-0.813 0.5c-1.313-0.375-2.625-0.5-4-0.5s-2.688 0.125-4 0.5c-0.25-0.125-0.5-0.375-0.875-0.563-0.375-0.25-1-0.5-1.75-0.875-0.813-0.25-1.438-0.375-1.75-0.25-0.688 1.625-0.688 3.063-0.188 4.375-1.063 1.188-1.688 2.688-1.688 4.438 0 1.188 0.188 2.25 0.438 3.125 0.313 1 0.688 1.75 1.125 2.25 0.438 0.625 1 1.063 1.688 1.5 0.625 0.375 1.313 0.625 1.938 0.813s1.313 0.313 2.125 0.375c-0.5 0.563-0.875 1.313-1 2.188-0.313 0.125-0.563 0.313-0.938 0.375-0.313 0.063-0.75 0.063-1.188 0.063s-0.938-0.125-1.375-0.438c-0.438-0.313-0.813-0.75-1.188-1.375-0.188-0.438-0.563-0.813-1-1.063-0.375-0.313-0.75-0.5-1.063-0.563l-0.375-0.063c-0.25 0-0.5 0.063-0.625 0.125-0.063 0.125-0.125 0.188-0.063 0.25 0 0.063 0.063 0.25 0.125 0.313 0.125 0.063 0.25 0.125 0.313 0.188l0.125 0.188c0.313 0.125 0.563 0.375 0.938 0.813 0.313 0.375 0.563 0.75 0.688 1.063l0.125 0.5c0.25 0.5 0.5 1 0.938 1.25 0.438 0.375 0.875 0.625 1.438 0.688 0.5 0.063 1 0.188 1.438 0.188s0.875 0 1.188-0.125l0.438-0.063c0 0.563 0 1.188 0.063 1.875 0 0.75 0 1.125 0 1.188 0 0.25-0.125 0.438-0.313 0.625-0.125 0.188-0.438 0.188-0.813 0.125-3.25-1-5.875-3.063-7.938-5.875-2-2.875-3-6.063-3-9.688 0-3 0.688-5.75 2.125-8.188 1.438-2.563 3.375-4.5 5.813-6s5.125-2.188 8.063-2.188zM6.063 23.563c0-0.125 0-0.188-0.125-0.313-0.188 0-0.25 0-0.313 0.125-0.063 0.063 0 0.125 0.125 0.188 0.188 0.063 0.25 0.063 0.313 0zM6.75 24.25c0.063-0.063 0.063-0.125-0.125-0.313-0.125-0.125-0.188-0.125-0.313-0.063s-0.125 0.125 0.063 0.375c0.125 0.063 0.188 0.125 0.375 0zM7.313 25.188c0.125-0.063 0.125-0.188 0-0.375-0.063-0.188-0.25-0.188-0.375-0.125-0.063 0.063-0.063 0.25 0 0.375 0.125 0.25 0.313 0.25 0.375 0.125zM8.188 26.125c0.125-0.063 0.063-0.25-0.063-0.375-0.188-0.188-0.313-0.25-0.438-0.063-0.063 0.125-0.063 0.188 0.063 0.375 0.188 0.188 0.375 0.188 0.438 0.063zM9.375 26.625c0.063-0.125 0-0.188-0.25-0.313-0.188-0.063-0.375 0-0.438 0.188 0 0.125 0.063 0.188 0.313 0.313 0.188 0.063 0.375 0.063 0.375-0.188zM10.688 26.813c0-0.25-0.063-0.313-0.313-0.25-0.188 0-0.375 0.063-0.375 0.25 0 0.125 0.188 0.188 0.375 0.188 0.25 0 0.313-0.063 0.313-0.188zM11.938 26.563c0-0.125-0.188-0.25-0.375-0.25-0.25 0.125-0.375 0.188-0.313 0.375 0 0.188 0.125 0.25 0.375 0.188 0.188-0.063 0.313-0.188 0.313-0.313z"></path>
</svg>