<svg version="1.1" xmlns="http://www.w3.org/2000/svg" width="32" height="32" viewBox="0 0 32 32">
<title>global</title>
<path d="M17 2c-8.313 0-15 6.688-15 15s6.688 15 15 15c8.313 0 15-6.688 15-15s-6.688-15-15-15zM27.938 10h-3c-0.563-1.813-1.375-3.438-2.313-4.688 2.188 1.063 4 2.688 5.313 4.688zM18 10v-5.813c1.875 0.563 3.75 2.625 4.875 5.813zM23.438 12c0.313 1.25 0.5 2.563 0.563 4h-6v-4zM16 4.188v5.813h-4.875c1.125-3.188 3-5.25 4.875-5.813zM16 12v4h-6c0.063-1.438 0.25-2.75 0.563-4zM8 16h-3.938c0.125-1.375 0.438-2.75 0.938-4h3.5c-0.25 1.25-0.438 2.625-0.5 4zM8 18c0.063 1.375 0.25 2.75 0.5 4h-3.5c-0.5-1.25-0.813-2.625-0.938-4zM10 18h6v4h-5.438c-0.313-1.25-0.5-2.563-0.563-4zM16 24v5.813c-1.875-0.563-3.75-2.625-4.875-5.813zM18 29.813v-5.813h4.875c-1.125 3.188-3 5.25-4.875 5.813zM18 22v-4h6c-0.063 1.438-0.25 2.75-0.563 4zM26 18h3.938c-0.125 1.375-0.438 2.75-0.938 4h-3.5c0.25-1.25 0.438-2.625 0.5-4zM26 16c-0.063-1.375-0.25-2.75-0.5-4h3.5c0.5 1.25 0.813 2.625 0.938 4zM11.375 5.313c-0.938 1.25-1.75 2.875-2.313 4.688h-3c1.313-2 3.125-3.625 5.313-4.688zM6.063 24h3c0.563 1.813 1.375 3.438 2.313 4.688-2.188-1.063-4-2.688-5.313-4.688zM22.625 28.688c0.938-1.25 1.75-2.875 2.313-4.688h3c-1.313 2-3.125 3.625-5.313 4.688z"></path>
</svg>