<svg version="1.1" xmlns="http://www.w3.org/2000/svg" width="32" height="32" viewBox="0 0 32 32">
<title>goodreads</title>
<path d="M6.688 25.188h0.125c0.813 0 1.625 0 2.438 0 0.063 0 0.188 0 0.188 0.188 0.438 2.125 1.875 3.375 3.938 3.938 1.688 0.5 3.375 0.5 5.063 0.125 2.125-0.438 3.5-1.75 4.25-3.75 0.5-1.375 0.688-2.75 0.688-4.188 0.063-0.313 0.063-2.938 0-3.25l-0.063-0.063c0 0.125-0.063 0.188-0.125 0.313-1.375 2.688-3.813 4.188-6.625 4.313-6.438 0.25-10.563-3.563-10.75-11 0-1.5 0.125-2.938 0.563-4.375 1.25-4.438 4.625-7.375 9.625-7.438 3.813 0 6.313 2.438 7.25 4.375 0 0.063 0.063 0.188 0.125 0.125v-3.813h2.813c0 17.5 0 20.75 0 20.75 0 4.875-1.688 9-6.438 10.125-4.375 1.063-9.938 0.313-12.25-3.563-0.5-0.875-0.75-1.75-0.813-2.813zM15.813 2.313c-3.313-0.063-6.813 2.5-7.188 8.313-0.25 3.688 0.938 7.688 4.438 9.313 1.75 0.813 4.688 0.938 6.813-0.563 2.938-2.063 3.875-6.063 3.438-9.625-0.625-4.438-3-7.5-7.5-7.438z"></path>
</svg>