<svg version="1.1" xmlns="http://www.w3.org/2000/svg" width="32" height="32" viewBox="0 0 32 32">
<title>hand</title>
<path d="M28.188 17.125c-0.938-0.938-2.25-1-3.188-0.125l-2.625 2.625c-0.625 0.688-1.5 0.688-1.938 0.125-0.313-0.375-0.188-1.563-0.125-2.25l1.313-10.75c0.125-1-0.563-1.875-1.5-2-1-0.125-1.875 0.625-2 1.563l-1.438 8.438c-0.063 0.188-0.188 0.25-0.25-0.063l-0.5-10.938c0-0.938-0.75-1.75-1.75-1.75-0.938 0-1.75 0.813-1.75 1.75v11.063c0 0.125-0.125 0.125-0.125 0l-1.563-8.625c-0.188-0.938-1.063-1.625-2.063-1.438-0.938 0.125-1.563 1.125-1.375 2.063l1.375 10.063c0 0.188-0.063 0.313-0.125 0.063l-2.063-5.5c-0.375-0.938-1.375-1.438-2.25-1.125-0.938 0.313-1.375 1.375-1.063 2.313l3.625 11.813c0 0.063 0.063 0.125 0.063 0.188v0.063c1 3.063 3.938 5.313 7.313 5.313 2.25 0 4.5-0.75 6.25-2.125 1.875-1.125 7.875-7.563 7.875-7.563 0.875-0.938 0.75-2.313-0.125-3.188z"></path>
</svg>