<svg version="1.1" xmlns="http://www.w3.org/2000/svg" width="32" height="32" viewBox="0 0 32 32">
<title>headphones</title>
<path d="M9 18h-2v14h2c0.563 0 1-0.438 1-1v-12c0-0.563-0.438-1-1-1zM23 18c-0.563 0-1 0.438-1 1v12c0 0.563 0.438 1 1 1h2v-14zM32 16c0-8.813-7.188-16-16-16s-16 7.188-16 16c0 1.938 0.313 3.75 0.938 5.438-0.563 1.063-0.938 2.25-0.938 3.563 0 3.5 2.625 6.438 6 6.938v-13.875c-1 0.125-1.938 0.5-2.75 1-0.188-0.813-0.25-1.688-0.25-2.563 0-7.188 5.813-13 13-13s13 5.813 13 13c0 0.875-0.063 1.75-0.25 2.563-0.813-0.5-1.75-0.875-2.75-1v13.875c3.375-0.5 6-3.438 6-6.938 0-1.313-0.375-2.5-0.938-3.563 0.625-1.688 0.938-3.5 0.938-5.438z"></path>
</svg>