<svg version="1.1" xmlns="http://www.w3.org/2000/svg" width="32" height="32" viewBox="0 0 32 32">
<title>heart</title>
<path d="M16 29.688c-0.313 0-0.563-0.063-0.813-0.313l-11.125-10.75c-0.125-0.063-0.25-0.25-0.5-0.438-0.188-0.25-0.5-0.625-1-1.188-0.438-0.563-0.813-1.125-1.188-1.75-0.375-0.563-0.688-1.313-0.938-2.125-0.313-0.875-0.438-1.688-0.438-2.5 0-2.625 0.75-4.625 2.25-6.125s3.625-2.188 6.313-2.188c0.688 0 1.438 0.125 2.25 0.375 0.75 0.25 1.438 0.563 2.125 1s1.25 0.875 1.688 1.25c0.5 0.375 0.938 0.75 1.375 1.188 0.438-0.438 0.875-0.813 1.375-1.188 0.438-0.375 1-0.813 1.688-1.25s1.375-0.75 2.125-1c0.813-0.25 1.563-0.375 2.25-0.375 2.688 0 4.813 0.688 6.313 2.188s2.25 3.5 2.25 6.125c0 2.625-1.375 5.313-4.063 8.063l-11.125 10.688c-0.25 0.25-0.5 0.313-0.813 0.313z"></path>
</svg>