<svg version="1.1" xmlns="http://www.w3.org/2000/svg" width="32" height="32" viewBox="0 0 32 32">
<title>help</title>
<path d="M16 0c-8.813 0-16 7.188-16 16s7.188 16 16 16c8.813 0 16-7.188 16-16s-7.188-16-16-16zM16 30c-7.75 0-14-6.25-14-14s6.25-14 14-14c7.75 0 14 6.25 14 14s-6.25 14-14 14zM13.75 26c0 1.188 0.938 2.063 2.063 2.063 1.188 0 2.063-0.875 2.063-2.063 0-1.125-0.875-2.063-2.063-2.063-1.125 0-2.063 0.938-2.063 2.063zM15.813 4c-3.875 0-8 2.813-8 8.063 0 1.063 0.938 2 2 2 1.125 0 2-0.938 2-2 0-2.813 2.125-4.063 4-4.063 1.5 0 4 0.438 4 3.375 0 1.063-0.25 2.25-2.25 3.375-1.375 0.75-3.75 2.688-3.75 5.25 0 1.125 0.938 2 2 2 1.125 0 2-0.875 2-2 0-0.375 0.813-1.313 1.625-1.75 2.938-1.625 4.375-3.938 4.375-6.875 0-5.125-4-7.375-8-7.375z"></path>
</svg>