<svg version="1.1" xmlns="http://www.w3.org/2000/svg" width="32" height="32" viewBox="0 0 32 32">
<title>hiking</title>
<path d="M9.063 29.5c-0.25 1.063 0.375 2.188 1.438 2.438 0.188 0.063 0.313 0.063 0.5 0.063 0.875 0 1.688-0.625 1.938-1.5l1.563-6.313-3.25-3.313zM10 17.25l2.563-9.938c0.125-0.5-0.188-1.063-0.75-1.188-2.75-0.688-5.5 0.938-6.188 3.563l-1.625 6.125c-0.125 0.563 0.25 1.063 0.75 1.188l4 1c0.563 0.125 1.125-0.188 1.25-0.75zM27 10h-1c-0.563 0-1 0.438-1 1v1h-2.188l-2.938-2.938c-0.688-0.688-1.563-1.063-2.563-1.063-1.688 0-3.188 1.125-3.563 2.813l-1.688 6.688c-0.188 0.688 0 1.438 0.5 1.938l5.438 5.375v5.188c0 1.125 0.875 2 2 2s2-0.875 2-2v-5.188c0-1.063-0.438-2.063-1.188-2.813l-2.938-2.938c0.063 0 0.063-0.063 0.063-0.063l1.25-5 1.375 1.438c0.375 0.375 0.938 0.563 1.438 0.563h3v15c0 0.563 0.438 1 1 1h1c0.563 0 1-0.438 1-1v-20c0-0.563-0.438-1-1-1zM19 6c1.688 0 3-1.313 3-3s-1.313-3-3-3c-1.688 0-3 1.313-3 3s1.313 3 3 3z"></path>
</svg>