<svg version="1.1" xmlns="http://www.w3.org/2000/svg" width="32" height="32" viewBox="0 0 32 32">
<title>home</title>
<path d="M1.625 17.75l14.375-12.438 14.375 12.438c0.188 0.188 0.375 0.25 0.625 0.25s0.563-0.125 0.75-0.375c0.375-0.375 0.313-1-0.125-1.375l-15-13c-0.375-0.313-0.875-0.313-1.25 0l-5.375 4.625v-1.875c0-1.125-0.875-2-2-2s-2 0.875-2 2v5.313l-5.625 4.938c-0.438 0.375-0.5 1-0.125 1.375 0.375 0.438 1 0.5 1.375 0.125zM12 22h8v10h6c1.125 0 2-0.875 2-2v-9.813c0-0.563-0.25-1.125-0.75-1.563l-10-8.188c-0.375-0.313-0.813-0.438-1.25-0.438s-0.875 0.125-1.25 0.438l-10 8.188c-0.5 0.375-0.75 1-0.75 1.563v9.813c0 1.125 0.875 2 2 2h6z"></path>
</svg>