<svg version="1.1" xmlns="http://www.w3.org/2000/svg" width="32" height="32" viewBox="0 0 32 32">
<title>instagram</title>
<path d="M16 8.813c-3.938 0-7.188 3.188-7.188 7.188s3.25 7.188 7.188 7.188c4 0 7.188-3.188 7.188-7.188s-3.188-7.188-7.188-7.188zM16 20.688c-2.563 0-4.688-2.125-4.688-4.688s2.125-4.688 4.688-4.688c2.563 0 4.688 2.125 4.688 4.688s-2.125 4.688-4.688 4.688zM25.188 8.5c0 0.938-0.75 1.688-1.688 1.688s-1.688-0.75-1.688-1.688c0-0.875 0.75-1.625 1.688-1.625s1.688 0.75 1.688 1.625zM29.938 10.25c-0.125-2.25-0.625-4.25-2.313-5.875-1.625-1.688-3.625-2.188-5.813-2.313-2.313-0.125-9.25-0.125-11.563 0-2.25 0.125-4.25 0.625-5.875 2.313-1.688 1.625-2.188 3.625-2.25 5.813-0.188 2.313-0.188 9.25 0 11.563 0.063 2.25 0.563 4.25 2.25 5.875 1.625 1.625 3.625 2.188 5.875 2.25 2.313 0.188 9.25 0.188 11.563 0 2.188-0.063 4.188-0.563 5.813-2.25 1.688-1.625 2.188-3.625 2.313-5.875 0.125-2.313 0.125-9.188 0-11.5zM26.938 24.25c-0.5 1.25-1.438 2.188-2.688 2.688-1.813 0.688-6.188 0.563-8.25 0.563-2 0-6.438 0.125-8.25-0.563-1.25-0.5-2.188-1.438-2.688-2.688-0.688-1.813-0.563-6.188-0.563-8.25s-0.125-6.438 0.563-8.25c0.5-1.25 1.438-2.188 2.688-2.688 1.875-0.688 6.25-0.563 8.25-0.563 2.063 0 6.438-0.125 8.25 0.563 1.25 0.5 2.188 1.438 2.688 2.688 0.75 1.813 0.563 6.188 0.563 8.25s0.188 6.438-0.563 8.25z"></path>
</svg>