<svg version="1.1" xmlns="http://www.w3.org/2000/svg" width="32" height="32" viewBox="0 0 32 32">
<title>knife-fork</title>
<path d="M16 0.938c0.063 0.313 1 5.938 1 8.063 0 3.25-1.75 5.625-4.313 6.563l0.813 14.875c0.063 0.813-0.625 1.563-1.5 1.563h-4c-0.875 0-1.563-0.688-1.5-1.563l0.813-14.875c-2.563-0.938-4.313-3.313-4.313-6.563 0-2.125 0.938-7.75 1-8.063 0.188-1.25 2.813-1.25 3 0.063v8.875c0.063 0.188 0.938 0.188 1 0 0.063-1.625 0.5-8.75 0.5-8.875 0.188-1.313 2.813-1.313 3 0 0 0.125 0.438 7.25 0.5 8.875 0.063 0.188 0.938 0.188 1 0v-8.875c0.188-1.313 2.813-1.313 3-0.063zM23.438 18.813l-0.938 11.563c-0.063 0.875 0.625 1.625 1.5 1.625h3.5c0.813 0 1.5-0.688 1.5-1.5v-29c0-0.813-0.688-1.5-1.5-1.5-5.125 0-13.813 11.188-4.063 18.813z"></path>
</svg>