<svg version="1.1" xmlns="http://www.w3.org/2000/svg" width="32" height="32" viewBox="0 0 32 32">
<title>leaf</title>
<path d="M22.875 10.563c0-0.313-0.125-0.563-0.375-0.813-0.188-0.188-0.5-0.313-0.813-0.313-2 0-3.938 0.313-5.625 0.875-1.75 0.563-3.313 1.375-4.688 2.375-1.313 1-2.75 2.313-4.188 3.938-0.188 0.25-0.313 0.5-0.313 0.813s0.125 0.563 0.313 0.813c0.25 0.188 0.5 0.313 0.813 0.313s0.563-0.125 0.813-0.313c0.313-0.313 0.75-0.75 1.313-1.313s0.938-0.938 1.188-1.125c1.625-1.5 3.25-2.563 4.813-3.188s3.438-0.938 5.563-0.938c0.313 0 0.625-0.063 0.813-0.313 0.25-0.25 0.375-0.5 0.375-0.813zM32 7.063c0 1.125-0.125 2.25-0.375 3.438-0.5 2.625-1.625 4.938-3.25 6.813-1.688 1.875-3.813 3.5-6.438 4.813-2.5 1.25-5.125 1.938-7.813 1.938-1.75 0-3.438-0.313-5.063-0.875-0.188-0.063-0.75-0.313-1.625-0.75-0.813-0.438-1.438-0.625-1.688-0.625-0.188 0-0.438 0.188-0.688 0.563-0.313 0.375-0.563 0.75-0.813 1.25-0.25 0.438-0.563 0.875-0.938 1.25s-0.75 0.563-1.063 0.563c-0.375 0-0.688-0.063-0.938-0.188s-0.438-0.313-0.563-0.438c-0.125-0.188-0.25-0.438-0.438-0.75-0.063-0.063-0.063-0.125-0.125-0.188-0.063-0.125-0.063-0.188-0.125-0.188 0-0.063 0-0.125-0.063-0.188 0-0.063 0-0.125 0-0.25 0-0.375 0.188-0.813 0.563-1.313 0.375-0.438 0.75-0.813 1.188-1.125 0.438-0.375 0.875-0.688 1.25-1 0.375-0.375 0.563-0.688 0.563-0.875 0-0.063-0.125-0.313-0.25-0.688-0.188-0.375-0.313-0.688-0.313-0.813-0.125-0.563-0.188-1.188-0.188-1.813 0-1.375 0.313-2.688 0.813-3.938s1.188-2.375 2.125-3.313c0.875-0.938 1.875-1.75 3.063-2.5 1.125-0.688 2.313-1.25 3.625-1.688 0.625-0.188 1.5-0.375 2.563-0.438 1.063-0.125 2.188-0.125 3.25-0.188 1.063 0 2.125-0.063 3.188-0.063 1.063-0.063 2-0.25 2.875-0.438 0.875-0.25 1.563-0.563 2.063-1l0.5-0.563 0.563-0.5 0.438-0.375 0.688-0.25 0.75-0.063c0.5 0 0.875 0.25 1.25 0.813 0.375 0.5 0.688 1.188 0.875 2 0.188 0.75 0.313 1.5 0.438 2.188 0.063 0.688 0.125 1.25 0.125 1.75z"></path>
</svg>