<svg version="1.1" xmlns="http://www.w3.org/2000/svg" width="32" height="32" viewBox="0 0 32 32">
<title>life-buoy</title>
<path d="M16 0c2.188 0 4.25 0.438 6.188 1.25 2 0.875 3.688 2 5.125 3.438s2.563 3.125 3.438 5.125c0.813 1.938 1.25 4 1.25 6.188s-0.438 4.25-1.25 6.188c-0.875 2-2 3.688-3.438 5.125s-3.125 2.563-5.125 3.438c-1.938 0.813-4 1.25-6.188 1.25s-4.25-0.438-6.188-1.25c-2-0.875-3.688-2-5.125-3.438s-2.563-3.125-3.438-5.125c-0.813-1.938-1.25-4-1.25-6.188s0.438-4.25 1.25-6.188c0.875-2 2-3.688 3.438-5.125s3.125-2.563 5.125-3.438c1.938-0.813 4-1.25 6.188-1.25zM16 2.313c-2.25 0-4.438 0.5-6.438 1.563l3.438 3.5c1-0.375 2-0.5 3-0.5s2 0.125 3 0.5l3.438-3.5c-2-1.063-4.188-1.563-6.438-1.563zM3.875 22.438l3.5-3.438c-0.375-1-0.5-2-0.5-3s0.125-2 0.5-3l-3.5-3.438c-1.063 2-1.563 4.188-1.563 6.438s0.5 4.438 1.563 6.438zM16 29.688c2.25 0 4.438-0.5 6.438-1.563l-3.438-3.5c-1 0.375-2 0.5-3 0.5s-2-0.125-3-0.5l-3.438 3.5c2 1.063 4.188 1.563 6.438 1.563zM16 22.875c1.875 0 3.5-0.688 4.875-2 1.313-1.375 2-3 2-4.875s-0.688-3.5-2-4.875c-1.375-1.313-3-2-4.875-2s-3.5 0.688-4.875 2c-1.313 1.375-2 3-2 4.875s0.688 3.5 2 4.875c1.375 1.313 3 2 4.875 2zM24.625 19l3.5 3.438c1.063-2 1.563-4.188 1.563-6.438s-0.5-4.438-1.563-6.438l-3.5 3.438c0.375 1 0.5 2 0.5 3s-0.125 2-0.5 3z"></path>
</svg>