<svg version="1.1" xmlns="http://www.w3.org/2000/svg" width="32" height="32" viewBox="0 0 32 32">
<title>lightbulb</title>
<path d="M16 0c-6.625 0-12 5.375-12 12 0 3.875 1.875 7.5 5.063 9.75 0 0.063 0.063 0.063 0.125 0.125 0.75 0.438 0.813 1.813 0.75 2.063 0 0.063 0 0.063 0 0.125v3.938c0 0.75 0.438 1.438 1.125 1.75l4 2.063c0.313 0.188 0.625 0.25 0.938 0.25s0.625-0.063 0.875-0.188l4.125-2.063c0.688-0.375 1.063-1.063 1.063-1.813v-3.938c0-1.938 1.25-2.625 1.25-2.625 0.125-0.063 0.313-0.125 0.438-0.25 2.688-2.313 4.25-5.625 4.25-9.188 0-6.625-5.375-12-12-12zM11.938 24.063c0 0 0-0.063 0-0.063h8.125c0 0 0 0.063 0 0.063 0 0.813 0 1.438 0 1.938h-8.125zM16 30.063l-4.063-2.063h8.125zM22.438 19.625c0 0-1.313 0.625-2 2.375h-8.813c-0.25-0.688-0.688-1.375-1.438-1.875-2.563-1.813-4.188-4.75-4.188-8.125 0-5.5 4.5-10 10-10s10 4.5 10 10c0 3.063-1.375 5.813-3.563 7.625zM17 4c-0.563 0-1 0.438-1 1s0.438 1 1 1c2.25 0 5 2.063 5 5.125 0 0.5 0.438 1 1 1s1-0.5 1-1c0-4.563-3.563-7.125-7-7.125z"></path>
</svg>