<svg version="1.1" xmlns="http://www.w3.org/2000/svg" width="32" height="32" viewBox="0 0 32 32">
<title>linkedin</title>
<path d="M28 2h-24c-1.125 0-2 0.938-2 2v24c0 1.125 0.875 2 2 2h24c1.125 0 2-0.875 2-2v-24c0-1.063-0.875-2-2-2zM10.438 26h-4.125v-13.375h4.188v13.375zM8.375 10.813c-1.313 0-2.375-1.063-2.375-2.375 0-1.375 1.063-2.438 2.375-2.438s2.438 1.063 2.438 2.438c0 1.313-1.063 2.375-2.438 2.375zM26 26h-4.125v-6.5c0-1.563-0.063-3.563-2.188-3.563s-2.438 1.688-2.438 3.438v6.625h-4.188v-13.375h4v1.813h0.063c0.563-1 1.875-2.125 3.938-2.125 4.188 0 4.938 2.75 4.938 6.375z"></path>
</svg>