<svg version="1.1" xmlns="http://www.w3.org/2000/svg" width="32" height="32" viewBox="0 0 32 32">
<title>link</title>
<path d="M15.625 21.625l-2.188 2.188c-0.625 0.625-1.5 1-2.5 1-0.938 0-1.813-0.375-2.5-1-0.625-0.688-1-1.5-1-2.5 0-0.938 0.375-1.813 1-2.438l4.188-4.125c0.625-0.688 1.5-1.063 2.5-1.063s1.875 0.375 2.5 1.063c0.438 0.375 0.75 0.875 0.875 1.438v0.063c0.125-0.063 0.188-0.188 0.25-0.25l1.125-1.125c-0.25-0.563-0.563-1.063-1-1.438-0.938-0.938-2.313-1.563-3.75-1.563s-2.813 0.625-3.75 1.563l-4.188 4.125c-0.938 1-1.563 2.313-1.563 3.75s0.625 2.813 1.563 3.75c1 0.938 2.313 1.5 3.75 1.5 1.5 0 2.813-0.563 3.75-1.5l3.25-3.25c-0.125 0-0.313 0-0.438 0-0.063 0-0.063 0-0.125 0-0.625 0-1.188-0.063-1.75-0.188zM25.438 6.938c-1-0.938-2.313-1.5-3.75-1.5-1.5 0-2.813 0.563-3.75 1.5l-3.25 3.25c0.125 0 0.313 0 0.438 0 0.688 0 1.313 0.063 1.938 0.25h-0.063l2.188-2.188c0.625-0.625 1.5-1 2.5-1 0.938 0 1.813 0.375 2.5 1 0.625 0.625 1 1.5 1 2.438 0 1-0.375 1.875-1 2.5l-4.188 4.125c-0.625 0.625-1.5 1-2.5 1s-1.875-0.375-2.5-1c-0.438-0.375-0.688-0.938-0.875-1.5-0.125 0.063-0.188 0.125-0.25 0.188l-1.125 1.125c0.25 0.563 0.563 1.063 1 1.438 0.938 1 2.25 1.563 3.75 1.563 1.438 0 2.75-0.563 3.75-1.563l4.188-4.125c0.938-0.938 1.5-2.25 1.5-3.75 0-1.438-0.563-2.75-1.5-3.688z"></path>
</svg>