<svg version="1.1" xmlns="http://www.w3.org/2000/svg" width="32" height="32" viewBox="0 0 32 32">
<title>login</title>
<path d="M23.438 16c0 0.313-0.125 0.563-0.375 0.813l-9.688 9.688c-0.25 0.25-0.5 0.375-0.813 0.375s-0.563-0.125-0.813-0.375c-0.188-0.188-0.313-0.5-0.313-0.813v-5.125h-8c-0.313 0-0.563-0.125-0.813-0.313-0.25-0.25-0.313-0.5-0.313-0.813v-6.875c0-0.313 0.063-0.563 0.313-0.813 0.25-0.188 0.5-0.313 0.813-0.313h8v-5.125c0-0.313 0.125-0.625 0.313-0.813 0.25-0.25 0.5-0.375 0.813-0.375s0.563 0.125 0.813 0.375l9.688 9.688c0.25 0.25 0.375 0.5 0.375 0.813zM29.688 9.688v12.625c0 1.375-0.5 2.625-1.5 3.625s-2.188 1.5-3.625 1.5h-5.688c-0.188 0-0.313-0.063-0.438-0.188s-0.125-0.25-0.125-0.375c0-0.063-0.063-0.188-0.063-0.375s0-0.375 0-0.5c0-0.125 0.063-0.25 0.063-0.375 0-0.188 0.063-0.313 0.188-0.375 0.063-0.063 0.188-0.125 0.375-0.125h5.688c0.813 0 1.438-0.25 2-0.813s0.875-1.25 0.875-2v-12.625c0-0.75-0.313-1.438-0.875-2s-1.188-0.813-2-0.813h-5.563l-0.188-0.063h-0.25l-0.125-0.125-0.125-0.188v-0.188c0-0.063-0.063-0.188-0.063-0.375s0-0.375 0-0.5c0-0.125 0.063-0.25 0.063-0.375 0-0.188 0.063-0.313 0.188-0.375 0.063-0.063 0.188-0.125 0.375-0.125h5.688c1.438 0 2.625 0.5 3.625 1.5s1.5 2.25 1.5 3.625z"></path>
</svg>