<svg version="1.1" xmlns="http://www.w3.org/2000/svg" width="32" height="32" viewBox="0 0 32 32">
<title>logout</title>
<path d="M12.563 25.688c0 0.063 0 0.188 0 0.375 0.063 0.188 0.063 0.375 0.063 0.5-0.063 0.125-0.063 0.25-0.063 0.375-0.063 0.188-0.125 0.313-0.188 0.375-0.125 0.063-0.25 0.125-0.375 0.125h-5.688c-1.438 0-2.625-0.5-3.688-1.5-1-1-1.5-2.25-1.5-3.625v-12.625c0-1.375 0.5-2.625 1.5-3.625 1.063-1 2.25-1.5 3.688-1.5h5.688c0.125 0 0.313 0.063 0.375 0.188 0.125 0.125 0.188 0.25 0.188 0.375 0 0.063 0 0.188 0 0.375 0.063 0.188 0.063 0.375 0.063 0.5-0.063 0.125-0.063 0.25-0.063 0.375-0.063 0.188-0.125 0.313-0.188 0.375-0.125 0.063-0.25 0.125-0.375 0.125h-5.688c-0.813 0-1.5 0.25-2.063 0.813s-0.813 1.25-0.813 2v12.625c0 0.75 0.25 1.438 0.813 2s1.25 0.813 2.063 0.813h5.563c0 0 0.063 0 0.188 0.063 0.125 0 0.188 0 0.188 0 0 0.063 0.063 0.063 0.188 0.125 0.063 0.063 0.125 0.125 0.125 0.188-0.063 0.063 0 0.125 0 0.188zM29.125 16c0 0.313-0.125 0.563-0.313 0.813l-9.75 9.688c-0.188 0.25-0.438 0.375-0.75 0.375s-0.625-0.125-0.813-0.375c-0.25-0.188-0.375-0.5-0.375-0.813v-5.125h-8c-0.313 0-0.563-0.125-0.813-0.313-0.188-0.25-0.313-0.5-0.313-0.813v-6.875c0-0.313 0.125-0.563 0.313-0.813 0.25-0.188 0.5-0.313 0.813-0.313h8v-5.125c0-0.313 0.125-0.625 0.375-0.813 0.188-0.25 0.5-0.375 0.813-0.375s0.563 0.125 0.75 0.375l9.75 9.688c0.188 0.25 0.313 0.5 0.313 0.813z"></path>
</svg>