<svg version="1.1" xmlns="http://www.w3.org/2000/svg" width="32" height="32" viewBox="0 0 32 32">
<title>loud-hailer</title>
<path d="M32 13.438c0-6.313-1.813-11.375-4.125-11.438 0 0 0.063 0 0.063 0h-2.625c0 0-6.063 4.563-14.813 6.375-0.313 1.438-0.438 3.125-0.438 5.063s0.125 3.625 0.438 5c8.75 1.813 14.813 6.375 14.813 6.375h2.625c0 0-0.063 0-0.063 0 2.313 0 4.125-5.125 4.125-11.375zM27 23.125c-0.25 0-0.563-0.313-0.75-0.5-0.375-0.438-0.75-1.125-1.125-2-0.688-1.875-1.125-4.438-1.125-7.188s0.438-5.313 1.125-7.25c0.375-0.875 0.75-1.563 1.125-2 0.188-0.188 0.5-0.438 0.75-0.438 0.313 0 0.625 0.25 0.813 0.438 0.375 0.438 0.75 1.125 1.063 2 0.75 1.938 1.125 4.5 1.125 7.25s-0.375 5.313-1.125 7.188c-0.313 0.875-0.688 1.563-1.063 2-0.188 0.188-0.5 0.5-0.813 0.5zM7.875 13.438c0-1.625 0.125-3.25 0.313-4.688-1.438 0.188-2.75 0.313-4.375 0.313-2.063 0-2.063 0-2.063 0l-1.75 3v2.75l1.75 2.938c0 0 0 0 2.063 0 1.625 0 2.938 0.125 4.375 0.313-0.188-1.438-0.313-3-0.313-4.625zM11.5 20.063l-4-0.75 2.563 10.063c0.125 0.5 0.625 0.75 1.125 0.563l3.75-1.5c0.5-0.188 0.688-0.75 0.438-1.188zM27 17.125c-0.063 0-0.188-0.125-0.25-0.188-0.188-0.125-0.313-0.438-0.438-0.75-0.313-0.75-0.438-1.688-0.438-2.75s0.125-2.063 0.438-2.813c0.125-0.313 0.25-0.563 0.438-0.75 0.063-0.063 0.188-0.188 0.25-0.188 0.125 0 0.25 0.125 0.313 0.188 0.188 0.188 0.313 0.438 0.438 0.75 0.25 0.75 0.438 1.75 0.438 2.813s-0.188 2-0.438 2.75c-0.125 0.313-0.25 0.625-0.438 0.75-0.063 0.063-0.188 0.188-0.313 0.188z"></path>
</svg>