<svg version="1.1" xmlns="http://www.w3.org/2000/svg" width="32" height="32" viewBox="0 0 32 32">
<title>low-vision</title>
<path d="M31.625 14.625c-3.125-5.313-9-8.875-15.625-8.875-1.563 0-3.125 0.25-4.563 0.625l-2.938-4c-0.438-0.625-1.25-0.75-1.875-0.375l-0.75 0.5c-0.563 0.438-0.75 1.313-0.313 1.875l2.438 3.25c-3 1.5-5.75 3.875-7.625 7-0.5 0.875-0.5 1.875 0 2.75 2.125 3.625 5.563 6.438 9.625 7.813l-6.938-9.813c0.5-0.75 1-1.375 1.563-2l6.625 9.438 2.313 3.25c1.438 0.188 2.875 0.188 4.375 0.063l-10.563-15.063c0.688-0.5 1.375-0.875 2.125-1.188l14 19.75c0.438 0.625 1.25 0.75 1.875 0.375l0.75-0.5c0.563-0.438 0.75-1.313 0.313-1.875l-2.438-3.25c3.188-1.563 5.875-4 7.625-7 0.5-0.875 0.5-1.875 0-2.75zM21.688 21l-1.063-1.5c1.375-1.813 1.5-4.25 0.5-6.25 0 1.375-1.063 2.438-2.375 2.438-1.375 0-2.438-1.125-2.438-2.438s1.063-2.375 2.438-2.375c-1.375-0.688-3-0.813-4.438-0.375l-1.063-1.563c0.875-0.313 1.75-0.5 2.75-0.5 4.188 0 7.563 3.375 7.563 7.563 0 1.938-0.75 3.688-1.875 5z"></path>
</svg>