<svg version="1.1" xmlns="http://www.w3.org/2000/svg" width="32" height="32" viewBox="0 0 32 32">
<title>luggage</title>
<path d="M11.188 19.188h1.625v-11.188h-1.625c-0.875 0-1.563 0.688-1.563 1.625v8c0 0.875 0.688 1.563 1.563 1.563zM28.813 17.625v-8c0-0.938-0.75-1.625-1.625-1.625h-1.563v11.188h1.563c0.875 0 1.625-0.688 1.625-1.563zM31.188 22.375h-24.813v-18.375c0-0.438-0.313-0.813-0.75-0.813h-4.813c-0.438 0-0.813 0.375-0.813 0.813v1.625c0 0.438 0.375 0.75 0.813 0.75h2.375v18.438c0 0.438 0.375 0.813 0.813 0.813h4.125c-0.063 0.25-0.125 0.5-0.125 0.75 0 1.375 1.063 2.438 2.375 2.438 1.375 0 2.438-1.063 2.438-2.438 0-0.25-0.063-0.5-0.188-0.75h9.938c-0.125 0.25-0.188 0.5-0.188 0.75 0 1.375 1.125 2.438 2.438 2.438s2.375-1.063 2.375-2.438c0-0.25-0.063-0.5-0.125-0.75h4.125c0.438 0 0.813-0.375 0.813-0.813v-1.625c0-0.438-0.375-0.813-0.813-0.813zM24 8v-2.375c0-1.375-1.063-2.438-2.375-2.438h-4.813c-1.313 0-2.438 1.063-2.438 2.438v13.563h9.625zM21.625 8h-4.813v-2.375h4.813z"></path>
</svg>