<svg version="1.1" xmlns="http://www.w3.org/2000/svg" width="32" height="32" viewBox="0 0 32 32">
<title>map</title>
<path d="M30.438 4.063l-9-4c-0.125-0.063-0.313-0.063-0.438-0.063s-0.25 0-0.375 0.063l-9.625 3.875-8.563-3.875c-0.125-0.063-0.313-0.063-0.438-0.063-0.438 0-0.875 0.125-1.25 0.438-0.5 0.375-0.75 0.938-0.75 1.563v24c0 0.938 0.625 1.75 1.563 1.938l8.938 4c0.188 0.063 0.313 0.063 0.438 0.063s0.313 0 0.438-0.063l9.625-3.875 8.563 3.875c0.125 0.063 0.313 0.063 0.438 0.063 0.438 0 0.875-0.125 1.25-0.438 0.5-0.375 0.75-0.938 0.75-1.563v-24c0-0.938-0.625-1.75-1.563-1.938zM12 5.563l8-3.188v24l-8 3.188zM2 2l8 3.563v24l-8-3.563zM30 30l-8-3.563v-24l8 3.563z"></path>
</svg>