<svg version="1.1" xmlns="http://www.w3.org/2000/svg" width="32" height="32" viewBox="0 0 32 32">
<title>medium</title>
<path d="M4.5 8.875c0-0.375-0.125-0.688-0.438-0.938l-2.813-3.438v-0.5h8.813l6.75 14.875 5.938-14.875h8.375v0.5l-2.438 2.313c-0.188 0.188-0.313 0.438-0.25 0.688v17c-0.063 0.25 0.063 0.5 0.25 0.688l2.375 2.313v0.5h-11.875v-0.5l2.438-2.375c0.25-0.25 0.25-0.313 0.25-0.688v-13.75l-6.75 17.25h-0.938l-7.938-17.25v11.563c-0.063 0.5 0.125 1 0.438 1.313l3.188 3.875v0.5h-9v-0.5l3.188-3.875c0.313-0.313 0.5-0.813 0.438-1.313z"></path>
</svg>