<svg version="1.1" xmlns="http://www.w3.org/2000/svg" width="32" height="32" viewBox="0 0 32 32">
<title>meetup</title>
<path d="M6.188 25.875c0.063 0.375-0.125 0.688-0.5 0.813-0.313 0.063-0.688-0.188-0.75-0.5-0.063-0.375 0.125-0.688 0.5-0.813 0.313-0.063 0.688 0.188 0.75 0.5zM15.125 30.375c-0.375 0.25-0.5 0.813-0.25 1.25 0.313 0.375 0.875 0.5 1.25 0.188 0.438-0.25 0.5-0.813 0.25-1.25-0.25-0.375-0.813-0.5-1.25-0.188zM9.75 1.438c0.375-0.063 0.625-0.438 0.563-0.875-0.063-0.375-0.438-0.625-0.875-0.563-0.375 0.125-0.625 0.5-0.563 0.875 0.125 0.438 0.5 0.688 0.875 0.563zM2.125 14.125c-0.625-0.438-1.438-0.25-1.875 0.375s-0.313 1.5 0.375 1.938c0.625 0.438 1.438 0.313 1.875-0.313 0.438-0.688 0.25-1.563-0.375-2zM19.125 3.438c0.688-0.375 0.875-1.25 0.5-1.875s-1.25-0.875-1.875-0.5c-0.625 0.438-0.875 1.25-0.438 1.938 0.375 0.625 1.188 0.875 1.813 0.438zM7.188 7.063c0.5-0.313 0.625-1 0.313-1.438-0.313-0.5-1-0.625-1.438-0.313-0.5 0.375-0.625 1-0.313 1.5s1 0.625 1.438 0.25zM30.5 16.813c-0.5 0.125-0.813 0.625-0.688 1.063 0.063 0.5 0.563 0.813 1 0.688 0.5-0.063 0.813-0.563 0.688-1.063-0.125-0.438-0.563-0.75-1-0.688zM32.938 13.313c-0.063-0.375-0.375-0.563-0.75-0.5-0.313 0.063-0.563 0.438-0.5 0.75 0.063 0.375 0.438 0.563 0.813 0.5 0.313-0.063 0.563-0.438 0.438-0.75zM27.938 8.688c-0.563 0.375-0.688 1.125-0.313 1.625 0.375 0.563 1.125 0.688 1.625 0.313s0.625-1.125 0.313-1.625c-0.375-0.563-1.125-0.688-1.625-0.313zM27.563 17.375c1.625 2.688 0.938 6.25-1.688 8.063-1.063 0.813-2.313 1.125-3.5 1.125-0.75 2.938-4.375 4-6.625 2-0.063 0.063-0.125 0.125-0.188 0.188-2.438 1.688-5.813 1.063-7.5-1.375-0.563-0.938-0.875-1.938-0.938-2.938-4.063-0.688-5.625-5.875-2.563-8.75-1.75-2.938 0.063-6.688 3.375-7.188 1.563-4.125 6.688-6.063 10.188-3.375 4.25-1.375 8.5 1.813 8.188 6.313 2.563 0.813 3.313 4.188 1.25 5.938zM23.188 22.063c-0.188-1.313-2.563-0.313-2.688-1.688-0.188-2 2.688-6.375 2.5-8-0.25-1.5-1.25-1.875-2.125-1.875-0.813 0-1.063 0.125-1.313 0.313-0.188 0.063-0.438 0.313-0.75-0.063-0.375-0.375-0.688-0.688-1.188-0.75-0.813-0.125-1.125 0.125-1.688 0.563-0.188 0.188-0.75 0.813-1.25 0.563-0.188-0.063-0.938-0.438-1.5-0.688-1-0.438-2.5 0.313-3 1.25-0.813 1.438-2.375 7.063-2.625 7.813-0.563 1.688 0.688 3.063 2.313 2.938 0.688 0 1.125-0.25 1.563-1.063 0.25-0.5 2.625-6.75 2.813-7.063 0.125-0.188 0.563-0.5 0.875-0.313 0.375 0.188 0.438 0.563 0.375 0.938-0.063 0.625-1.75 4.438-1.813 4.875-0.188 1.438 1.688 1.625 2.438 0.25 0.25-0.438 2.875-5.813 3.063-6.125 0.313-0.438 0.5-0.563 0.75-0.5 0.188 0 0.5 0 0.438 0.625s-2.188 4.563-2.438 5.5c-0.25 1.313 0.438 2.625 1.563 3.188 0.75 0.313 3.938 0.938 3.688-0.688zM23.5 27.813c-0.625 0.438-0.75 1.375-0.313 2.063 0.438 0.625 1.313 0.813 2 0.375 0.625-0.5 0.813-1.375 0.375-2.063-0.5-0.688-1.375-0.875-2.063-0.375z"></path>
</svg>