<svg version="1.1" xmlns="http://www.w3.org/2000/svg" width="32" height="32" viewBox="0 0 32 32">
<title>messenger</title>
<path d="M16.063 0.5c-8.75 0-15.563 6.375-15.563 15.063 0 4.5 1.875 8.375 4.875 11.125 0.5 0.438 0.438 0.688 0.5 3.625 0 0.375 0.25 0.75 0.563 1 0.375 0.188 0.813 0.25 1.188 0.063 3.313-1.438 3.375-1.563 3.938-1.375 9.563 2.625 19.938-3.5 19.938-14.438 0-8.688-6.688-15.063-15.438-15.063zM25.375 12.063l-4.563 7.25c-0.375 0.5-0.938 0.938-1.563 1-0.625 0.125-1.313 0-1.813-0.375l-3.625-2.75c-0.375-0.25-0.813-0.25-1.125 0l-4.938 3.75c-0.625 0.5-1.5-0.313-1.063-1l4.563-7.25c0.375-0.5 0.938-0.875 1.563-1s1.313 0 1.813 0.375l3.625 2.75c0.375 0.25 0.813 0.25 1.125 0l4.938-3.688c0.625-0.5 1.5 0.25 1.063 0.938z"></path>
</svg>