<svg version="1.1" xmlns="http://www.w3.org/2000/svg" width="32" height="32" viewBox="0 0 32 32">
<title>monument</title>
<path d="M31.375 5.75l-14.688-5.625c-0.438-0.188-0.938-0.188-1.375 0l-14.688 5.625c-0.375 0.125-0.625 0.5-0.625 0.938v2.313c0 0.563 0.438 1 1 1h30c0.563 0 1-0.438 1-1v-2.313c0-0.438-0.25-0.813-0.625-0.938zM4 12v10h-1c-0.563 0-1 0.438-1 1v3h28v-3c0-0.563-0.438-1-1-1h-1v-10h-4v10h-6v-10h-4v10h-6v-10zM31 28h-30c-0.563 0-1 0.438-1 1v2c0 0.563 0.438 1 1 1h30c0.563 0 1-0.438 1-1v-2c0-0.563-0.438-1-1-1z"></path>
</svg>