<svg version="1.1" xmlns="http://www.w3.org/2000/svg" width="32" height="32" viewBox="0 0 32 32">
<title>moon</title>
<path d="M24.813 23.25c-0.625 0.125-1.313 0.188-1.938 0.188-2.188 0-4.188-0.563-6.063-1.625-1.813-1.063-3.25-2.5-4.375-4.375-1.063-1.813-1.563-3.813-1.563-6 0-2.313 0.625-4.438 1.813-6.375-2.375 0.688-4.313 2.063-5.813 4.063-1.563 2-2.313 4.313-2.313 6.875 0 1.563 0.313 3 0.938 4.438 0.563 1.438 1.375 2.625 2.438 3.625 1 1.063 2.188 1.875 3.625 2.438 1.438 0.625 2.875 0.938 4.438 0.938 1.688 0 3.313-0.375 4.875-1.125 1.563-0.688 2.875-1.75 3.938-3.063zM28.438 21.75c-1.125 2.438-2.813 4.375-5.063 5.813s-4.688 2.125-7.375 2.125c-1.875 0-3.625-0.313-5.313-1.063s-3.188-1.688-4.375-2.938c-1.25-1.188-2.188-2.688-2.938-4.375s-1.063-3.438-1.063-5.313c0-1.813 0.313-3.563 1-5.25 0.688-1.625 1.625-3.063 2.813-4.313 1.125-1.188 2.563-2.188 4.188-2.938 1.625-0.688 3.375-1.125 5.188-1.188 0.5-0.063 0.875 0.188 1.063 0.688 0.25 0.5 0.125 0.938-0.25 1.313-1.063 0.875-1.813 2-2.375 3.188-0.5 1.25-0.813 2.563-0.813 3.938 0 1.75 0.438 3.375 1.313 4.875s2.063 2.688 3.563 3.5c1.5 0.875 3.125 1.313 4.875 1.313 1.375 0 2.75-0.313 4.063-0.875 0.5-0.25 0.938-0.125 1.25 0.188 0.188 0.188 0.313 0.375 0.313 0.625 0.063 0.25 0.063 0.5-0.063 0.688z"></path>
</svg>