<svg version="1.1" xmlns="http://www.w3.org/2000/svg" width="32" height="32" viewBox="0 0 32 32">
<title>music</title>
<path d="M0.813 30.438c1.5 1.938 4.563 2.063 6.875 0.313 0.938-0.75 1.625-1.688 1.938-2.625 0.25-0.438 0.375-1 0.375-1.688v-14.938l18-3.438v7.938c0 2.75-2.125 3.438-2.875 3.563-0.063 0-0.125 0-0.188 0s-0.125 0.063-0.125 0.063h0.063c-0.938 0.125-1.813 0.5-2.625 1.125-2.313 1.813-3 4.813-1.5 6.75s4.625 2.063 6.938 0.313c1.125-0.938 1.875-2.125 2.188-3.375 0.063-0.313 0.125-0.625 0.125-1v-19.438c0-0.125 0-0.188-0.063-0.313 0.063-0.063 0.063-0.125 0.063-0.188v-2c0-1.125-0.875-1.75-2-1.438l-18 3.438c-1.125 0.313-2 1.5-2 2.625v2c0 0 0 0 0 0.063s0 0.125 0 0.188v10.563c0 2.813-2.125 3.438-2.875 3.563-0.063 0-0.063 0-0.125 0-0.125 0.063-0.188 0.063-0.188 0.063h0.063c-0.875 0.188-1.813 0.563-2.563 1.125-2.375 1.813-3 4.813-1.5 6.75z"></path>
</svg>