<svg version="1.1" xmlns="http://www.w3.org/2000/svg" width="32" height="32" viewBox="0 0 32 32">
<title>padlock-closed</title>
<path d="M16 0c-5.5 0-10 4.563-10 10.125v1.875h-2c-1.125 0-2 0.875-2 2v16c0 1.125 0.875 2 2 2h24c1.125 0 2-0.875 2-2v-16c0-1.125-0.875-2-2-2h-2v-1.875c0-5.563-4.5-10.125-10-10.125zM8 10.125c0-4.438 3.563-8.125 8-8.125s8 3.688 8 8.125v1.875h-16zM28 30h-24v-16h24zM20 22c0-2.188-1.813-4-4-4s-4 1.813-4 4c0 2.188 1.813 4 4 4s4-1.813 4-4zM16 24c-1.125 0-2-0.875-2-2s0.875-2 2-2c1.125 0 2 0.875 2 2s-0.875 2-2 2z"></path>
</svg>