<svg version="1.1" xmlns="http://www.w3.org/2000/svg" width="32" height="32" viewBox="0 0 32 32">
<title>padlock-open</title>
<path d="M30 30v-16c0-1.125-0.875-2-2-2h-20v-0.875c0-5.375 3.313-9.125 8.125-9.125 3.438 0 6.563 2 8.063 5.25 0.25 0.5 0.875 0.688 1.375 0.438 0.5-0.188 0.688-0.813 0.438-1.313-1.813-3.938-5.625-6.375-9.875-6.375-5.875 0-10.125 4.688-10.125 11.125v0.875h-2c-1.125 0-2 0.875-2 2v16c0 1.125 0.875 2 2 2h24c1.125 0 2-0.875 2-2zM4 14h24v16h-24zM16 18c-2.188 0-4 1.813-4 4s1.813 4 4 4c2.188 0 4-1.813 4-4s-1.813-4-4-4zM16 24c-1.125 0-2-0.875-2-2s0.875-2 2-2c1.125 0 2 0.875 2 2s-0.875 2-2 2z"></path>
</svg>