<svg version="1.1" xmlns="http://www.w3.org/2000/svg" width="32" height="32" viewBox="0 0 32 32">
<title>page</title>
<path d="M4 32h24c1.125 0 2-0.875 2-2v-28c0-1.125-0.875-2-2-2h-24c-1.125 0-2 0.875-2 2v28c0 1.125 0.875 2 2 2zM4 2h24v28h-24zM23 6h-8c-0.563 0-1 0.438-1 1s0.438 1 1 1h8c0.563 0 1-0.438 1-1s-0.438-1-1-1zM23 12h-14c-0.563 0-1 0.438-1 1s0.438 1 1 1h14c0.563 0 1-0.438 1-1s-0.438-1-1-1zM23 18h-14c-0.563 0-1 0.438-1 1s0.438 1 1 1h14c0.563 0 1-0.438 1-1s-0.438-1-1-1zM23 24h-14c-0.563 0-1 0.438-1 1s0.438 1 1 1h14c0.563 0 1-0.438 1-1s-0.438-1-1-1z"></path>
</svg>