<svg version="1.1" xmlns="http://www.w3.org/2000/svg" width="32" height="32" viewBox="0 0 32 32">
<title>pages</title>
<path d="M4 28h2v2c0 1.125 0.875 2 2 2h20c1.125 0 2-0.875 2-2v-24c0-1.125-0.875-2-2-2h-2v-2c0-1.125-0.875-2-2-2h-20c-1.125 0-2 0.875-2 2v24c0 1.125 0.875 2 2 2zM24 26h-20v-24h20zM28 6v24h-20v-2h16c1.125 0 2-0.875 2-2v-20zM10 7c0 0.563 0.438 1 1 1h10c0.563 0 1-0.438 1-1s-0.438-1-1-1h-10c-0.563 0-1 0.438-1 1zM7 14h14c0.563 0 1-0.438 1-1s-0.438-1-1-1h-14c-0.563 0-1 0.438-1 1s0.438 1 1 1zM7 18h14c0.563 0 1-0.438 1-1s-0.438-1-1-1h-14c-0.563 0-1 0.438-1 1s0.438 1 1 1zM7 22h14c0.563 0 1-0.438 1-1s-0.438-1-1-1h-14c-0.563 0-1 0.438-1 1s0.438 1 1 1z"></path>
</svg>