<svg version="1.1" xmlns="http://www.w3.org/2000/svg" width="32" height="32" viewBox="0 0 32 32">
<title>paw</title>
<path d="M15.063 8.438c0 0.688-0.125 1.375-0.313 2-0.25 0.625-0.625 1.188-1.125 1.688-0.563 0.438-1.188 0.688-1.875 0.688-0.938 0-1.75-0.375-2.5-1.063s-1.25-1.438-1.625-2.375c-0.375-0.938-0.563-1.875-0.563-2.688 0-0.75 0.125-1.438 0.375-2.063 0.188-0.625 0.563-1.188 1.125-1.625 0.5-0.5 1.125-0.688 1.875-0.688 0.938 0 1.75 0.313 2.438 1 0.75 0.688 1.313 1.5 1.688 2.438 0.313 0.875 0.5 1.813 0.5 2.688zM8.938 17.063c0 0.938-0.25 1.75-0.75 2.5-0.5 0.688-1.188 1-2.125 1-0.875 0-1.75-0.313-2.5-0.938-0.75-0.688-1.375-1.5-1.813-2.438-0.375-0.875-0.625-1.813-0.625-2.688 0-0.938 0.25-1.813 0.75-2.5s1.25-1.063 2.125-1.063c0.938 0 1.75 0.313 2.563 1 0.75 0.688 1.375 1.438 1.75 2.375 0.438 0.938 0.625 1.875 0.625 2.75zM16 16.563c1.375 0 2.938 0.563 4.563 1.75s3 2.563 4.063 4.25c1.125 1.625 1.688 3.188 1.688 4.5 0 0.563-0.125 1-0.313 1.375-0.25 0.375-0.5 0.625-0.875 0.813s-0.75 0.313-1.188 0.375c-0.375 0.063-0.813 0.063-1.313 0.063-0.813 0-1.938-0.25-3.375-0.75-1.438-0.563-2.5-0.813-3.25-0.813-0.813 0-1.938 0.25-3.438 0.75-1.5 0.563-2.688 0.813-3.563 0.813-2.188 0-3.313-0.875-3.313-2.625 0-1 0.375-2.125 1-3.375 0.688-1.25 1.5-2.438 2.5-3.438 1-1.063 2.125-1.938 3.375-2.625s2.375-1.063 3.438-1.063zM20.25 12.813c-0.688 0-1.313-0.25-1.875-0.688-0.5-0.5-0.875-1.063-1.125-1.688-0.188-0.625-0.313-1.313-0.313-2 0-0.875 0.188-1.813 0.5-2.688 0.375-0.938 0.938-1.75 1.688-2.438 0.688-0.688 1.5-1 2.438-1 0.75 0 1.375 0.188 1.875 0.688 0.563 0.438 0.938 1 1.125 1.625 0.25 0.625 0.375 1.313 0.375 2.063 0 0.813-0.188 1.75-0.563 2.688s-0.875 1.688-1.625 2.375c-0.75 0.688-1.563 1.063-2.5 1.063zM28 10.938c0.875 0 1.625 0.375 2.125 1.063s0.75 1.563 0.75 2.5c0 0.875-0.25 1.813-0.625 2.688-0.438 0.938-1.063 1.75-1.813 2.438-0.75 0.625-1.625 0.938-2.5 0.938-0.938 0-1.625-0.313-2.125-1-0.5-0.75-0.75-1.563-0.75-2.5 0-0.875 0.188-1.813 0.625-2.75 0.375-0.938 1-1.688 1.75-2.375 0.813-0.688 1.625-1 2.563-1z"></path>
</svg>