<svg version="1.1" xmlns="http://www.w3.org/2000/svg" width="32" height="32" viewBox="0 0 32 32">
<title>paypal</title>
<path d="M29.438 11.563c0.188 1 0.188 2.188-0.125 3.625-1 5.25-4.375 7.938-10.063 7.938h-0.813c-0.25 0-0.563 0.063-0.75 0.25-0.25 0.25-0.375 0.5-0.438 0.813l-0.063 0.313-1 6.188v0.25c-0.063 0.313-0.25 0.563-0.438 0.75-0.25 0.188-0.5 0.313-0.813 0.313h-4.5c-0.25 0-0.438-0.063-0.563-0.25-0.188-0.188-0.188-0.438-0.188-0.688 0.125-0.625 0.25-1.625 0.5-3 0.188-1.313 0.375-2.313 0.438-3 0.125-0.625 0.313-1.625 0.5-2.938 0.188-1.375 0.375-2.375 0.5-3 0.063-0.438 0.313-0.688 0.75-0.688h2.313c1.625 0.063 3-0.063 4.25-0.375 2.063-0.438 3.813-1.313 5.125-2.563 1.188-1.125 2.125-2.625 2.75-4.375 0.313-0.875 0.5-1.625 0.625-2.375 0-0.063 0.063-0.125 0.063-0.125 0-0.063 0-0.063 0.063-0.063 0 0 0.063 0.063 0.125 0.063 0.938 0.75 1.5 1.688 1.75 2.938zM26.313 6.5c0 1.25-0.25 2.688-0.813 4.188-0.938 2.813-2.75 4.688-5.375 5.625-1.375 0.5-2.875 0.75-4.5 0.75 0 0.063-0.563 0.063-1.625 0.063l-1.563-0.063c-1.188 0-1.938 0.625-2.125 1.75-0.063 0.063-0.563 3.25-1.5 9.438-0.063 0.125-0.125 0.188-0.25 0.188h-5.25c-0.25 0-0.5-0.063-0.688-0.313-0.125-0.188-0.188-0.375-0.188-0.688l4.125-26.25c0.063-0.313 0.25-0.625 0.5-0.875 0.313-0.188 0.563-0.313 0.938-0.313h10.688c0.375 0 1 0.063 1.75 0.25 0.75 0.125 1.375 0.313 2 0.563 1.25 0.5 2.25 1.188 2.875 2.188 0.688 1 1 2.125 1 3.5z"></path>
</svg>