<svg version="1.1" xmlns="http://www.w3.org/2000/svg" width="32" height="32" viewBox="0 0 32 32">
<title>phone</title>
<path d="M24.625 31.5c-0.313 0-0.625-0.063-0.875-0.125-5.75-1.188-10.813-3.938-14.75-7.75-3.875-3.813-6.75-8.75-8-14.25v-0.188c-0.063-0.25-0.125-0.563-0.125-0.813 0-1.188 0.5-2.25 1.313-3l3.563-3.438c0.313-0.313 0.75-0.438 1.188-0.438 0.063 0 0.125 0 0.188 0 0.5 0.063 1 0.313 1.25 0.75l4.5 6.563c0.125 0.25 0.188 0.5 0.188 0.813s-0.125 0.625-0.313 0.875l-2.25 2.688c0.938 2 2.188 3.75 3.688 5.188l0.063 0.063c1.5 1.5 3.25 2.688 5.25 3.563l0.125 0.063 2.75-2.188c0.25-0.25 0.563-0.313 0.938-0.313 0.25 0 0.5 0.063 0.75 0.188l6.688 4.313c0.5 0.313 0.875 0.875 0.875 1.563 0 0.438-0.188 0.875-0.5 1.25l-3.5 3.375c-0.75 0.813-1.813 1.25-2.938 1.25 0 0-0.063 0-0.063 0zM7 3.25l-3.563 3.438c-0.438 0.375-0.75 1-0.75 1.625 0 0.188 0 0.313 0.063 0.5 1.188 5.313 3.813 9.938 7.5 13.563 3.688 3.563 8.438 6.125 13.688 7.25l0.188 0.063c0.125 0 0.313 0.063 0.5 0.063 0.688 0 1.25-0.313 1.75-0.75l3.438-3.438-6.5-4.188-2.938 2.375c-0.188 0.125-0.375 0.188-0.563 0.188-0.125 0-0.188 0-0.25 0-2.563-1-4.75-2.438-6.563-4.25-1.875-1.75-3.313-3.875-4.313-6.25v-0.125c-0.063-0.063-0.063-0.188-0.063-0.25 0-0.25 0.125-0.438 0.25-0.625l2.438-2.875z"></path>
</svg>