<svg version="1.1" xmlns="http://www.w3.org/2000/svg" width="32" height="32" viewBox="0 0 32 32">
<title>pin</title>
<path d="M8.688 17.75c-0.438 0.5-0.563 1.188-0.438 1.813s0.563 1.125 1.188 1.375c1.375 0.625 3.813 1 6.563 1.063v6c0 1.125 0.438 4 1 4s1-2.875 1-4v-6c2.75-0.063 5.188-0.438 6.563-1.063 0.625-0.25 1.063-0.75 1.188-1.375s0-1.313-0.438-1.813c-0.813-0.938-2.25-1.438-3.313-1.688v-10.375c1.063-0.313 1.938-0.813 2.625-1.313 0.625-0.438 0.938-1.188 0.813-1.938-0.125-0.688-0.625-1.313-1.375-1.563-0.938-0.313-3.188-0.875-7.063-0.875-4.125 0-6.375 0.625-7.188 0.875-0.688 0.25-1.188 0.875-1.313 1.625-0.125 0.688 0.188 1.438 0.813 1.875 0.688 0.563 1.625 1 2.688 1.375v10.313c-1.063 0.25-2.5 0.75-3.313 1.688zM12.625 3.813c-1.063-0.313-1.75-0.688-2.125-1 1.063-0.375 3.188-0.813 6.5-0.813 3.25 0 5.375 0.438 6.438 0.75-0.438 0.313-1.063 0.688-2.063 1.063l-1.375 0.438v13.375l1.5 0.375c1.125 0.25 1.938 0.688 2.313 1.125-0.938 0.375-3.188 0.875-6.813 0.875s-5.875-0.5-6.813-0.875c0.375-0.438 1.188-0.875 2.313-1.125l1.5-0.375v-13.313z"></path>
</svg>