<svg version="1.1" xmlns="http://www.w3.org/2000/svg" width="32" height="32" viewBox="0 0 32 32">
<title>pinterest</title>
<path d="M32 16c0 2.938-0.688 5.625-2.125 8.063s-3.375 4.375-5.813 5.813c-2.438 1.438-5.125 2.125-8.063 2.125-1.563 0-3.063-0.25-4.5-0.688 0.75-1.188 1.313-2.375 1.563-3.375 0.188-0.438 0.5-1.938 1.125-4.438 0.25 0.625 0.813 1.063 1.5 1.438 0.75 0.438 1.563 0.625 2.438 0.625 1.688 0 3.125-0.5 4.5-1.438 1.313-0.938 2.375-2.25 3.063-3.938s1.063-3.5 1.063-5.625c0-1.625-0.375-3.063-1.25-4.5-0.813-1.375-2-2.563-3.563-3.438s-3.375-1.313-5.375-1.313c-1.438 0-2.75 0.25-4.063 0.688-1.25 0.375-2.375 0.875-3.25 1.625-0.875 0.625-1.563 1.375-2.25 2.25-0.625 0.875-1.063 1.75-1.375 2.688s-0.438 1.875-0.438 2.75c0 1.5 0.313 2.813 0.813 3.875 0.563 1.125 1.375 1.875 2.5 2.313 0.313 0.188 0.625 0.063 0.688-0.375 0.063-0.125 0.188-0.375 0.25-0.688 0.063-0.375 0.125-0.563 0.125-0.625 0.063-0.313 0-0.625-0.188-0.875-0.75-0.875-1.125-1.938-1.125-3.188 0-2.063 0.75-3.938 2.188-5.375 1.5-1.563 3.375-2.25 5.688-2.25 2.125 0 3.75 0.563 5 1.688 1.125 1.125 1.75 2.625 1.75 4.438 0 2.313-0.5 4.375-1.5 6.063-0.938 1.625-2.188 2.5-3.625 2.5-0.875 0-1.563-0.375-2.063-1-0.5-0.563-0.625-1.313-0.5-2.188 0.125-0.438 0.313-1.063 0.563-1.875 0.313-0.875 0.438-1.563 0.688-2.188 0.125-0.563 0.188-1.188 0.188-1.563 0-0.688-0.188-1.313-0.563-1.75s-0.875-0.688-1.625-0.688c-0.875 0-1.563 0.438-2.188 1.25-0.563 0.75-0.875 1.75-0.875 2.875 0 1.063 0.188 1.938 0.5 2.563l-2 8.75c-0.313 1-0.375 2.25-0.313 3.688-2.875-1.25-5.188-3.25-6.938-5.875s-2.625-5.625-2.625-8.813c0-2.938 0.625-5.625 2.125-8.063 1.438-2.438 3.375-4.375 5.813-5.813s5.125-2.125 8.063-2.125c2.938 0 5.625 0.688 8.063 2.125s4.375 3.375 5.813 5.813c1.438 2.438 2.125 5.125 2.125 8.063z"></path>
</svg>