<svg version="1.1" xmlns="http://www.w3.org/2000/svg" width="32" height="32" viewBox="0 0 32 32">
<title>placemarker</title>
<path d="M15.188 16.438c2.875 0 5.25-2.375 5.25-5.25s-2.375-5.188-5.25-5.188c-2.875 0-5.188 2.313-5.188 5.188s2.313 5.25 5.188 5.25zM15.188 8c1.813 0 3.25 1.438 3.25 3.188 0 1.813-1.438 3.25-3.25 3.25-1.75 0-3.188-1.438-3.188-3.25 0-1.75 1.438-3.188 3.188-3.188zM14.5 31.438c0.125 0.188 0.313 0.313 0.5 0.438 0.063 0.063 0.188 0.063 0.313 0.063 0.063 0 0.188 0 0.313-0.063 0.125-0.125 0.313-0.25 0.5-0.438 0 0 9.25-10.063 10.188-18.875 0.063-0.438 0.125-0.875 0.125-1.375 0-6.188-5.063-11.188-11.25-11.188s-11.188 5-11.188 11.188c0 0.5 0.063 0.938 0.125 1.438 0.938 8.75 10.375 18.813 10.375 18.813zM15.188 2c5.125 0 9.25 4.125 9.25 9.188 0 0.375-0.063 0.75-0.125 1.188-0.688 6.688-7 14.563-9 17-2.125-2.438-8.5-10.25-9.25-17-0.063-0.438-0.063-0.813-0.063-1.188 0-5.063 4.125-9.188 9.188-9.188z"></path>
</svg>