<svg version="1.1" xmlns="http://www.w3.org/2000/svg" width="32" height="32" viewBox="0 0 32 32">
<title>plane</title>
<path d="M31.188 25.625h-30.375c-0.438 0-0.813 0.313-0.813 0.75v1.625c0 0.438 0.375 0.813 0.813 0.813h30.375c0.438 0 0.813-0.375 0.813-0.813v-1.625c0-0.438-0.375-0.75-0.813-0.75zM4 20.25c0.313 0.375 0.813 0.563 1.25 0.563h6.5c0.563 0 1.063-0.125 1.5-0.375l14.563-7.375c1.313-0.688 2.5-1.688 3.313-2.938 0.938-1.438 1.063-2.438 0.688-3.188-0.375-0.688-1.25-1.25-2.938-1.375-1.5-0.063-2.938 0.313-4.313 1l-4.938 2.5-10.938-4.125c-0.25-0.188-0.563-0.188-0.875-0.063l-3.313 1.688c-0.5 0.25-0.625 1-0.25 1.438l7.813 4.875-5.125 2.625-3.625-1.813c-0.25-0.125-0.563-0.125-0.813 0l-2 1c-0.5 0.313-0.688 1-0.313 1.438z"></path>
</svg>