<svg version="1.1" xmlns="http://www.w3.org/2000/svg" width="32" height="32" viewBox="0 0 32 32">
<title>pool</title>
<path d="M31.188 24h-0.813c-1.25 0-2.25-0.438-2.75-0.875s-1-0.75-1.625-0.75h-0.813c-0.625 0-1.125 0.313-1.563 0.75-0.563 0.438-1.5 0.875-2.813 0.875s-2.313-0.438-2.813-0.875c-0.438-0.438-1-0.75-1.563-0.75h-0.875c-0.563 0-1.125 0.313-1.563 0.75-0.5 0.438-1.5 0.875-2.813 0.875s-2.25-0.438-2.813-0.875c-0.438-0.438-0.938-0.75-1.563-0.75h-0.813c-0.625 0-1.125 0.313-1.625 0.75s-1.5 0.875-2.75 0.875h-0.813c-0.438 0-0.813 0.375-0.813 0.813v1.563c0 0.438 0.375 0.813 0.813 0.813h0.813c1.875 0 3.625-0.625 4.75-1.563 1.188 0.938 2.875 1.563 4.813 1.563s3.625-0.625 4.813-1.563c1.188 0.938 2.875 1.563 4.813 1.563s3.625-0.625 4.813-1.563c1.125 0.938 2.875 1.563 4.75 1.563h0.813c0.438 0 0.813-0.375 0.813-0.813v-1.563c0-0.438-0.375-0.813-0.813-0.813zM11.188 22.375v-4.75h9.625v4.75c0.938 0 1.5-0.313 1.688-0.438 0.5-0.438 1-0.75 1.5-0.938v-11.375c0-0.938 0.688-1.625 1.625-1.625 0.875 0 1.563 0.688 1.563 1.625v0.75c0 0.438 0.375 0.813 0.813 0.813h1.625c0.438 0 0.75-0.375 0.75-0.813v-0.75c0-2.688-2.125-4.813-4.75-4.813-2.688 0-4.813 2.125-4.813 4.813v4.75h-9.625v-4.75c0-0.938 0.75-1.625 1.625-1.625s1.563 0.688 1.563 1.625v0.75c0 0.438 0.375 0.813 0.813 0.813h1.625c0.438 0 0.813-0.375 0.813-0.813v-0.75c0-2.688-2.188-4.813-4.813-4.813-2.688 0-4.813 2.125-4.813 4.813v11.375c0.5 0.188 1 0.5 1.5 0.938 0.188 0.125 0.75 0.438 1.688 0.438z"></path>
</svg>