<svg version="1.1" xmlns="http://www.w3.org/2000/svg" width="32" height="32" viewBox="0 0 32 32">
<title>pop-out</title>
<path d="M24 29.313h-19.563c-1 0-1.75-0.75-1.75-1.75v-19.563c0-1 0.75-1.75 1.75-1.75h8.875v1.75h-8.875v19.563h19.563v-8.875h1.75v8.875c0 1-0.75 1.75-1.75 1.75zM16 2.688c-0.5 0-0.875 0.375-0.875 0.875s0.375 0.875 0.875 0.875h10.313l-12.313 12.313c-0.25 0.25-0.375 0.563-0.313 0.875 0.125 0.313 0.375 0.563 0.688 0.688 0.313 0.063 0.625-0.063 0.875-0.313l12.313-12.313v10.313c0 0.5 0.375 0.875 0.875 0.875s0.875-0.375 0.875-0.875v-13.313z"></path>
</svg>