<svg version="1.1" xmlns="http://www.w3.org/2000/svg" width="32" height="32" viewBox="0 0 32 32">
<title>quotes-left</title>
<path d="M7 14c3.875 0 7 3.125 7 7s-3.125 7-7 7c-3.813 0-7-3.125-7-7v-1c0-7.75 6.25-14 14-14v4c-2.688 0-5.188 1.063-7.063 2.938-0.375 0.375-0.688 0.75-1 1.125 0.375-0.063 0.75-0.063 1.063-0.063zM25 14c3.875 0 7 3.125 7 7s-3.125 7-7 7c-3.813 0-7-3.125-7-7v-1c0-7.75 6.25-14 14-14v4c-2.688 0-5.188 1.063-7.063 2.938-0.375 0.375-0.688 0.75-1 1.125 0.375-0.063 0.75-0.063 1.063-0.063z"></path>
</svg>