<svg version="1.1" xmlns="http://www.w3.org/2000/svg" width="32" height="32" viewBox="0 0 32 32">
<title>ravelry</title>
<path d="M25.438 3.875c-4.688-2.5-9.313-1.938-14 0.25-0.688 0.313-1 0.688-1.25 1.188-0.625 1.188-1 2.313-1.25 3.313-1.313 1.563-2.25 3.5-2.688 5.625-0.688 1.125-1.313 2.563-1.438 4.438 0 0-0.063 0.5-0.063 0.5-2.188-0.313-4.75-1.688-4.75-1.688 0.563 0.875 3.813 2 4.75 2.375 0 0 0.125 6.125 4.063 8.188-0.688-1.063-0.813-1.25-0.813-1.25s-2.063-3.75-1.75-6.5c0.063 0 0.125 0 0.188 0 1.5 5.438 6.438 9.438 12.313 9.438 0.375 0 0.75 0 1.125 0 0.875 0.063 1.688 0 2.5-0.25 0.438-0.125 0.813-0.438 1.25-0.688 4.375-2.438 6.313-5.125 7.688-9.25 0.313-1 0.5-2.188 0.625-3.25 0.5-5.125-1.938-10.125-6.5-12.438zM8.688 10.188c0 0-0.063 0.813-0.063 1.25-0.188 0.125-0.625 0.5-1.125 1.063 0.313-0.813 0.688-1.563 1.188-2.313zM6.75 17.813c0.25-1.063 0.813-2.438 1.813-3.438 0 0 0.125 3 1 5.625l-2.563-0.438c-0.125-0.563-0.25-1.125-0.25-1.75zM7.25 20.5c0.875 0.188 2.125 0.5 2.688 0.563 1.688 4.813 6.75 7.75 6.75 7.75 0.063 0.063 0.125 0.063 0.188 0.063-4.563-0.688-8.313-4-9.625-8.375zM24.125 27.75c-0.875 0.313-2.25 0.563-4.063 0.25 0 0-5.688-1.438-7.938-6.75 2.375 0.063 3.25 0 4.875-0.25 2.438-0.375 4.938-1 7.188-2.063 0.75-0.313 0.688-1.188 0.563-1.875-0.125-0.75-0.688-0.75-1.313-0.25 0 0-5.125 3.625-11.875 3.313-1.125-2-1.688-6.875-1.688-6.875 2.625-2.25 5.25-3.75 10.563-3.313 0-0.375 0.188-1.688-1.313-1.75 0 0-5.813-0.688-9.125 2.125 0.188-1.063 0.375-1.875 0.75-2.5 2.125-1.938 4.938-3.063 8-3.063 6.625 0 12.063 5.438 12.063 12.125 0 4.75-2.75 8.875-6.688 10.875z"></path>
</svg>