<svg version="1.1" xmlns="http://www.w3.org/2000/svg" width="32" height="32" viewBox="0 0 32 32">
<title>recycle</title>
<path d="M11.563 16.375c0.188 0.875-0.813 1.563-1.563 1.063l-2.5-1.563-3.188 5.063c-0.813 1.313 0.125 3.063 1.688 3.063h3.25c0.438 0 0.75 0.313 0.75 0.75v2.5c0 0.438-0.313 0.75-0.75 0.75h-3.25c-4.688 0-7.563-5.188-5.063-9.188l3.188-5.063-2.563-1.625c-0.75-0.438-0.563-1.625 0.313-1.813l6.875-1.563c0.563-0.125 1.063 0.188 1.188 0.75zM17.688 4.938l2.563 4.125-2.5 1.625c-0.75 0.438-0.563 1.563 0.313 1.813l6.875 1.563c0.5 0.125 1.063-0.188 1.188-0.75l1.563-6.875c0.25-0.875-0.75-1.563-1.5-1.063l-2.5 1.563-2.625-4.125c-2.313-3.75-7.813-3.75-10.125 0l-1.125 1.813c-0.25 0.313-0.125 0.813 0.188 1l2.125 1.375c0.375 0.188 0.813 0.063 1.063-0.25l1.125-1.813c0.813-1.25 2.625-1.25 3.375 0zM31.063 18.813l-1.688-2.75c-0.25-0.375-0.688-0.438-1.063-0.25l-2.125 1.313c-0.313 0.25-0.438 0.688-0.188 1.063l1.688 2.75c0.813 1.313-0.125 3.063-1.688 3.063h-6v-3c0-0.875-1.063-1.313-1.688-0.688l-5 5c-0.438 0.375-0.438 1 0 1.375l5 5c0.625 0.625 1.688 0.188 1.688-0.688v-3h6c4.688 0 7.563-5.188 5.063-9.188z"></path>
</svg>