<svg version="1.1" xmlns="http://www.w3.org/2000/svg" width="32" height="32" viewBox="0 0 32 32">
<title>reddit</title>
<path d="M16 0c-8.813 0-16 7.188-16 16s7.188 16 16 16c8.813 0 16-7.188 16-16s-7.188-16-16-16zM24.313 4.688c0.563 0 1.063 0.188 1.438 0.625 0.375 0.375 0.563 0.813 0.563 1.375s-0.188 1-0.563 1.375c-0.375 0.438-0.875 0.625-1.438 0.625-0.5 0-1-0.188-1.375-0.625-0.375-0.375-0.625-0.813-0.625-1.375l-4.438-1-1.438 6.313c2.688 0.063 5 0.813 6.938 2.188 0.563-0.563 1.188-0.875 1.875-0.875 0.813 0 1.438 0.313 2 0.75 0.438 0.563 0.75 1.188 0.75 1.875 0 0.563-0.125 1.063-0.375 1.5-0.313 0.375-0.625 0.688-1.125 0.938 0.125 0.375 0.188 0.75 0.188 1.25 0 2.125-1 3.875-3.125 5.438-2.125 1.5-4.625 2.25-7.563 2.25-2.875 0-5.375-0.75-7.5-2.25-2.063-1.563-3.125-3.313-3.125-5.438 0-0.375 0.125-0.875 0.188-1.25-0.5-0.25-0.875-0.563-1.125-0.938-0.313-0.438-0.438-0.938-0.438-1.5 0-0.688 0.313-1.313 0.75-1.875 0.563-0.438 1.188-0.75 2-0.75 0.688 0 1.375 0.313 1.875 0.875 1.938-1.313 4.188-2.063 6.938-2.188l1.438-6.938c0.188-0.313 0.313-0.375 0.625-0.313l4.938 1.063c0.375-0.75 0.938-1.125 1.75-1.125zM11.625 16.688c-0.5 0-1 0.125-1.375 0.5-0.375 0.438-0.625 0.875-0.625 1.5 0 0.563 0.25 1 0.625 1.375 0.375 0.438 0.813 0.563 1.375 0.563s1-0.125 1.438-0.563c0.375-0.375 0.5-0.813 0.5-1.375s-0.125-1-0.5-1.375c-0.438-0.438-0.875-0.625-1.438-0.625zM20.375 16.688c-0.563 0-1 0.188-1.438 0.625-0.375 0.375-0.5 0.813-0.5 1.375s0.125 1 0.5 1.375c0.438 0.438 0.875 0.563 1.438 0.563s1-0.125 1.375-0.563c0.375-0.375 0.625-0.813 0.625-1.375 0-0.625-0.188-1.063-0.625-1.5-0.375-0.375-0.813-0.5-1.375-0.5zM11.875 22.563c-0.063 0-0.25 0-0.313 0.125-0.25 0.188-0.25 0.438 0 0.688 0.938 0.938 2.438 1.375 4.438 1.375s3.5-0.438 4.438-1.375c0.25-0.25 0.25-0.5 0-0.688-0.063-0.125-0.25-0.125-0.313-0.125-0.125 0-0.313 0-0.375 0.125-0.688 0.75-1.938 1.063-3.75 1.063s-3.063-0.313-3.75-1.063c-0.063-0.125-0.25-0.125-0.375-0.125z"></path>
</svg>