<svg version="1.1" xmlns="http://www.w3.org/2000/svg" width="32" height="32" viewBox="0 0 32 32">
<title>rss</title>
<path d="M10.313 24c0 0.938-0.375 1.75-1 2.438-0.688 0.688-1.5 1-2.438 1-1 0-1.75-0.313-2.438-1s-1-1.5-1-2.438c0-0.938 0.313-1.75 1-2.438s1.438-1 2.438-1c0.938 0 1.75 0.313 2.438 1 0.625 0.688 1 1.5 1 2.438zM19.438 26.188c0 0.313-0.063 0.625-0.313 0.875-0.188 0.25-0.5 0.375-0.813 0.375h-2.438c-0.313 0-0.563-0.125-0.75-0.313-0.25-0.188-0.375-0.438-0.375-0.75-0.25-2.688-1.375-5.063-3.313-7s-4.25-3-7-3.25c-0.25-0.063-0.5-0.188-0.688-0.375-0.25-0.188-0.313-0.5-0.313-0.75v-2.438c0-0.313 0.125-0.625 0.375-0.813 0.188-0.25 0.438-0.313 0.75-0.313h0.125c1.875 0.125 3.688 0.625 5.438 1.438s3.25 1.875 4.625 3.25c1.375 1.313 2.438 2.875 3.25 4.625s1.25 3.563 1.438 5.438zM28.563 26.25c0.063 0.313-0.063 0.563-0.313 0.813-0.188 0.25-0.5 0.375-0.813 0.375h-2.563c-0.313 0-0.563-0.125-0.813-0.313-0.188-0.188-0.313-0.5-0.313-0.75-0.188-2.563-0.75-5-1.813-7.313s-2.438-4.313-4.125-6c-1.688-1.688-3.688-3.063-6-4.125s-4.75-1.688-7.313-1.813c-0.313 0-0.563-0.125-0.75-0.375-0.188-0.188-0.313-0.5-0.313-0.75v-2.563c0-0.313 0.125-0.625 0.375-0.813 0.188-0.25 0.438-0.313 0.75-0.313h0.063c3.125 0.125 6.125 0.813 8.938 2.125 2.875 1.25 5.375 3 7.625 5.25 2.188 2.188 3.938 4.75 5.25 7.563 1.25 2.875 2 5.875 2.125 9z"></path>
</svg>