<svg version="1.1" xmlns="http://www.w3.org/2000/svg" width="32" height="32" viewBox="0 0 32 32">
<title>running</title>
<path d="M20 6c1.688 0 3-1.313 3-3s-1.313-3-3-3c-1.688 0-3 1.313-3 3s1.313 3 3 3zM10.125 19.813l-0.938 2.188h-4.188c-1.125 0-2 0.875-2 2s0.875 2 2 2h4.813c1.25 0 2.313-0.688 2.813-1.813l0.5-1.313-0.625-0.375c-1.125-0.625-1.875-1.563-2.375-2.688zM27 14h-2.75l-1.625-3.313c-0.813-1.625-2.25-2.75-3.875-3.188l-4.438-1.313c-1.75-0.438-3.625-0.063-5.063 1.063l-2.438 1.875c-0.875 0.688-1.063 1.938-0.375 2.813 0.625 0.875 1.875 1.063 2.75 0.375l2.5-1.875c0.5-0.375 1.125-0.5 1.563-0.438l0.938 0.313-2.313 5.438c-0.813 1.875-0.125 4 1.625 5.063l5.313 3.125-1.75 5.438c-0.313 1.063 0.313 2.188 1.313 2.563 0.25 0.063 0.438 0.063 0.625 0.063 0.875 0 1.625-0.563 1.938-1.375l1.938-6.375c0.375-1.25-0.188-2.688-1.313-3.375l-3.875-2.25 2-4.875 1.25 2.563c0.5 1 1.563 1.688 2.688 1.688h3.375c1.125 0 2-0.875 2-2s-0.875-2-2-2z"></path>
</svg>