<svg version="1.1" xmlns="http://www.w3.org/2000/svg" width="32" height="32" viewBox="0 0 32 32">
<title>sad-face</title>
<path d="M22.563 21.938c0.063 0.313 0.063 0.625-0.125 0.875-0.125 0.25-0.313 0.438-0.625 0.563s-0.625 0.063-0.875-0.063c-0.313-0.125-0.5-0.375-0.563-0.688-0.313-0.938-0.875-1.75-1.688-2.313s-1.688-0.875-2.688-0.875c-1 0-1.875 0.313-2.688 0.875s-1.375 1.375-1.688 2.313c-0.063 0.313-0.25 0.563-0.563 0.688-0.25 0.125-0.563 0.188-0.875 0.063s-0.5-0.313-0.625-0.563c-0.188-0.25-0.188-0.563-0.125-0.875 0.438-1.438 1.313-2.563 2.5-3.5 1.188-0.875 2.563-1.313 4.063-1.313s2.875 0.438 4.063 1.313c1.188 0.938 2.063 2.063 2.5 3.5zM13.688 11.438c0 0.625-0.188 1.188-0.625 1.625s-1 0.625-1.625 0.625c-0.625 0-1.188-0.188-1.625-0.625s-0.688-1-0.688-1.625c0-0.625 0.25-1.188 0.688-1.625s1-0.688 1.625-0.688c0.625 0 1.188 0.25 1.625 0.688s0.625 1 0.625 1.625zM22.875 11.438c0 0.625-0.25 1.188-0.688 1.625s-1 0.625-1.625 0.625c-0.625 0-1.188-0.188-1.625-0.625s-0.625-1-0.625-1.625c0-0.625 0.188-1.188 0.625-1.625s1-0.688 1.625-0.688c0.625 0 1.188 0.25 1.625 0.688s0.688 1 0.688 1.625zM27.438 16c0-1.563-0.313-3-0.938-4.438-0.563-1.438-1.375-2.625-2.438-3.625-1-1.063-2.188-1.875-3.625-2.438-1.438-0.625-2.875-0.938-4.438-0.938s-3 0.313-4.438 0.938c-1.438 0.563-2.625 1.375-3.625 2.438-1.063 1-1.875 2.188-2.438 3.625-0.625 1.438-0.938 2.875-0.938 4.438s0.313 3 0.938 4.438c0.563 1.438 1.375 2.625 2.438 3.625 1 1.063 2.188 1.875 3.625 2.438 1.438 0.625 2.875 0.938 4.438 0.938s3-0.313 4.438-0.938c1.438-0.563 2.625-1.375 3.625-2.438 1.063-1 1.875-2.188 2.438-3.625 0.625-1.438 0.938-2.875 0.938-4.438zM29.688 16c0 2.5-0.563 4.813-1.813 6.875-1.25 2.125-2.875 3.75-5 5-2.063 1.25-4.375 1.813-6.875 1.813s-4.813-0.563-6.875-1.813c-2.125-1.25-3.75-2.875-5-5-1.25-2.063-1.813-4.375-1.813-6.875s0.563-4.813 1.813-6.875c1.25-2.125 2.875-3.75 5-5 2.063-1.25 4.375-1.813 6.875-1.813s4.813 0.563 6.875 1.813c2.125 1.25 3.75 2.875 5 5 1.25 2.063 1.813 4.375 1.813 6.875z"></path>
</svg>