<svg version="1.1" xmlns="http://www.w3.org/2000/svg" width="32" height="32" viewBox="0 0 32 32">
<title>send</title>
<path d="M31.5 0.188c0.375 0.313 0.563 0.688 0.5 1.125l-4.563 27.438c-0.063 0.375-0.25 0.625-0.625 0.813-0.125 0.125-0.313 0.125-0.5 0.125s-0.313 0-0.438-0.063l-8.125-3.313-4.313 5.25c-0.188 0.313-0.5 0.438-0.875 0.438-0.125 0-0.25 0-0.375-0.063-0.25-0.063-0.438-0.25-0.563-0.438s-0.188-0.375-0.188-0.625v-6.25l15.438-18.938-19.125 16.563-7.063-2.938c-0.438-0.125-0.625-0.438-0.688-0.938 0-0.5 0.188-0.875 0.563-1.063l29.75-17.125c0.125-0.125 0.313-0.188 0.563-0.188s0.438 0.063 0.625 0.188z"></path>
</svg>