<svg version="1.1" xmlns="http://www.w3.org/2000/svg" width="32" height="32" viewBox="0 0 32 32">
<title>share</title>
<path d="M24.5 21.313c-1.25 0-2.375 0.5-3.25 1.375l-10.813-5.375c0.25-0.813 0.25-1.688 0-2.5l10.875-5.563c1.563 1.75 4.25 1.938 6.063 0.5 1.875-1.438 2.313-4.063 1.063-6-1.25-2-3.813-2.75-5.875-1.688-2.125 1.063-3.063 3.5-2.25 5.688l-10.75 5.5c-1.188-1.5-3.125-2-4.875-1.375-1.813 0.625-3 2.313-3 4.188s1.188 3.563 3 4.188c1.75 0.625 3.688 0.063 4.875-1.375l10.75 5.375c-0.188 0.5-0.25 1-0.25 1.5 0 2.5 1.938 4.5 4.438 4.5 2.438 0 4.438-2 4.438-4.5 0-2.438-2-4.438-4.438-4.438zM24.5 3.563c1.438 0 2.625 1.188 2.625 2.688 0 1.438-1.188 2.625-2.625 2.625-1.5 0-2.688-1.188-2.688-2.625 0-1.5 1.188-2.688 2.688-2.688zM6.25 18.688c-1.5 0-2.688-1.188-2.688-2.688s1.188-2.688 2.688-2.688c1.438 0 2.625 1.188 2.625 2.688s-1.188 2.688-2.625 2.688zM24.5 28.438c-1.5 0-2.688-1.188-2.688-2.688 0-1.438 1.188-2.625 2.688-2.625 1.438 0 2.625 1.188 2.625 2.625 0 1.5-1.188 2.688-2.625 2.688z"></path>
</svg>