<svg version="1.1" xmlns="http://www.w3.org/2000/svg" width="32" height="32" viewBox="0 0 32 32">
<title>slack</title>
<path d="M7.875 19.688c0 1.625-1.313 2.938-2.938 2.938s-2.938-1.313-2.938-2.938c0-1.625 1.313-2.938 2.938-2.938h2.938zM9.375 19.688c0-1.625 1.313-2.938 2.938-2.938s2.938 1.313 2.938 2.938v7.375c0 1.625-1.313 2.938-2.938 2.938s-2.938-1.313-2.938-2.938zM12.313 7.875c-1.625 0-2.938-1.313-2.938-2.938s1.313-2.938 2.938-2.938c1.625 0 2.938 1.313 2.938 2.938v2.938zM12.313 9.375c1.625 0 2.938 1.313 2.938 2.938s-1.313 2.938-2.938 2.938h-7.375c-1.625 0-2.938-1.313-2.938-2.938s1.313-2.938 2.938-2.938zM24.125 12.313c0-1.625 1.313-2.938 2.938-2.938s2.938 1.313 2.938 2.938c0 1.625-1.313 2.938-2.938 2.938h-2.938zM22.625 12.313c0 1.625-1.313 2.938-2.938 2.938s-2.938-1.313-2.938-2.938v-7.375c0-1.625 1.313-2.938 2.938-2.938s2.938 1.313 2.938 2.938zM19.688 24.125c1.625 0 2.938 1.313 2.938 2.938s-1.313 2.938-2.938 2.938c-1.625 0-2.938-1.313-2.938-2.938v-2.938zM19.688 22.625c-1.625 0-2.938-1.313-2.938-2.938s1.313-2.938 2.938-2.938h7.375c1.625 0 2.938 1.313 2.938 2.938s-1.313 2.938-2.938 2.938z"></path>
</svg>