<svg version="1.1" xmlns="http://www.w3.org/2000/svg" width="32" height="32" viewBox="0 0 32 32">
<title>snapchat</title>
<path d="M26.688 21.25c0-0.313-0.188-0.5-0.438-0.563-1-0.25-1.75-0.625-2.5-1.25-0.75-0.563-1.25-1.313-1.688-2.188-0.063-0.313-0.125-0.438-0.125-0.563 0-0.188 0.125-0.375 0.438-0.563 0.188-0.125 0.563-0.25 0.875-0.375 0.25-0.063 0.625-0.188 0.875-0.438 0.25-0.125 0.438-0.438 0.438-0.688 0-0.313-0.188-0.5-0.375-0.688-0.313-0.188-0.563-0.25-0.813-0.25-0.188 0-0.438 0.063-0.75 0.188-0.188 0.063-0.438 0.125-0.563 0.125-0.063 0-0.125 0-0.313-0.063 0.125-1.313 0.188-2.125 0.188-2.313 0-1.125-0.188-1.938-0.375-2.438-0.5-1.063-1.25-1.875-2.188-2.563-0.875-0.563-2-0.875-3.188-0.875-2.75 0-4.625 1.188-5.75 3.438-0.188 0.5-0.375 1.313-0.375 2.438 0 0.188 0.063 1 0.188 2.313-0.125 0.063-0.188 0.063-0.313 0.063s-0.375-0.063-0.688-0.125c-0.25-0.125-0.5-0.125-0.625-0.125-0.313 0-0.625 0.063-0.813 0.188-0.25 0.188-0.375 0.375-0.375 0.688 0 0.25 0.125 0.563 0.438 0.688 0.25 0.25 0.563 0.375 0.875 0.438 0.313 0.125 0.688 0.25 0.875 0.375 0.313 0.188 0.438 0.375 0.438 0.563 0 0.125-0.063 0.25-0.125 0.563-0.875 1.875-2.25 3.063-4.188 3.438-0.25 0.063-0.438 0.25-0.438 0.563 0 0.688 0.938 1.125 2.875 1.375 0.063 0.125 0.063 0.313 0.125 0.625 0.063 0.25 0.125 0.5 0.25 0.625 0.125 0.063 0.25 0.188 0.5 0.188 0.125 0 0.438 0 0.813-0.125 0.25-0.063 0.563-0.063 0.813-0.063 0.5 0 0.938 0.063 1.375 0.313 0.438 0.188 0.813 0.438 1.063 0.625 0.375 0.313 0.75 0.563 1.25 0.75 0.5 0.125 1.063 0.313 1.625 0.313s1.063-0.188 1.625-0.313c0.5-0.188 0.938-0.438 1.25-0.75 0.25-0.188 0.625-0.438 1.063-0.625 0.438-0.25 0.875-0.313 1.375-0.313 0.25 0 0.5 0 0.813 0.063 0.375 0.125 0.688 0.125 0.813 0.125 0.25 0 0.438-0.125 0.5-0.25s0.188-0.375 0.25-0.563c0.063-0.313 0.063-0.5 0.125-0.625 1.875-0.25 2.875-0.688 2.875-1.375zM32 16c0 2.938-0.688 5.625-2.125 8.063s-3.375 4.375-5.813 5.813c-2.438 1.5-5.125 2.125-8.063 2.125s-5.625-0.688-8.063-2.125c-2.438-1.438-4.375-3.375-5.813-5.813-1.5-2.438-2.125-5.125-2.125-8.063s0.625-5.625 2.125-8.063c1.438-2.438 3.375-4.375 5.813-5.813 2.438-1.5 5.125-2.125 8.063-2.125s5.625 0.688 8.063 2.125c2.438 1.438 4.375 3.375 5.813 5.813s2.125 5.125 2.125 8.063z"></path>
</svg>