<svg version="1.1" xmlns="http://www.w3.org/2000/svg" width="32" height="32" viewBox="0 0 32 32">
<title>soundcloud</title>
<path d="M5.563 16l0.313 3.25-0.313 3.438c0 0.125-0.125 0.188-0.188 0.188-0.125 0-0.25-0.063-0.25-0.188l-0.25-3.438 0.25-3.25c0-0.125 0.125-0.188 0.25-0.188 0.063 0 0.188 0.063 0.188 0.188zM6.625 13.75c-0.125 0-0.25 0.125-0.25 0.25l-0.25 5.25 0.25 3.438c0 0.125 0.125 0.25 0.25 0.25s0.25-0.125 0.25-0.25l0.313-3.438-0.313-5.25c0-0.125-0.125-0.25-0.25-0.25zM7.938 12.5c-0.188 0-0.313 0.125-0.313 0.313l-0.188 6.5 0.188 3.375c0 0.125 0.125 0.25 0.313 0.25 0.125 0 0.25-0.125 0.25-0.25l0.25-3.375-0.25-6.5c0-0.188-0.125-0.313-0.25-0.313zM0.375 17.375c-0.063 0-0.125 0.063-0.125 0.125l-0.25 1.75 0.25 1.75c0 0.063 0.063 0.125 0.125 0.125s0.125-0.063 0.125-0.125l0.25-1.75-0.25-1.75c0-0.063-0.063-0.125-0.125-0.125zM1.563 16.25c-0.063 0-0.125 0.063-0.125 0.125l-0.313 2.875 0.313 2.813c0 0.063 0.063 0.125 0.125 0.125s0.125-0.063 0.125-0.125l0.375-2.813-0.375-2.875c0-0.063-0.063-0.125-0.125-0.125zM2.813 15.688c-0.063 0-0.188 0.063-0.188 0.188l-0.25 3.375 0.25 3.313c0 0.063 0.125 0.125 0.188 0.125s0.125-0.063 0.125-0.125l0.375-3.313-0.375-3.375c0-0.125-0.063-0.188-0.125-0.188zM4.063 15.563c-0.063 0-0.188 0.063-0.188 0.188l-0.25 3.5 0.25 3.375c0 0.125 0.125 0.188 0.188 0.188 0.125 0 0.188-0.063 0.188-0.188l0.313-3.375-0.313-3.5c0-0.125-0.063-0.188-0.188-0.188zM16.125 10.063c-0.063-0.063-0.125-0.063-0.188-0.063-0.125 0-0.188 0-0.313 0.063-0.063 0.063-0.125 0.188-0.125 0.313v0.063l-0.188 8.813 0.063 1.625 0.125 1.625c0 0.25 0.188 0.438 0.438 0.438s0.438-0.188 0.438-0.438l0.188-3.25-0.188-8.875c0-0.125-0.125-0.25-0.25-0.313zM14.813 10.813c-0.063-0.063-0.125-0.063-0.25-0.063-0.063 0-0.125 0-0.188 0.063-0.125 0.063-0.188 0.188-0.188 0.313v0.125l-0.188 8c0 0 0 0 0.188 3.313 0 0.063 0 0.188 0.063 0.25 0.125 0.063 0.188 0.125 0.313 0.125s0.25-0.063 0.313-0.125c0.063-0.063 0.125-0.125 0.125-0.25v-0.375l0.188-2.938-0.188-8.125c0-0.125-0.063-0.25-0.188-0.313zM9.25 11.938c-0.188 0-0.313 0.125-0.313 0.313l-0.188 7 0.188 3.375c0 0.188 0.125 0.313 0.313 0.313 0.125 0 0.25-0.125 0.313-0.313l0.25-3.375-0.25-7c-0.063-0.188-0.188-0.313-0.313-0.313zM28.063 15.063c-0.563 0-1.063 0.125-1.5 0.313-0.313-3.563-3.313-6.313-6.938-6.313-0.875 0-1.75 0.188-2.5 0.438-0.313 0.125-0.375 0.25-0.375 0.5v12.5c0 0.25 0.188 0.375 0.375 0.438h10.938c2.188 0 3.938-1.75 3.938-3.938s-1.75-3.938-3.938-3.938zM13.25 12.063c-0.25 0-0.375 0.188-0.375 0.375l-0.188 6.813 0.188 3.313c0 0.188 0.125 0.375 0.375 0.375 0.188 0 0.375-0.188 0.375-0.375l0.188-3.313-0.188-6.813c0-0.188-0.188-0.375-0.375-0.375zM10.563 11.688c-0.188 0-0.313 0.125-0.313 0.313l-0.188 7.25 0.188 3.375c0 0.188 0.125 0.313 0.313 0.313s0.313-0.125 0.313-0.313l0.25-3.375-0.25-7.25c0-0.188-0.125-0.313-0.313-0.313zM11.875 11.813c-0.188 0-0.313 0.188-0.313 0.375l-0.188 7.063 0.188 3.313c0 0.188 0.125 0.375 0.313 0.375s0.375-0.188 0.375-0.375l0.188-3.313-0.188-7.063c0-0.188-0.188-0.375-0.375-0.375z"></path>
</svg>