<svg version="1.1" xmlns="http://www.w3.org/2000/svg" width="32" height="32" viewBox="0 0 32 32">
<title>spectacles</title>
<path d="M31.875 17.375l-2.5-10.125c-0.313-1.313-1.188-2.438-2.375-3.063-1.188-0.688-2.625-0.813-3.938-0.375l-0.813 0.25c-0.5 0.188-0.75 0.688-0.563 1.125l0.25 0.875c0.188 0.438 0.688 0.688 1.125 0.563l0.75-0.25c0.625-0.188 1.25-0.188 1.875 0.125 0.563 0.25 0.938 0.75 1.125 1.375l2.125 8.563c-1.25-0.375-2.75-0.688-4.5-0.688-1.938 0-4.125 0.375-6.375 1.5h-4.125c-2.25-1.125-4.438-1.5-6.375-1.5-1.75 0-3.25 0.313-4.5 0.688l2.125-8.563c0.188-0.625 0.563-1.125 1.188-1.375 0.563-0.313 1.188-0.313 1.813-0.125l0.75 0.25c0.438 0.125 0.938-0.125 1.125-0.563l0.25-0.875c0.188-0.438-0.063-0.938-0.563-1.125l-0.813-0.25c-1.313-0.438-2.75-0.313-3.938 0.375-1.188 0.625-2.063 1.75-2.375 3.063l-2.5 10.125c-0.063 0.25-0.125 0.563-0.125 0.813v3.938c0 3.5 2.875 6.313 6.375 6.313h2.063c3.375 0 6.188-2.563 6.438-5.875l0.125-2.125h2l0.125 2.125c0.25 3.313 3.063 5.875 6.438 5.875h2.063c3.5 0 6.375-2.813 6.375-6.313v-3.938c0-0.25-0.063-0.563-0.125-0.813zM11.313 22.313c-0.125 1.438-1.375 2.563-2.875 2.563h-2.063c-1.563 0-2.813-1.25-2.813-2.75v-2.063c1-0.375 2.375-0.75 4-0.75 1.375 0 2.625 0.25 3.938 0.75zM28.438 22.125c0 1.5-1.25 2.75-2.813 2.75h-2.063c-1.5 0-2.75-1.125-2.875-2.563l-0.188-2.25c1.313-0.5 2.563-0.75 3.938-0.75 1.563 0 3 0.375 4 0.75z"></path>
</svg>