<svg version="1.1" xmlns="http://www.w3.org/2000/svg" width="32" height="32" viewBox="0 0 32 32">
<title>spotify</title>
<path d="M16 0.5c-8.563 0-15.5 6.938-15.5 15.5s6.938 15.5 15.5 15.5c8.563 0 15.5-6.938 15.5-15.5s-6.938-15.5-15.5-15.5zM22.313 23.313c-0.25 0-0.438-0.063-0.688-0.25-3.875-2.313-8.438-2.438-12.938-1.5-0.25 0.063-0.563 0.125-0.75 0.125-0.563 0-0.938-0.438-0.938-0.938 0-0.688 0.375-1 0.813-1.063 5.125-1.125 10.375-1.063 14.813 1.625 0.375 0.25 0.625 0.438 0.625 1.063 0 0.563-0.438 0.938-0.938 0.938zM24 19.188c-0.375 0-0.563-0.125-0.813-0.25-3.875-2.313-9.688-3.25-14.875-1.813-0.313 0.063-0.5 0.125-0.75 0.125-0.688 0-1.25-0.5-1.25-1.188s0.375-1.125 1-1.313c1.75-0.5 3.5-0.813 6.125-0.813 4.063 0 7.938 1 11.063 2.813 0.5 0.313 0.688 0.688 0.688 1.25 0 0.688-0.5 1.188-1.188 1.188zM25.938 14.438c-0.375 0-0.563-0.063-0.813-0.25-4.438-2.625-12.438-3.25-17.563-1.813-0.25 0.063-0.5 0.125-0.813 0.125-0.813 0-1.438-0.625-1.438-1.438 0-0.875 0.5-1.375 1.063-1.5 2.188-0.688 4.688-1 7.375-1 4.563 0 9.313 1 12.813 3 0.5 0.313 0.813 0.688 0.813 1.438 0 0.813-0.688 1.438-1.438 1.438z"></path>
</svg>