<svg version="1.1" xmlns="http://www.w3.org/2000/svg" width="32" height="32" viewBox="0 0 32 32">
<title>star</title>
<path d="M30.875 11.563c0 0.25-0.188 0.563-0.5 0.875l-6.438 6.313 1.5 8.938c0 0.063 0 0.188 0 0.313 0 0.25-0.063 0.5-0.188 0.625-0.125 0.188-0.25 0.313-0.5 0.313s-0.5-0.125-0.75-0.25l-8-4.188-8 4.188c-0.25 0.125-0.5 0.25-0.75 0.25s-0.438-0.125-0.563-0.313c-0.125-0.125-0.188-0.375-0.188-0.625 0-0.063 0-0.188 0.063-0.313l1.5-8.938-6.5-6.313c-0.25-0.375-0.438-0.625-0.438-0.875 0-0.438 0.375-0.75 1-0.813l9-1.313 4-8.125c0.25-0.5 0.5-0.75 0.875-0.75s0.625 0.25 0.875 0.75l4 8.125 9 1.313c0.625 0.063 1 0.375 1 0.813z"></path>
</svg>