<svg version="1.1" xmlns="http://www.w3.org/2000/svg" width="32" height="32" viewBox="0 0 32 32">
<title>sun</title>
<path d="M26.313 16c0-1.375-0.313-2.75-0.813-4-0.563-1.25-1.313-2.375-2.25-3.25-0.875-0.938-2-1.688-3.25-2.25-1.25-0.5-2.625-0.813-4-0.813s-2.75 0.313-4 0.813c-1.25 0.563-2.375 1.313-3.25 2.25-0.938 0.875-1.688 2-2.25 3.25-0.5 1.25-0.813 2.625-0.813 4s0.313 2.75 0.813 4c0.563 1.25 1.313 2.375 2.25 3.25 0.875 0.938 2 1.688 3.25 2.25 1.25 0.5 2.625 0.813 4 0.813s2.75-0.313 4-0.813c1.25-0.563 2.375-1.313 3.25-2.25 0.938-0.875 1.688-2 2.25-3.25 0.5-1.25 0.813-2.625 0.813-4zM31.188 20.938c0 0.188-0.125 0.313-0.313 0.375l-5.25 1.688v5.5c0 0.188-0.063 0.313-0.188 0.438-0.188 0.125-0.375 0.125-0.563 0.063l-5.188-1.688-3.25 4.438c-0.063 0.188-0.25 0.25-0.438 0.25s-0.375-0.063-0.438-0.25l-3.25-4.438-5.188 1.688c-0.188 0.063-0.375 0.063-0.563-0.063-0.125-0.125-0.188-0.25-0.188-0.438v-5.5l-5.25-1.688c-0.188-0.063-0.313-0.188-0.313-0.375-0.063-0.188-0.063-0.375 0.063-0.5l3.188-4.438-3.188-4.438c-0.125-0.125-0.125-0.313-0.063-0.5 0-0.188 0.125-0.313 0.313-0.375l5.25-1.688v-5.5c0-0.188 0.063-0.313 0.188-0.438 0.188-0.125 0.375-0.125 0.563-0.063l5.188 1.688 3.25-4.438c0.063-0.188 0.25-0.25 0.438-0.25s0.375 0.063 0.438 0.25l3.25 4.438 5.188-1.688c0.188-0.063 0.375-0.063 0.563 0.063 0.125 0.125 0.188 0.25 0.188 0.438v5.5l5.25 1.688c0.188 0.063 0.313 0.188 0.313 0.375 0.063 0.188 0.063 0.375-0.063 0.5l-3.188 4.438 3.188 4.438c0.125 0.125 0.125 0.313 0.063 0.5z"></path>
</svg>