<svg version="1.1" xmlns="http://www.w3.org/2000/svg" width="32" height="32" viewBox="0 0 32 32">
<title>swimming</title>
<path d="M9.5 18.75c0.188 0.125 0.75 0.438 1.688 0.438s1.563-0.313 1.75-0.438c0.813-0.75 1.688-1.125 2.625-1.125h0.875c0.938 0 1.813 0.375 2.625 1.125 0.188 0.125 0.813 0.438 1.75 0.438s1.5-0.313 1.688-0.438c0.75-0.688 1.625-1.063 2.5-1.125l-5.625-4.063 0.875-0.625c0.188-0.125 0.438-0.188 0.625-0.125l5 1.063c1.313 0.313 2.563-0.5 2.875-1.813 0.25-1.313-0.563-2.563-1.875-2.875l-5-1.063c-1.5-0.313-3.125 0-4.438 0.938l-4 2.813c-0.5 0.375-0.938 0.875-1.313 1.375l-3.438 4.875c0.25 0.188 0.563 0.375 0.813 0.625zM31.188 20.813h-0.813c-1.25 0-2.25-0.438-2.75-0.938-0.5-0.375-1-0.688-1.625-0.688h-0.813c-0.625 0-1.125 0.313-1.563 0.688-0.563 0.5-1.5 0.938-2.813 0.938s-2.313-0.438-2.813-0.938c-0.438-0.375-1-0.688-1.563-0.688h-0.875c-0.563 0-1.125 0.313-1.563 0.688-0.5 0.5-1.5 0.938-2.813 0.938s-2.25-0.438-2.813-0.938c-0.438-0.375-0.938-0.688-1.563-0.688h-0.813c-0.625 0-1.125 0.313-1.625 0.688-0.5 0.5-1.5 0.938-2.75 0.938h-0.813c-0.438 0-0.813 0.375-0.813 0.813v1.563c0 0.438 0.375 0.813 0.813 0.813h0.813c1.875 0 3.625-0.625 4.75-1.563 1.188 0.938 2.875 1.563 4.813 1.563s3.625-0.625 4.813-1.563c1.188 0.938 2.875 1.563 4.813 1.563s3.625-0.625 4.813-1.563c1.125 0.938 2.875 1.563 4.75 1.563h0.813c0.438 0 0.813-0.375 0.813-0.813v-1.563c0-0.438-0.375-0.813-0.813-0.813zM5.625 16c2.188 0 4-1.813 4-4s-1.813-4-4-4c-2.25 0-4 1.813-4 4s1.75 4 4 4z"></path>
</svg>