<svg version="1.1" xmlns="http://www.w3.org/2000/svg" width="32" height="32" viewBox="0 0 32 32">
<title>tag</title>
<path d="M10.625 9.375c0 0.688-0.563 1.25-1.25 1.25-0.75 0-1.313-0.563-1.313-1.25 0-0.75 0.563-1.313 1.313-1.313 0.688 0 1.25 0.563 1.25 1.313zM28.375 17.063l-13-13c-0.313-0.313-0.75-0.5-1.25-0.5h-8.813c-0.938 0-1.75 0.813-1.75 1.75v8.813c0 0.5 0.188 0.938 0.5 1.25l13 13c0.313 0.313 0.813 0.5 1.25 0.5 0.5 0 0.938-0.188 1.25-0.5l8.813-8.813c0.313-0.313 0.5-0.75 0.5-1.25 0-0.438-0.188-0.938-0.5-1.25zM18.313 27.125l-13-13v-8.813h8.813l13 13z"></path>
</svg>