<svg version="1.1" xmlns="http://www.w3.org/2000/svg" width="32" height="32" viewBox="0 0 32 32">
<title>tags</title>
<path d="M29.5 17l-12.125-12.063c-0.313-0.313-0.75-0.5-1.188-0.5h-1.875l13.938 13.75-9.375 9.438c0.688 0.688 1.75 0.688 2.438 0l8.188-8.188c0.625-0.688 0.625-1.75 0-2.438zM8.125 9.875c0 0.688-0.5 1.188-1.188 1.188-0.625 0-1.188-0.5-1.188-1.188 0-0.625 0.563-1.125 1.188-1.125 0.688 0 1.188 0.5 1.188 1.125zM24.688 17.063l-12.063-12.125c-0.313-0.313-0.75-0.5-1.25-0.5h-8.188c-0.938 0-1.688 0.75-1.688 1.75v8.188c0 0.438 0.188 0.875 0.5 1.188l12.063 12.063c0.688 0.688 1.75 0.688 2.438 0l8.188-8.188c0.688-0.625 0.688-1.75 0-2.375zM15.313 26.375l-12.063-12v-8.125h8.125l12.063 11.938z"></path>
</svg>