<svg version="1.1" xmlns="http://www.w3.org/2000/svg" width="32" height="32" viewBox="0 0 32 32">
<title>tasks</title>
<path d="M26.063 30.25h-20.125c-0.813 0-1.5-0.688-1.5-1.5v-22.813c0-0.813 0.688-1.5 1.563-1.5 0.063 0 0.125 0 0.25 0h1.75v1.813h-1.75v22.188h19.5v-22.188h-1.75v-1.813h2c0 0 0 0 0.063 0 0.813 0 1.5 0.688 1.5 1.5v22.813c0 0.813-0.688 1.5-1.5 1.5zM14.813 22.875l-4.75-4.75c-0.125-0.125-0.25-0.375-0.25-0.563 0-0.5 0.438-0.875 0.938-0.875 0.188 0 0.375 0.063 0.563 0.188l3.5 3.5 7.688-7.688c0.125-0.125 0.375-0.188 0.563-0.188 0.5 0 0.875 0.375 0.875 0.875 0 0.25-0.063 0.438-0.188 0.563zM23.125 9.75h-14.25v-3.25c0-1.125 0.938-2.063 2.063-2.063h1.625c0.375-1.563 1.813-2.688 3.438-2.688s3.063 1.125 3.438 2.688h1.625c1.125 0 2.063 0.938 2.063 2.063zM10.688 8h10.625v-1.5c0-0.125-0.125-0.25-0.25-0.25h-3.313v-0.938c0-0.938-0.75-1.75-1.75-1.75s-1.75 0.813-1.75 1.75v0.938h-3.313c-0.125 0-0.25 0.125-0.25 0.25z"></path>
</svg>