<svg version="1.1" xmlns="http://www.w3.org/2000/svg" width="32" height="32" viewBox="0 0 32 32">
<title>terminal</title>
<path d="M12.875 16.875l-9.688 9.688c-0.5 0.5-1.25 0.5-1.688 0l-1.125-1.125c-0.5-0.5-0.5-1.25 0-1.688l7.688-7.75-7.688-7.75c-0.5-0.438-0.5-1.188 0-1.688l1.125-1.125c0.438-0.5 1.188-0.5 1.688 0l9.688 9.688c0.5 0.5 0.5 1.25 0 1.75zM32 26v-1.625c0-0.625-0.563-1.188-1.188-1.188h-15.188c-0.688 0-1.25 0.563-1.25 1.188v1.625c0 0.688 0.563 1.188 1.25 1.188h15.188c0.625 0 1.188-0.5 1.188-1.188z"></path>
</svg>