<svg version="1.1" xmlns="http://www.w3.org/2000/svg" width="32" height="32" viewBox="0 0 32 32">
<title>tick</title>
<path d="M13.813 25.563c0 0.063 0.063 0.125 0.063 0.125 0.063 0.063 0.125 0.063 0.188 0.063 0.125 0.063 0.188 0.063 0.25 0.125 0.063 0 0.188 0 0.25 0 0.125 0.063 0.188 0.063 0.313 0 0.063 0 0.125 0 0.125 0 0.188-0.063 0.313-0.125 0.438-0.188 0 0 0 0 0.063-0.063 0.063 0 0.125-0.063 0.188-0.125s0.125-0.125 0.125-0.188l11.938-19.125c0.438-0.625 0.25-1.5-0.375-1.938-0.688-0.438-1.563-0.25-1.938 0.375l-11.063 17.688-6.063-5.938c-0.563-0.5-1.438-0.5-2 0.063-0.5 0.563-0.438 1.438 0.125 2l7.313 7.125c0 0 0 0 0.063 0z"></path>
</svg>