<svg version="1.1" xmlns="http://www.w3.org/2000/svg" width="32" height="32" viewBox="0 0 32 32">
<title>times</title>
<path d="M17.25 16l7.375-7.375c0.125-0.125 0.188-0.375 0.188-0.563 0-0.5-0.375-0.875-0.875-0.875-0.188 0-0.438 0.063-0.563 0.188l-7.375 7.375-7.375-7.375c-0.125-0.188-0.375-0.25-0.625-0.25-0.5 0-0.875 0.375-0.875 0.875 0 0.25 0.063 0.5 0.25 0.625l7.375 7.375-7.375 7.375c-0.188 0.188-0.313 0.375-0.313 0.688 0 0.5 0.375 0.875 0.875 0.875 0.25 0 0.5-0.125 0.688-0.313l7.375-7.375 7.375 7.375c0.125 0.125 0.375 0.188 0.563 0.188 0.5 0 0.875-0.375 0.875-0.875 0-0.188-0.063-0.438-0.188-0.563z"></path>
</svg>