<svg version="1.1" xmlns="http://www.w3.org/2000/svg" width="32" height="32" viewBox="0 0 32 32">
<title>toggle-filled</title>
<path d="M0 16c0-1.375 0.25-2.625 0.813-3.875 0.5-1.25 1.25-2.313 2.125-3.188s1.938-1.625 3.188-2.125c1.25-0.563 2.5-0.813 3.875-0.813h12c1.375 0 2.625 0.25 3.875 0.813 1.25 0.5 2.313 1.25 3.188 2.125s1.625 1.938 2.125 3.188c0.563 1.25 0.813 2.5 0.813 3.875s-0.25 2.625-0.813 3.875c-0.5 1.25-1.25 2.313-2.125 3.188s-1.938 1.625-3.188 2.125c-1.25 0.563-2.5 0.813-3.875 0.813h-12c-1.375 0-2.625-0.25-3.875-0.813-1.25-0.5-2.313-1.25-3.188-2.125s-1.625-1.938-2.125-3.188c-0.563-1.25-0.813-2.5-0.813-3.875zM22 24c1.063 0 2.125-0.188 3.125-0.625 0.938-0.438 1.813-1 2.563-1.688 0.688-0.75 1.25-1.625 1.688-2.563 0.438-1 0.625-2.063 0.625-3.125s-0.188-2.125-0.625-3.125c-0.438-0.938-1-1.813-1.688-2.5-0.75-0.75-1.625-1.313-2.563-1.75-1-0.438-2.063-0.625-3.125-0.625s-2.125 0.188-3.125 0.625c-0.938 0.438-1.813 1-2.5 1.75-0.75 0.688-1.313 1.563-1.75 2.5-0.438 1-0.625 2.063-0.625 3.125s0.188 2.125 0.625 3.125c0.438 0.938 1 1.813 1.75 2.563 0.688 0.688 1.563 1.25 2.5 1.688 1 0.438 2.063 0.625 3.125 0.625z"></path>
</svg>