<svg version="1.1" xmlns="http://www.w3.org/2000/svg" width="32" height="32" viewBox="0 0 32 32">
<title>tree</title>
<path d="M30.5 24h-0.5v-6.5c0-1.938-1.563-3.5-3.5-3.5h-8.5v-4h0.5c0.813 0 1.5-0.688 1.5-1.5v-5c0-0.813-0.688-1.5-1.5-1.5h-5c-0.813 0-1.5 0.688-1.5 1.5v5c0 0.813 0.688 1.5 1.5 1.5h0.5v4h-8.5c-1.938 0-3.5 1.563-3.5 3.5v6.5h-0.5c-0.813 0-1.5 0.688-1.5 1.5v5c0 0.813 0.688 1.5 1.5 1.5h5c0.813 0 1.5-0.688 1.5-1.5v-5c0-0.813-0.688-1.5-1.5-1.5h-0.5v-6h8v6h-0.5c-0.813 0-1.5 0.688-1.5 1.5v5c0 0.813 0.688 1.5 1.5 1.5h5c0.813 0 1.5-0.688 1.5-1.5v-5c0-0.813-0.688-1.5-1.5-1.5h-0.5v-6h8v6h-0.5c-0.813 0-1.5 0.688-1.5 1.5v5c0 0.813 0.688 1.5 1.5 1.5h5c0.813 0 1.5-0.688 1.5-1.5v-5c0-0.813-0.688-1.5-1.5-1.5zM6 30h-4v-4h4zM18 30h-4v-4h4zM14 8v-4h4v4zM30 30h-4v-4h4z"></path>
</svg>