<svg version="1.1" xmlns="http://www.w3.org/2000/svg" width="32" height="32" viewBox="0 0 32 32">
<title>tripadvisor</title>
<path d="M9.25 17.375c0 0.75-0.625 1.313-1.313 1.313-0.75 0-1.375-0.563-1.375-1.313s0.625-1.375 1.375-1.375c0.688 0 1.313 0.625 1.313 1.375zM23.938 16.063c-0.688 0-1.313 0.563-1.313 1.313s0.625 1.313 1.313 1.313c0.75 0 1.375-0.563 1.375-1.313s-0.625-1.313-1.375-1.313zM28.938 23.75c-3.5 2.75-8.5 2.125-11.25-1.313l-1.75 2.563-1.688-2.563c-2.688 3.375-7.5 4-11 1.438-3.563-2.625-4.313-7.625-1.688-11.188-0.313-1.125-0.875-2.188-1.563-3.188h5c3.313-2 7.125-3.063 10.938-3 3.813-0.063 7.5 1 10.688 3h5.375c-0.75 0.938-1.25 2.063-1.563 3.188 2.563 3.5 1.938 8.438-1.5 11.063zM14.438 17.438c0-3.563-2.875-6.375-6.438-6.375-3.5 0-6.375 2.813-6.375 6.375 0 3.5 2.875 6.375 6.375 6.375 3.563 0 6.375-2.875 6.438-6.375zM16 16.875c0.313-4.125 3.625-7.313 7.75-7.438-2.5-1.063-5.125-1.563-7.813-1.5-2.625-0.063-5.313 0.438-7.75 1.5 4.125 0.063 7.5 3.313 7.813 7.438zM30 15.25c-1.25-3.313-4.938-5-8.25-3.813-3.313 1.25-5 4.938-3.75 8.25 1.188 3.313 4.875 5 8.188 3.75 3.313-1.188 5-4.875 3.813-8.188zM11.875 17.375c0 2.188-1.813 3.938-4 3.938-2.125 0-3.938-1.75-3.938-3.938s1.813-4 4-3.938c2.188 0 3.938 1.75 3.938 3.938zM10.5 17.375c0-1.438-1.188-2.625-2.563-2.625-1.438 0-2.625 1.188-2.625 2.625s1.188 2.563 2.625 2.563c1.438 0 2.563-1.125 2.563-2.563zM27.938 17.375c0 2.188-1.813 3.938-4 3.938s-3.938-1.75-3.938-3.938c0-2.188 1.75-4 3.938-3.938 2.188 0 4 1.75 4 3.938zM26.563 17.375c0-1.438-1.188-2.625-2.625-2.625s-2.563 1.188-2.563 2.625c0 1.438 1.188 2.563 2.563 2.563 1.438 0 2.625-1.125 2.625-2.563z"></path>
</svg>