<svg version="1.1" xmlns="http://www.w3.org/2000/svg" width="32" height="32" viewBox="0 0 32 32">
<title>tumblr</title>
<path d="M27 2h-22c-1.625 0-3 1.375-3 3v22c0 1.688 1.375 3 3 3h22c1.688 0 3-1.313 3-3v-22c0-1.625-1.313-3-3-3zM21.875 24.75c-0.563 0.563-1.938 1.25-3.813 1.25-4.75 0-5.75-3.438-5.75-5.5v-5.625h-1.875c-0.188 0-0.375-0.188-0.375-0.375v-2.688c0-0.25 0.188-0.5 0.438-0.625 2.438-0.813 3.188-2.938 3.313-4.563 0-0.438 0.25-0.625 0.625-0.625h2.75c0.25 0 0.375 0.188 0.375 0.375v4.5h3.25c0.25 0 0.375 0.188 0.375 0.375v3.25c0 0.188-0.125 0.375-0.375 0.375h-3.25v5.188c0 1.313 0.938 2.125 2.688 1.375 0.188-0.063 0.313-0.125 0.5-0.063 0.125 0.063 0.188 0.125 0.25 0.313l0.875 2.5c0.063 0.188 0.125 0.438 0 0.563z"></path>
</svg>