<svg version="1.1" xmlns="http://www.w3.org/2000/svg" width="32" height="32" viewBox="0 0 32 32">
<title>twitter</title>
<path d="M28.688 9.5c0.063 0.25 0.063 0.563 0.063 0.813 0 8.688-6.625 18.688-18.688 18.688-3.688 0-7.188-1.063-10.063-2.938 0.5 0.063 1.063 0.063 1.563 0.063 3.063 0 5.938-1 8.188-2.813-2.938-0.063-5.313-1.938-6.125-4.5 0.375 0 0.75 0.063 1.188 0.063 0.625 0 1.188-0.063 1.75-0.188-3-0.625-5.25-3.25-5.25-6.438v-0.125c0.875 0.5 1.875 0.813 2.938 0.875-1.75-1.188-2.938-3.188-2.938-5.5 0-1.188 0.375-2.313 0.938-3.313 3.188 4 8.063 6.625 13.5 6.875-0.125-0.5-0.125-1-0.125-1.5 0-3.625 2.875-6.563 6.5-6.563 1.938 0 3.625 0.813 4.813 2.063 1.5-0.25 2.938-0.813 4.188-1.563-0.5 1.5-1.563 2.813-2.875 3.625 1.313-0.188 2.563-0.5 3.75-1.063-0.875 1.313-2 2.5-3.313 3.438z"></path>
</svg>