<svg version="1.1" xmlns="http://www.w3.org/2000/svg" width="32" height="32" viewBox="0 0 32 32">
<title>upload</title>
<path d="M27.563 27.563h-23.125c-0.5 0-0.875 0.375-0.875 0.875s0.375 0.875 0.875 0.875h23.125c0.5 0 0.875-0.375 0.875-0.875s-0.375-0.875-0.875-0.875zM7.813 13.313l7.313-7.25v18.375c0 0.5 0.375 0.875 0.875 0.875s0.875-0.375 0.875-0.875v-18.375l7.313 7.25c0.313 0.313 0.875 0.313 1.188 0 0.313-0.375 0.375-0.875 0.063-1.25l-9.438-9.375-9.438 9.438c-0.25 0.188-0.375 0.563-0.313 0.875 0.125 0.313 0.375 0.563 0.688 0.688 0.313 0.063 0.688-0.063 0.875-0.375z"></path>
</svg>