<svg version="1.1" xmlns="http://www.w3.org/2000/svg" width="32" height="32" viewBox="0 0 32 32">
<title>user</title>
<path d="M23.75 14c0.563 0.188 1.063 0.375 1.563 0.688 0.5 0.25 1.063 0.688 1.625 1.313 0.563 0.563 1 1.25 1.375 2.063 0.438 0.75 0.75 1.813 1 3.063s0.375 2.625 0.375 4.188c0 1.875-0.563 3.438-1.75 4.75s-2.625 1.938-4.313 1.938h-15.25c-1.688 0-3.125-0.625-4.313-1.938s-1.75-2.875-1.75-4.75c0-1.563 0.125-2.938 0.375-4.188s0.563-2.313 1-3.063c0.375-0.813 0.813-1.5 1.375-2.063 0.563-0.625 1.125-1.063 1.625-1.313 0.5-0.313 1-0.5 1.563-0.688-0.938-1.5-1.375-3.125-1.375-4.875 0-1.25 0.25-2.375 0.688-3.5 0.5-1.125 1.125-2.125 2-2.938 0.813-0.813 1.75-1.5 2.875-1.938 1.125-0.5 2.313-0.75 3.563-0.75s2.438 0.25 3.563 0.75c1.125 0.438 2.063 1.125 2.875 1.938 0.875 0.813 1.5 1.813 2 2.938 0.438 1.125 0.688 2.25 0.688 3.5 0 1.75-0.438 3.375-1.375 4.875zM16 2.313c-1.875 0-3.5 0.625-4.875 2-1.313 1.313-2 2.938-2 4.813 0 1.938 0.688 3.5 2 4.875 1.375 1.313 3 2 4.875 2s3.5-0.688 4.875-2c1.313-1.375 2-2.938 2-4.875 0-1.875-0.688-3.5-2-4.813-1.375-1.375-3-2-4.875-2zM23.625 29.688c1.063 0 1.938-0.375 2.688-1.25s1.125-1.875 1.125-3.125c0-2.813-0.5-5.063-1.438-6.688-0.938-1.688-2.25-2.5-4-2.625-1.75 1.5-3.75 2.313-6 2.313s-4.25-0.813-6-2.313c-1.75 0.125-3.063 0.938-4 2.625-0.938 1.625-1.438 3.875-1.438 6.688 0 1.25 0.375 2.25 1.125 3.125s1.625 1.25 2.688 1.25z"></path>
</svg>