<svg version="1.1" xmlns="http://www.w3.org/2000/svg" width="32" height="32" viewBox="0 0 32 32">
<title>user-group</title>
<path d="M9.875 16c-1.813 0.063-3.25 0.75-4.438 2.125h-2.188c-0.938 0-1.688-0.188-2.313-0.688-0.625-0.438-0.938-1.063-0.938-1.938 0-3.938 0.688-5.875 2.063-5.875 0.063 0 0.313 0.063 0.75 0.313 0.375 0.25 0.938 0.5 1.625 0.75 0.625 0.188 1.313 0.313 1.938 0.313 0.75 0 1.5-0.125 2.25-0.375-0.063 0.438-0.063 0.813-0.063 1.125 0 1.5 0.438 2.938 1.313 4.25zM27.75 26.625c0 1.313-0.438 2.375-1.25 3.125-0.813 0.813-1.875 1.188-3.188 1.188h-14.625c-1.313 0-2.375-0.375-3.188-1.188-0.813-0.75-1.25-1.813-1.25-3.125 0-0.625 0.063-1.188 0.063-1.75 0.063-0.563 0.125-1.125 0.25-1.813 0.125-0.625 0.25-1.25 0.438-1.813s0.438-1.063 0.688-1.625c0.313-0.5 0.688-0.938 1.063-1.313s0.875-0.688 1.438-0.938c0.563-0.188 1.188-0.313 1.875-0.313 0.063 0 0.313 0.125 0.688 0.375s0.75 0.5 1.188 0.813c0.5 0.25 1.063 0.563 1.813 0.75 0.75 0.25 1.5 0.375 2.25 0.375s1.5-0.125 2.25-0.375c0.75-0.188 1.313-0.5 1.813-0.75 0.438-0.313 0.813-0.563 1.188-0.813s0.625-0.375 0.688-0.375c0.688 0 1.313 0.125 1.875 0.313 0.563 0.25 1.063 0.563 1.438 0.938s0.75 0.813 1.063 1.313c0.25 0.563 0.5 1.063 0.688 1.625s0.313 1.188 0.438 1.813c0.125 0.688 0.188 1.25 0.25 1.813 0 0.563 0.063 1.125 0.063 1.75zM10.688 5.313c0 1.188-0.438 2.188-1.25 3.063-0.875 0.813-1.875 1.25-3.063 1.25-1.125 0-2.188-0.438-3-1.25-0.813-0.875-1.25-1.875-1.25-3.063s0.438-2.188 1.25-3c0.813-0.813 1.875-1.25 3-1.25 1.188 0 2.188 0.438 3.063 1.25 0.813 0.813 1.25 1.813 1.25 3zM22.375 11.75c0 1.75-0.625 3.25-1.875 4.5s-2.75 1.875-4.5 1.875c-1.75 0-3.25-0.625-4.5-1.875s-1.875-2.75-1.875-4.5c0-1.813 0.625-3.313 1.875-4.563s2.75-1.875 4.5-1.875c1.75 0 3.25 0.625 4.5 1.875s1.875 2.75 1.875 4.563zM32 15.5c0 0.875-0.313 1.5-0.938 1.938-0.625 0.5-1.375 0.688-2.313 0.688h-2.188c-1.188-1.375-2.625-2.063-4.438-2.125 0.875-1.313 1.313-2.75 1.313-4.25 0-0.313 0-0.688-0.063-1.125 0.75 0.25 1.5 0.375 2.25 0.375 0.625 0 1.313-0.125 1.938-0.313 0.688-0.25 1.25-0.5 1.625-0.75 0.438-0.25 0.688-0.313 0.75-0.313 1.375 0 2.063 1.938 2.063 5.875zM29.875 5.313c0 1.188-0.438 2.188-1.25 3.063-0.813 0.813-1.875 1.25-3 1.25-1.188 0-2.188-0.438-3.063-1.25-0.813-0.875-1.25-1.875-1.25-3.063s0.438-2.188 1.25-3c0.875-0.813 1.875-1.25 3.063-1.25 1.125 0 2.188 0.438 3 1.25s1.25 1.813 1.25 3z"></path>
</svg>