<svg version="1.1" xmlns="http://www.w3.org/2000/svg" width="32" height="32" viewBox="0 0 32 32">
<title>vimeo</title>
<path d="M30 9.625c-0.125 2.688-2.063 6.438-5.75 11.188-3.75 4.938-7 7.438-9.625 7.438-1.625 0-3-1.563-4.125-4.563-2.25-8.063-3.188-12.813-5-12.813-0.188 0-0.938 0.438-2.188 1.313l-1.313-1.688c3.25-2.813 6.313-5.938 8.25-6.125 2.188-0.25 3.5 1.25 4 4.438 1.813 11.375 2.625 13.063 5.875 7.938 1.188-1.875 1.813-3.25 1.875-4.25 0.313-2.875-2.25-2.625-3.938-1.938 1.375-4.5 4-6.688 7.875-6.563 2.875 0.063 4.188 1.938 4.063 5.625z"></path>
</svg>