<svg version="1.1" xmlns="http://www.w3.org/2000/svg" width="32" height="32" viewBox="0 0 32 32">
<title>wallet</title>
<path d="M30 14v-6c0-1.125-0.875-2-2-2h-0.625l-0.625-4.188c-0.063-0.25-0.188-0.438-0.438-0.625-0.188-0.125-0.438-0.25-0.75-0.188l-21.75 3.563c-0.5 0.063-0.875 0.563-0.813 1.125l0.063 0.313h-1.063c-1.125 0-2 0.875-2 2v22c0 1.125 0.875 2 2 2h26c1.125 0 2-0.875 2-2v-6c1.125 0 2-0.875 2-2v-6c0-1.125-0.875-2-2-2zM2 8h26v6h-8c-1.125 0-2 0.875-2 2v6c0 1.125 0.875 2 2 2h8v6h-26zM7.313 6l17.625-2.875 0.438 2.875zM20 22v-6h10v6zM22 19c0 0.563 0.438 1 1 1s1-0.438 1-1c0-0.563-0.438-1-1-1s-1 0.438-1 1z"></path>
</svg>