<svg version="1.1" xmlns="http://www.w3.org/2000/svg" width="32" height="32" viewBox="0 0 32 32">
<title>warning</title>
<path d="M31.625 29.063l-13.875-26c-0.313-0.625-1-1.063-1.75-1.063s-1.438 0.375-1.75 1.063l-13.938 26c-0.375 0.625-0.313 1.375 0.063 1.938 0.313 0.625 1 1 1.688 1h27.813c0.688 0 1.375-0.375 1.688-1 0.375-0.563 0.438-1.313 0.063-1.938zM2.063 30l13.938-26 13.875 26zM14 14.063v6c0 1.063 0.875 2 2 2s2-0.938 2-2v-6c0-1.125-0.875-2-2-2s-2 0.875-2 2zM14 26c0 1.125 0.875 2 2 2s2-0.875 2-2c0-1.125-0.875-2-2-2s-2 0.875-2 2z"></path>
</svg>