<svg version="1.1" xmlns="http://www.w3.org/2000/svg" width="32" height="32" viewBox="0 0 32 32">
<title>water</title>
<path d="M31.25 23.125c-1.188-0.125-2.375-0.625-3.25-1.313-0.75-0.625-1.875-0.625-2.688 0-2.063 1.688-5.938 1.688-8.063-0.063-0.75-0.625-1.875-0.5-2.625 0.125-2.063 1.625-5.938 1.625-8.063-0.125-0.75-0.625-1.813-0.5-2.625 0.125-0.813 0.688-2 1.125-3.188 1.25-0.438 0-0.75 0.438-0.75 0.875v1.75c0 0.5 0.438 0.938 0.938 0.938 1.563-0.188 3.125-0.688 4.375-1.438 3.188 1.875 7.625 1.875 10.688 0 3.125 1.875 7.625 1.875 10.688 0 1.25 0.75 2.813 1.25 4.375 1.375 0.5 0.063 0.938-0.375 0.938-0.875v-1.75c0-0.438-0.313-0.875-0.75-0.875zM31.25 15.125c-1.188-0.125-2.375-0.625-3.25-1.313-0.75-0.625-1.875-0.625-2.688 0-2.063 1.688-5.938 1.688-8.063-0.063-0.75-0.625-1.875-0.5-2.625 0.125-2.063 1.625-5.938 1.625-8.063-0.125-0.75-0.625-1.813-0.5-2.625 0.125-0.813 0.688-2 1.125-3.188 1.25-0.438 0-0.75 0.438-0.75 0.875v1.75c0 0.5 0.438 0.938 0.938 0.938 1.563-0.188 3.125-0.688 4.375-1.438 3.188 1.875 7.625 1.875 10.688 0 3.125 1.875 7.625 1.875 10.688 0 1.25 0.75 2.813 1.25 4.375 1.375 0.5 0.063 0.938-0.375 0.938-0.875v-1.75c0-0.438-0.313-0.875-0.75-0.875zM31.25 7.125c-1.188-0.188-2.375-0.625-3.25-1.313-0.75-0.625-1.875-0.625-2.688 0-2.063 1.688-5.938 1.688-8.063-0.063-0.75-0.625-1.875-0.5-2.625 0.125-2.063 1.625-5.938 1.625-8.063-0.125-0.75-0.625-1.813-0.5-2.625 0.125-0.813 0.688-2 1.125-3.188 1.25-0.438 0-0.75 0.438-0.75 0.875v1.75c0 0.5 0.438 0.938 0.938 0.938 1.563-0.188 3.125-0.688 4.375-1.438 3.188 1.875 7.625 1.875 10.688 0 3.125 1.875 7.625 1.875 10.688 0 1.25 0.75 2.813 1.25 4.375 1.375 0.5 0.063 0.938-0.375 0.938-0.875v-1.75c0-0.438-0.313-0.875-0.75-0.875z"></path>
</svg>