<svg version="1.1" xmlns="http://www.w3.org/2000/svg" width="32" height="32" viewBox="0 0 32 32">
<title>whatsapp</title>
<path d="M16 0c-8.813 0-16 7.188-16 16s7.188 16 16 16c8.813 0 16-7.188 16-16s-7.188-16-16-16zM16.188 4.688c1.5 0 2.938 0.25 4.313 0.813 1.375 0.625 2.5 1.438 3.5 2.375 1 1 1.813 2.188 2.375 3.563 0.625 1.313 0.875 2.75 0.875 4.25s-0.25 2.938-0.875 4.313c-0.563 1.313-1.375 2.5-2.375 3.563-1 0.938-2.125 1.75-3.5 2.313s-2.813 0.875-4.313 0.875c-1.875 0-3.688-0.438-5.313-1.375l-6.125 1.938 1.938-5.938c-1-1.688-1.5-3.625-1.5-5.688 0-1.5 0.25-2.938 0.875-4.25 0.563-1.375 1.313-2.563 2.375-3.563 0.938-0.938 2.125-1.75 3.438-2.313 1.375-0.625 2.813-0.875 4.313-0.875zM16.188 6.5c-1.188 0-2.375 0.25-3.563 0.75-1.125 0.5-2.125 1.125-2.938 1.938s-1.5 1.813-1.938 2.938c-0.5 1.125-0.75 2.313-0.75 3.563 0 2 0.563 3.813 1.75 5.375l-1.188 3.438 3.563-1.125c1.563 1.063 3.25 1.563 5.063 1.563 1.25 0 2.438-0.25 3.625-0.75 1.125-0.5 2.063-1.188 2.938-2 0.813-0.813 1.438-1.75 1.938-2.875 0.5-1.188 0.688-2.375 0.688-3.625s-0.188-2.438-0.688-3.563c-0.5-1.125-1.125-2.125-1.938-2.938-0.875-0.813-1.813-1.438-2.938-1.938-1.188-0.5-2.375-0.75-3.625-0.75zM12.5 10.313h0.25c0.188 0.063 0.25 0.063 0.313 0.063 0.188 0 0.313 0 0.375 0.063 0.125 0.063 0.125 0.188 0.25 0.375 0.063 0.188 0.25 0.688 0.438 1.313 0.313 0.688 0.375 1.063 0.375 1.125 0 0.188-0.125 0.438-0.438 0.813-0.375 0.375-0.5 0.625-0.5 0.688s0 0.125 0 0.25c0.375 0.688 0.875 1.375 1.5 2 0.563 0.5 1.313 1 2.25 1.438 0.125 0.063 0.25 0.125 0.313 0.125 0.188 0 0.438-0.25 0.813-0.688 0.375-0.5 0.625-0.75 0.75-0.75s0.625 0.188 1.438 0.688c0.813 0.375 1.25 0.625 1.25 0.75 0.063 0.063 0.063 0.125 0.063 0.188 0 0.375-0.063 0.75-0.25 1.125-0.125 0.375-0.5 0.75-1 1-0.563 0.25-1.063 0.375-1.5 0.375-0.563 0-1.5-0.313-2.813-0.875-0.938-0.5-1.75-1.063-2.5-1.75-0.688-0.75-1.438-1.625-2.125-2.75-0.75-1-1.063-2-1.063-2.813v-0.125c0-0.875 0.375-1.688 1.063-2.313 0.25-0.25 0.5-0.313 0.75-0.313z"></path>
</svg>