<svg version="1.1" xmlns="http://www.w3.org/2000/svg" width="32" height="32" viewBox="0 0 32 32">
<title>wifi</title>
<path d="M16 25.813c-0.188 0-0.688-0.375-1.438-1.188-0.75-0.75-1.125-1.25-1.125-1.438 0-0.313 0.313-0.625 0.938-0.813 0.688-0.25 1.188-0.375 1.625-0.375s0.938 0.125 1.625 0.375c0.625 0.188 1 0.5 1 0.813 0 0.188-0.438 0.688-1.188 1.438-0.75 0.813-1.25 1.188-1.438 1.188zM20.25 21.563c-0.063 0-0.25-0.125-0.625-0.375-0.438-0.25-0.938-0.563-1.625-0.813-0.625-0.25-1.313-0.375-2-0.375s-1.375 0.125-2 0.375c-0.688 0.25-1.188 0.563-1.563 0.813-0.438 0.25-0.625 0.375-0.625 0.375-0.188 0-0.688-0.375-1.5-1.188-0.75-0.75-1.188-1.25-1.188-1.438 0-0.125 0.063-0.25 0.188-0.375 0.813-0.813 1.813-1.438 3.063-1.875 1.188-0.438 2.438-0.688 3.625-0.688s2.438 0.25 3.625 0.688c1.25 0.438 2.25 1.063 3.063 1.875 0.125 0.125 0.188 0.25 0.188 0.375 0 0.188-0.438 0.688-1.188 1.438-0.813 0.813-1.25 1.188-1.438 1.188zM24.5 17.313c-0.125 0-0.25-0.063-0.375-0.125-1.438-1.063-2.75-1.875-3.938-2.438-1.188-0.5-2.625-0.75-4.188-0.75-0.875 0-1.75 0.125-2.688 0.375-0.875 0.188-1.625 0.5-2.313 0.813-0.625 0.313-1.25 0.625-1.75 0.938-0.563 0.313-0.938 0.625-1.25 0.875-0.313 0.188-0.438 0.313-0.5 0.313-0.188 0-0.625-0.375-1.438-1.188-0.75-0.75-1.125-1.25-1.125-1.438 0-0.125 0-0.25 0.125-0.313 1.375-1.375 3.063-2.5 5-3.25s3.938-1.125 5.938-1.125c2 0 4 0.375 5.938 1.125s3.625 1.875 5 3.25c0.125 0.063 0.188 0.188 0.188 0.313 0 0.188-0.438 0.688-1.188 1.438-0.813 0.813-1.25 1.188-1.438 1.188zM28.75 13.063c-0.125 0-0.25 0-0.375-0.125-1.875-1.625-3.813-2.875-5.813-3.688s-4.188-1.25-6.563-1.25c-2.375 0-4.563 0.438-6.563 1.25s-3.938 2.063-5.813 3.688c-0.125 0.125-0.25 0.125-0.313 0.125-0.188 0-0.688-0.375-1.5-1.125-0.75-0.813-1.125-1.313-1.125-1.5 0-0.125 0-0.25 0.125-0.313 1.938-1.938 4.25-3.438 6.938-4.5s5.438-1.625 8.25-1.625c2.813 0 5.563 0.563 8.25 1.625s5 2.563 6.938 4.5c0.125 0.063 0.188 0.188 0.188 0.313 0 0.188-0.438 0.688-1.188 1.5-0.813 0.75-1.313 1.125-1.438 1.125z"></path>
</svg>