<svg version="1.1" xmlns="http://www.w3.org/2000/svg" width="32" height="32" viewBox="0 0 32 32">
<title>wine-toast</title>
<path d="M32 24.875c-0.438-1-1.625-1.5-2.625-1.063l-1.125 0.438-1.938-5.063c2.375-1.75 3.25-5.063 1.75-7.688l-4.375-7.5c-0.375-0.688-1.25-1-2-0.688l-5.688 2.375-5.688-2.375c-0.75-0.313-1.625 0-2 0.688l-4.375 7.5c-1.5 2.625-0.625 5.938 1.75 7.688l-1.938 5.063-1.125-0.438c-1-0.438-2.188 0.063-2.625 1.063-0.063 0.188 0.063 0.438 0.25 0.5l8.125 3.375c0.188 0.125 0.438 0 0.5-0.188 0.438-1-0.063-2.188-1.063-2.625l-1.125-0.438 2-5.188c0.188 0 0.438 0.063 0.625 0.063 2.563 0 5-1.688 5.688-4.25l1-3.813 1 3.813c0.688 2.563 3.125 4.25 5.688 4.25 0.188 0 0.438-0.063 0.625-0.063l2 5.188-1.125 0.438c-1 0.438-1.5 1.625-1.063 2.625 0.063 0.188 0.313 0.313 0.5 0.188l8.125-3.375c0.188-0.063 0.313-0.313 0.25-0.5zM13.813 11.313l-5.625-2.313 1.813-3.188 4.75 1.938zM18.188 11.313l-0.938-3.563 4.75-1.938 1.813 3.188z"></path>
</svg>