<svg version="1.1" xmlns="http://www.w3.org/2000/svg" width="32" height="32" viewBox="0 0 32 32">
<title>wordpress</title>
<path d="M16 0c-8.813 0-16 7.188-16 16s7.188 16 16 16c8.813 0 16-7.188 16-16s-7.188-16-16-16zM2.313 16c0-1.938 0.375-3.75 1.188-5.438l6.5 17.438c-4.563-2.125-7.688-6.688-7.688-12zM16 29.375c-1.375 0-2.625-0.188-3.875-0.563l4.125-11.625 4.188 11.25c0.063 0.063 0.063 0.125 0.125 0.188-1.438 0.438-2.938 0.75-4.563 0.75zM17.875 9.75c0.813-0.063 1.563-0.125 1.563-0.125 0.75-0.125 0.688-1.125-0.063-1.125 0 0-2.25 0.188-3.688 0.188-1.313 0-3.563-0.188-3.563-0.188-0.75-0.063-0.875 1.063-0.125 1.125 0 0 0.688 0.063 1.438 0.125l2.125 5.688-3 8.75-4.938-14.438c0.813-0.063 1.563-0.125 1.563-0.125 0.688-0.125 0.625-1.125-0.125-1.125 0 0-2.188 0.188-3.625 0.188-0.25 0-0.563 0-0.875 0 2.438-3.625 6.625-6.063 11.438-6.063 3.563 0 6.813 1.375 9.25 3.5-0.063 0-0.125 0-0.188 0-1.313 0-2.313 1.125-2.313 2.375 0 1.125 0.688 2.063 1.375 3.125 0.5 0.938 1.125 2.063 1.125 3.688 0 1.125-0.438 2.5-1.063 4.313l-1.313 4.5zM29.688 16c0 4.938-2.688 9.25-6.813 11.563l4.188-11.813c0.813-1.938 1.063-3.438 1.063-4.813 0-0.438 0-0.938-0.063-1.375 1.063 1.938 1.625 4.125 1.625 6.438z"></path>
</svg>