<svg version="1.1" xmlns="http://www.w3.org/2000/svg" width="32" height="32" viewBox="0 0 32 32">
<title>world</title>
<path d="M16 0.5c-8.563 0-15.5 6.938-15.5 15.5s6.938 15.5 15.5 15.5c8.563 0 15.5-6.938 15.5-15.5s-6.938-15.5-15.5-15.5zM21.125 22.875c-0.25 0.188-0.5 0.5-0.688 0.688s-0.313 0.438-0.375 0.688c-0.125 0.313-0.188 0.688-0.313 1l-1.063 2.938c-0.875 0.188-1.75 0.313-2.688 0.313v-1.688c0.125-0.813-0.5-2.313-1.438-3.25-0.375-0.375-0.563-0.875-0.563-1.375v-2c0-0.75-0.375-1.438-1-1.75-0.938-0.5-2.188-1.188-3.063-1.625-0.75-0.375-1.375-0.813-2-1.375l-0.063-0.063c-0.438-0.375-0.813-0.813-1.125-1.313-0.563-0.813-1.5-2.25-2.125-3.188 1.25-2.813 3.563-5.125 6.438-6.375l1.5 0.75c0.625 0.375 1.438-0.125 1.438-0.875v-0.688c0.5-0.063 1-0.125 1.5-0.188l1.813 1.813c0.375 0.375 0.375 1 0 1.375l-0.938 0.938c-0.188 0.188-0.188 0.563 0 0.75l0.25 0.25c0.188 0.188 0.188 0.563 0 0.75l-0.5 0.5c-0.063 0.063-0.188 0.125-0.313 0.125h-0.563c-0.125 0-0.25 0.063-0.375 0.125l-0.625 0.625c-0.125 0.125-0.188 0.375-0.063 0.563l0.938 1.938c0.188 0.375-0.063 0.75-0.438 0.75h-0.375c-0.125 0-0.188-0.063-0.313-0.125l-0.563-0.5c-0.25-0.25-0.625-0.313-1-0.188l-1.938 0.625c-0.313 0.125-0.5 0.375-0.5 0.75 0 0.25 0.188 0.5 0.438 0.625l0.688 0.375c0.563 0.313 1.188 0.438 1.875 0.438s1.438 1.688 2 2h4.188c0.5 0 1 0.188 1.375 0.563l0.875 0.875c0.375 0.375 0.563 0.875 0.563 1.375 0 0.75-0.313 1.5-0.875 2.063zM26.563 17.125c-0.375-0.063-0.688-0.313-0.875-0.625l-1.125-1.688c-0.375-0.5-0.375-1.125 0-1.625l1.188-1.875c0.188-0.188 0.375-0.375 0.625-0.5l0.813-0.375c0.813 1.688 1.313 3.563 1.313 5.563 0 0.563-0.063 1.063-0.125 1.625z"></path>
</svg>