<svg version="1.1" xmlns="http://www.w3.org/2000/svg" width="32" height="32" viewBox="0 0 32 32">
<title>wrench</title>
<path d="M29.5 23.188l-11.438-11.375c0.125-0.563 0.25-1.125 0.25-1.813 0-4.5-3.75-8.25-8.25-8.25-1.25 0-2.375 0.313-3.438 0.75h0.063l-1.188 0.5 4.813 4.813-2.5 2.5-4.813-4.813-0.5 1.188c-0.438 1-0.75 2.125-0.75 3.375 0 4.563 3.688 8.25 8.25 8.25 0.625 0 1.25-0.125 1.875-0.25h-0.063l11.375 11.438c0.313 0.313 0.813 0.5 1.25 0.5 0.5 0 0.938-0.188 1.313-0.5l3.75-3.75c0.313-0.375 0.5-0.813 0.5-1.313 0-0.438-0.188-0.938-0.5-1.25zM24.438 28.25l-12.125-12.125-0.5 0.125c-0.5 0.188-1.125 0.25-1.813 0.25-3.563 0-6.438-2.875-6.438-6.438 0 0 0 0 0-0.063 0-0.438 0.063-0.875 0.125-1.313l4.125 4.125 5-5.063-4.063-4.063c0.375-0.063 0.813-0.125 1.313-0.125 3.563 0 6.438 2.875 6.438 6.438 0 0.688-0.063 1.313-0.25 1.875v-0.063l-0.125 0.5 12.125 12.188zM24.938 23.25c0.438 0.438 0.438 1.188 0 1.625-0.438 0.5-1.188 0.5-1.625 0-0.438-0.438-0.438-1.188 0-1.625s1.188-0.438 1.625 0z"></path>
</svg>