<svg version="1.1" xmlns="http://www.w3.org/2000/svg" width="32" height="32" viewBox="0 0 32 32">
<title>youtube</title>
<path d="M30.563 8.688c-0.375-1.313-1.375-2.375-2.688-2.688-2.375-0.688-11.875-0.688-11.875-0.688s-9.5 0-11.875 0.688c-1.313 0.313-2.313 1.375-2.688 2.688-0.625 2.375-0.625 7.313-0.625 7.313s0 5 0.625 7.375c0.375 1.313 1.375 2.313 2.688 2.625 2.375 0.688 11.875 0.688 11.875 0.688s9.5 0 11.875-0.688c1.313-0.313 2.313-1.313 2.688-2.625 0.625-2.375 0.625-7.375 0.625-7.375s0-4.938-0.625-7.313zM12.875 20.563v-9.063l7.938 4.5z"></path>
</svg>